<svg xmlns="http://www.w3.org/2000/svg" viewBox="0 0 2000 1780.56"><defs><style>.cls-1{fill:#76a0f4;}.cls-2{fill:#97bfff;}.cls-3{fill:#c0daff;}.cls-4{fill:#e3f0ff;}</style></defs><title>parallax2</title><g id="Layer_2" data-name="Layer 2"><g id="Calque_1" data-name="Calque 1"><path class="cls-1" d="M1628.11,39.56c-232.88-64-628.11,89-905.9,0s-481.47,0-722.21,0v1741H2000V39.56C1876,39.56,1861,103.56,1628.11,39.56Z"/><path class="cls-2" d="M1408.47,255.56c-351.74,180-947.85-91-1224.47,0C91,286.13,36.1,296.16,0,296V1708.56H2000v-1453C1802.82,255.56,1760.21,75.56,1408.47,255.56Z"/><path class="cls-3" d="M1161.47,538.56c-324.53-207-258.47,68-664.08,0s-331.59,0-497.39,0v1052H2000v-1052C1720.49,538.56,1486,745.56,1161.47,538.56Z"/><path class="cls-4" d="M903,1028C380,1346.66.13,914.37,0,914.35H0v866.21H2000V914.35C1627.64,914.35,1426,709.24,903,1028Z"/></g></g></svg>