<svg id="Calque_1" data-name="Calque 1" xmlns="http://www.w3.org/2000/svg" viewBox="0 0 2000.64 3563"><defs><style>.cls-1{fill:#4b7fd1;}.cls-2{fill:#76a0f4;}.cls-3{fill:#97bfff;}.cls-4{fill:#c0daff;}.cls-5{fill:#e3f0ff;}</style></defs><title>wave</title><path class="cls-1" d="M0,0V2012H2000V0" transform="translate(0.64)"/><path class="cls-2" d="M1628.11,259c-232.88-64-628.11,89-905.9,0S240.74,259,0,259V2000H2000V259C1876,259,1861,323,1628.11,259Z" transform="translate(0.64)"/><path class="cls-3" d="M1408.47,475C1056.73,655,460.62,384,184,475,91,505.57,36.1,515.6,0,515.44V1928H2000V475C1802.82,475,1760.21,295,1408.47,475Z" transform="translate(0.64)"/><path class="cls-4" d="M1161.47,758C836.94,551,903,826,497.39,758S165.8,758,0,758V1810H2000V758C1720.49,758,1486,965,1161.47,758Z" transform="translate(0.64)"/><polygon class="cls-5" points="0.64 1259.2 0.64 1259.2 0.64 1259.2 0.64 1259.2"/><path class="cls-5" d="M45.68,1259.2h0Z" transform="translate(0.64)"/><path class="cls-5" d="M886,1128.56C-57.27,1489.7.13,1124.3,0,1124.25H0V3563H2000V1124.25C1627.64,1124.25,1577,864,886,1128.56Z" transform="translate(0.64)"/></svg>