<svg xmlns="http://www.w3.org/2000/svg" viewBox="0 0 1080.1 1919"><defs><style>.cls-1{fill:#fcdede;}.cls-2{fill:#76a0f4;}.cls-3{fill:#d39090;}.cls-4{fill:#ba6060;}.cls-5{fill:#bf6d6d;}.cls-6{fill:#ad4f4d;}.cls-7{fill:#f7f7f7;}.cls-8{fill:#fff;}.cls-9{fill:#4b79c4;}.cls-10{fill:#ef7373;}.cls-11{fill:#ef6059;}</style></defs><title>Asset 2</title><g id="Layer_2" data-name="Layer 2"><g id="Calque_1" data-name="Calque 1"><rect id="background" class="cls-1" x="5" width="1075.1" height="1917"/><rect id="water" class="cls-2" y="1811" width="1080" height="108"/><polygon class="cls-3" points="400.6 1228.7 337.26 1381.62 530.34 1798.05 684.15 1797.25 400.6 1228.7"/><polygon class="cls-4" points="400.6 1228.7 323.51 1395.37 516.6 1811.8 670.4 1811 400.6 1228.7"/><polygon id="first" class="cls-5" points="26 1318.31 144.2 1007.8 492.01 1700.97 280.59 1808.54 26 1808.61 26 1318.31"/><polygon id="first-2" data-name="first" class="cls-6" points="0 1320.7 144.2 1007.8 466.01 1703.36 254.59 1810.93 0 1811 0 1320.7"/><g id="cloud-3_second" data-name="cloud-3 second"><g id="clouds-2"><path class="cls-7" d="M752.32,642c-29.84,0-60.07,42.63-73.76,81.25a11.71,11.71,0,0,0,7.23,15,13.52,13.52,0,0,0,3.88.64h130a11.79,11.79,0,0,0,11.75-11.75,10.81,10.81,0,0,0-.9-4.52C813.55,681.66,781.9,642,752.32,642Z"/><path class="cls-8" d="M921.8,659.83c-23.9,0-48.06,33.59-59.55,64.59a10.76,10.76,0,0,0,6.33,13.82,11.88,11.88,0,0,0,3.74.64H974.89a10.8,10.8,0,0,0,10.85-10.72,10.06,10.06,0,0,0-.91-4.26C970.88,691.09,945.57,659.83,921.8,659.83Z"/><path class="cls-8" d="M934.33,738.88c-19.38-64.32-39-112.76-85.65-112.76-47.27,0-95.2,54.51-110,112.76Z"/></g></g><g id="clouds-3_first" data-name="clouds-3 first"><path class="cls-7" d="M719.2,164c-32.29,0-65,46.14-79.83,88a12.67,12.67,0,0,0,7.83,16.21,14.6,14.6,0,0,0,4.19.7H792.05a12.77,12.77,0,0,0,12.72-12.72,11.87,11.87,0,0,0-1-4.89C785.48,206.9,751.22,164,719.2,164Z"/><path class="cls-8" d="M902.65,183.27c-25.87,0-52,36.36-64.46,69.91a11.64,11.64,0,0,0,6.85,15,13,13,0,0,0,4.06.7h111a11.7,11.7,0,0,0,11.75-11.6,10.9,10.9,0,0,0-1-4.61C955.78,217.11,928.37,183.27,902.65,183.27Z"/><path class="cls-8" d="M916.21,268.84c-21-69.63-42.23-122.06-92.7-122.06-51.17,0-103,59-119.13,122.06Z"/></g><g id="clouds-2-2" data-name="clouds-2"><path class="cls-7" d="M553.51,441.67c-27.36,0-55.07,39.08-67.63,74.5a10.75,10.75,0,0,0,6.63,13.74,12.63,12.63,0,0,0,3.56.59H615.22A10.82,10.82,0,0,0,626,519.72a10,10,0,0,0-.83-4.14C609.65,478,580.64,441.67,553.51,441.67Z"/><path class="cls-8" d="M720.4,530.5c-17.77-59-35.77-103.4-78.53-103.4-43.35,0-87.29,50-100.91,103.4Z"/></g><g id="red_mountain" data-name="red mountain"><path class="cls-9" d="M1080,1811l-78.9-3.78H254.68c22.91,9.16,80.44,23.09,217.17,21.47,202-2.4,135.27,17,223.81,28,67.76,8.49,61.63-36.77,192.38,24.06C941.73,1905.76,1080,1811,1080,1811Z"/></g><g id="red_mountain-2" data-name="red mountain"><path class="cls-10" d="M957.2,1511.86c-141.92,223.87-135.26,57.33-208.81,88.54-96.1,40.77-23.68,112-242.92,103.19s-250.88,107.34-250.88,107.34h825.32V1459.84S1015.47,1419.92,957.2,1511.86Z"/><path class="cls-11" d="M957.2,1540.1c-141.92,223.88-135.26,57.33-208.81,88.55-96.1,40.77-23.68,112-242.92,103.19-148.4-6-210.85,45.31-235.7,79h810.14V1488.07S1015.47,1448.15,957.2,1540.1Z"/></g></g></g></svg>