<svg xmlns="http://www.w3.org/2000/svg" viewBox="0 0 904.26 904.26"><defs><style>.cls-1{opacity:0.8;}.cls-2{fill:#fcdede;}.cls-3{fill:#de4238;}.cls-4{fill:#ef6059;}.cls-5{fill:#4b7fd1;}.cls-6{fill:#606060;}.cls-7{fill:#ffb871;}.cls-8{fill:#76a0f4;}.cls-9{fill:#cacafc;}.cls-10{fill:#fff;}.cls-11{fill:#f7f7f7;}</style></defs><title>climbing3</title><g id="Layer_2" data-name="Layer 2"><g id="Layer_1-2" data-name="Layer 1"><g class="cls-1"><path class="cls-2" d="M452.13,904.26c249.7,0,452.13-202.43,452.13-452.13S701.83,0,452.13,0,0,202.43,0,452.13,202.43,904.26,452.13,904.26Z"/><path class="cls-3" d="M91.26,724.53a454.63,454.63,0,0,0,91.9,91q10.82,4.3,21.83,8.06l56.2-16.73L172.42,508.62Z"/><path class="cls-4" d="M158.85,796.23a450.35,450.35,0,0,0,293.29,108c240.14,0,436.56-187.22,451.24-423.67Z"/><path class="cls-5" d="M473.72,549l-14.28-.6-4.25,100.3,20.73.88,4-93.85A6.46,6.46,0,0,0,473.72,549Z"/><path class="cls-5" d="M407.26,495.33l16.16-13,54.09,67.22a10.63,10.63,0,0,1-1.62,14.94L468,570.82Z"/><path class="cls-6" d="M505.51,650.25,462.72,668.9l-8.64-19.82L479.62,638a18.81,18.81,0,0,1,24.78,9.74Z"/><path class="cls-5" d="M364.94,685.65l20.26,4.48,42.37-192-20.26-4.47Z"/><path class="cls-6" d="M416.16,686.84l-42.79,18.65-8.64-19.82,25.54-11.13a18.83,18.83,0,0,1,24.78,9.75Z"/><path class="cls-5" d="M436.85,480.66h-31v22.25h31Z"/><path class="cls-7" d="M445.92,308.39l-12.5-1.19-2.23,23.42,12.51,1.18Z"/><path class="cls-8" d="M421.19,488.9a21.61,21.61,0,0,0,23.56-19.47l11-115.4a21.61,21.61,0,0,0-43-4.08l-11,115.39A21.61,21.61,0,0,0,421.19,488.9Z"/><path class="cls-7" d="M416.9,439.91l7.39-12.79a.14.14,0,0,1,.19-.06l55.38,32a6.78,6.78,0,0,1,2.47,9.26l-1,1.74a6.78,6.78,0,0,1-9.26,2.47l-54.93-31.71A.65.65,0,0,1,416.9,439.91Z"/><path class="cls-9" d="M407.63,434.12l7.22-12.5a.2.2,0,0,1,.27-.08l48.56,28a.2.2,0,0,1,.08.27L456.17,463a.2.2,0,0,1-.27.07L408,435.39A.93.93,0,0,1,407.63,434.12Z"/><path class="cls-9" d="M414.42,438.41l-5.13-1.87a10.1,10.1,0,0,1-6-13l24.11-66A7.78,7.78,0,0,1,442,362.89Z"/><path class="cls-6" d="M435.73,291.52l-9.32,10.2s-17.5-20.48-17.3-28.9c.25-10.38,13-31.6,22.95-34.56,10.24-3.06,34.15,2.31,41.56,10,1.65,1.72,2.79,7.53,1.36,9.44-1.65,2.2-10.88,1.53-10.88,1.53"/><path class="cls-7" d="M435.35,291.35l-9,10.37s15.67,18.51,22.94,21.46c2.8,1.14,12.08.24,12.08.24l6.88-24.09,7.05-2.41-5.82-13.46-5.44-24.21s-17.45-3.33-22.06,1.58c-4.17,4.43-2.86,22.18-2.86,22.18s-6.66-3.75-8.05-2.18C429.25,283,435.35,291.35,435.35,291.35Z"/><path class="cls-10" d="M288.33,235.77l-.26-.85-7.31-26.52-19.51-33.92L242.53,160l-19.12-.46-9.69,7.59-15,14.42c-1.32,3.06-2.64,6.1-4,9.15l-1.34,3.11,1.31-3.06L193,193.53,175.6,182.15l-17.37.59L146.8,189.5l-18.33,23.23-7.79,20.71-.91,2.82h96.55l.29-1.68.73,1.47Z"/></g><g id="clouds"><path class="cls-11" d="M169.25,153.63c-25.83,0-51.94,36.9-63.8,70.23a10.17,10.17,0,0,0,9.61,13.53H227.44a10.17,10.17,0,0,0,9.42-14C222.14,187.92,194.82,153.63,169.25,153.63Z"/><path class="cls-10" d="M315.79,169c-20.68,0-41.58,29-51.5,55.79a9.33,9.33,0,0,0,8.76,12.57h88.68a9.33,9.33,0,0,0,8.6-13C358.18,196.05,336.3,169,315.79,169Z"/><path class="cls-10" d="M326.65,237.39C309.89,181.75,293,139.9,252.57,139.9c-40.87,0-82.28,47.09-95.2,97.49Z"/></g><g id="clouds-2" data-name="clouds"><path class="cls-11" d="M683.59,303.24c-23.13,0-46.5,33-57.12,62.88a9.11,9.11,0,0,0,8.61,12.12H735.7a9.11,9.11,0,0,0,8.43-12.58C731,333.94,706.49,303.24,683.59,303.24Z"/><path class="cls-10" d="M814.8,317c-18.52,0-37.23,26-46.11,50a8.36,8.36,0,0,0,7.84,11.26h79.4a8.36,8.36,0,0,0,7.71-11.62C852.76,341.23,833.16,317,814.8,317Z"/><path class="cls-10" d="M824.53,378.24c-15-49.82-30.15-87.29-66.33-87.29-36.6,0-73.68,42.16-85.25,87.29Z"/></g></g></g></svg>