<svg width="905" height="905" viewBox="0 0 905 905" fill="none" xmlns="http://www.w3.org/2000/svg">
<g opacity="0.8">
<path d="M452.87 905C702.575 905 905 702.575 905 452.87C905 203.166 702.575 0.740234 452.87 0.740234C203.166 0.740234 0.740051 203.166 0.740051 452.87C0.740051 702.575 203.166 905 452.87 905Z" fill="#FCDEDE"/>
<path d="M91.9977 725.271C118.116 759.824 149.089 790.507 183.898 816.314C191.111 819.176 198.377 821.877 205.73 824.374L261.931 807.644L173.16 509.361L91.9977 725.271Z" fill="#DE4238"/>
<path d="M159.592 796.97C238.546 864.328 340.96 905 452.881 905C693.023 905 889.438 717.78 904.121 481.335L159.592 796.97Z" fill="#EF6059"/>
<path d="M474.465 549.765L460.179 549.165L455.935 649.457L476.662 650.336L480.638 556.495C480.788 552.926 478.034 549.915 474.465 549.765Z" fill="#4B7FD1"/>
<path d="M407.997 496.071L424.158 483.061L478.249 550.279C481.925 554.856 481.206 561.543 476.63 565.219L468.742 571.564L407.997 496.071Z" fill="#4B7FD1"/>
<path d="M506.253 650.99L463.459 669.638L454.821 649.822L480.36 638.697C489.888 634.539 500.991 638.901 505.138 648.439L506.253 650.99Z" fill="#606060"/>
<path d="M365.682 686.395L385.943 690.867L428.307 498.899L408.046 494.428L365.682 686.395Z" fill="#4B7FD1"/>
<path d="M416.903 687.578L374.109 706.226L365.471 686.41L391.01 675.285C400.538 671.127 411.641 675.489 415.788 685.027L416.903 687.578Z" fill="#606060"/>
<path d="M437.587 481.399H406.614V503.649H437.587V481.399Z" fill="#4B7FD1"/>
<path d="M446.661 309.127L434.157 307.938L431.932 331.357L444.436 332.545L446.661 309.127Z" fill="#FFB871"/>
<path d="M421.929 489.641C433.815 490.766 444.36 482.053 445.486 470.168L456.45 354.775C457.575 342.889 448.862 332.343 436.976 331.218C425.091 330.093 414.545 338.806 413.42 350.691L402.456 466.084C401.331 477.959 410.044 488.515 421.929 489.641Z" fill="#76A0F4"/>
<path d="M417.642 440.652L425.027 427.856C425.069 427.792 425.144 427.77 425.219 427.802L480.596 459.772C483.832 461.648 484.947 465.784 483.071 469.032L482.064 470.768C480.188 474.005 476.051 475.119 472.804 473.244L417.867 441.531C417.567 441.349 417.46 440.952 417.642 440.652Z" fill="#FFB871"/>
<path d="M408.372 434.865L415.595 422.358C415.649 422.261 415.767 422.229 415.863 422.283L464.423 450.319C464.52 450.373 464.552 450.491 464.498 450.587L456.91 463.726C456.857 463.823 456.739 463.855 456.643 463.801L408.704 436.129C408.265 435.861 408.115 435.304 408.372 434.865Z" fill="#CACAFC"/>
<path d="M415.156 439.152L410.033 437.276C404.792 435.358 402.091 429.56 404.01 424.319L428.124 358.29C429.603 354.25 434.061 352.181 438.102 353.649C442.142 355.128 444.21 359.587 442.742 363.627L415.156 439.152Z" fill="#CACAFC"/>
<path d="M436.473 292.261L427.149 302.464C427.149 302.464 409.647 281.984 409.851 273.56C410.098 263.185 422.862 241.965 432.797 238.997C443.042 235.942 466.953 241.311 474.358 249.017C476.009 250.743 477.155 256.551 475.719 258.459C474.069 260.656 464.841 259.992 464.841 259.992" fill="black"/>
<path d="M436.087 292.09L427.138 302.464C427.138 302.464 442.807 320.973 450.084 323.92C452.881 325.056 462.162 324.156 462.162 324.156L469.042 300.074L476.094 297.663L470.275 284.202L464.831 259.992C464.831 259.992 447.383 256.659 442.774 261.567C438.605 266.004 439.913 283.752 439.913 283.752C439.913 283.752 433.247 280.001 431.864 281.566C429.989 283.688 436.087 292.09 436.087 292.09Z" fill="#FFB871"/>
<path d="M289.067 236.51L288.81 235.663L281.501 209.138L261.995 175.218L243.272 160.739L224.153 160.278L214.464 167.866C209.449 172.678 204.433 177.479 199.417 182.291C198.099 185.346 196.781 188.389 195.462 191.444C195.012 192.483 194.573 193.512 194.123 194.552L195.43 191.487L193.705 194.273L176.343 182.891L158.97 183.481L147.545 190.243L129.208 213.468L121.417 234.184L120.506 237.003H217.058L217.347 235.32L218.076 236.789L289.067 236.51Z" fill="white"/>
<path d="M290.986 236.156C290.975 236.092 290.975 236.038 290.953 235.974C290.868 235.674 290.771 235.374 290.685 235.074C290.621 234.859 290.557 234.656 290.493 234.441C290.396 234.109 290.289 233.766 290.192 233.434C290.182 233.412 290.182 233.402 290.171 233.38C289.41 230.872 288.606 228.386 287.77 225.9C287.77 225.878 287.76 225.868 287.76 225.846C287.61 225.396 287.46 224.935 287.299 224.485C287.202 224.196 287.106 223.917 287.009 223.628C286.977 223.52 286.934 223.424 286.902 223.317C286.87 223.231 286.849 223.156 286.816 223.07C286.816 223.06 286.806 223.049 286.806 223.038C286.763 222.92 286.72 222.792 286.677 222.674C286.656 222.609 286.634 222.556 286.613 222.492V222.481C286.581 222.395 286.559 222.32 286.527 222.234C286.527 222.224 286.517 222.213 286.517 222.191C285.552 219.459 284.544 216.736 283.494 214.036C283.494 214.036 283.494 214.025 283.483 214.014C280.665 206.823 277.514 199.75 273.838 192.955C273.827 192.944 273.816 192.923 273.816 192.912C270.933 187.607 267.718 182.463 264.021 177.683C260.345 172.935 256.176 168.552 251.267 165.058C248.792 163.289 246.123 161.821 243.283 160.717C240.454 159.603 237.453 158.96 234.42 158.799C233.97 158.777 233.53 158.767 233.08 158.767C230.476 158.767 227.872 159.174 225.385 159.881C222.427 160.728 219.608 162.068 217.004 163.686C214.539 165.218 212.246 167.03 210.102 168.98C207.862 171.016 205.805 173.256 203.876 175.582C200.039 180.212 196.727 185.26 193.748 190.479C193.48 190.951 193.641 191.561 194.101 191.829C194.562 192.097 195.184 191.937 195.452 191.476C197.906 187.167 200.596 182.988 203.618 179.054C206.823 174.918 210.413 171.038 214.55 167.801C217.079 165.861 219.801 164.179 222.738 162.903C224.999 161.971 227.346 161.296 229.758 160.953C231.965 160.674 234.184 160.674 236.392 160.942C238.814 161.285 241.172 161.95 243.433 162.882C246.359 164.136 249.07 165.808 251.6 167.737C255.726 170.952 259.305 174.81 262.51 178.926C262.499 178.915 262.488 178.894 262.478 178.883C262.51 178.915 262.531 178.958 262.563 178.99C262.574 179.001 262.574 179.012 262.585 179.022C262.585 179.022 262.585 179.022 262.585 179.012L262.595 179.022C266.218 183.749 269.369 188.818 272.209 194.048C272.23 194.091 272.252 194.134 272.284 194.187C272.295 194.198 272.295 194.209 272.305 194.23C274.963 199.16 277.342 204.24 279.529 209.406C280.161 210.917 280.783 212.428 281.383 213.961C281.383 213.971 281.383 213.971 281.394 213.982C281.415 214.036 281.436 214.089 281.458 214.143C282.433 216.629 283.366 219.126 284.266 221.645C284.266 221.656 284.276 221.677 284.276 221.688C284.448 222.181 284.63 222.674 284.802 223.167C284.909 223.488 285.027 223.81 285.134 224.131C285.391 224.871 285.648 225.621 285.895 226.361C285.906 226.382 285.906 226.403 285.916 226.414C286.752 228.901 287.545 231.398 288.317 233.905L288.328 233.938C288.424 234.238 288.51 234.538 288.596 234.827C288.681 235.095 288.756 235.363 288.842 235.631C288.896 235.802 288.939 235.963 288.992 236.135H236.07H218.247C218.237 236.092 218.237 236.049 218.215 236.006C218.076 235.663 217.937 235.32 217.808 234.977C217.797 234.956 217.787 234.924 217.776 234.902V234.891C217.733 234.774 217.679 234.645 217.626 234.527C217.604 234.473 217.583 234.409 217.561 234.356V234.345C217.561 234.334 217.551 234.323 217.551 234.313C217.54 234.281 217.529 234.248 217.519 234.216C217.508 234.206 217.508 234.195 217.497 234.173C217.465 234.088 217.433 234.002 217.39 233.916C217.379 233.884 217.369 233.863 217.358 233.83C216.297 231.248 215.204 228.697 214.046 226.157C214.035 226.125 214.025 226.093 214.003 226.071C213.907 225.857 213.81 225.653 213.714 225.439C213.585 225.16 213.457 224.882 213.317 224.603C213.253 224.464 213.189 224.324 213.125 224.196C213.114 224.185 213.114 224.174 213.103 224.153C212.685 223.274 212.267 222.395 211.828 221.516C211.828 221.506 211.817 221.506 211.817 221.495C211.742 221.345 211.667 221.195 211.592 221.045C211.581 221.023 211.57 221.002 211.56 220.98C211.485 220.83 211.41 220.68 211.335 220.53C211.324 220.509 211.313 220.498 211.313 220.477L211.077 220.016C211.067 220.005 211.067 219.994 211.056 219.984C210.97 219.823 210.895 219.662 210.81 219.491C209.106 216.147 207.284 212.867 205.312 209.663C203.34 206.469 201.207 203.351 198.881 200.393C198.87 200.371 198.86 200.36 198.838 200.339C198.742 200.21 198.645 200.092 198.538 199.964C198.506 199.932 198.485 199.889 198.453 199.857C198.367 199.75 198.281 199.642 198.195 199.535C198.152 199.482 198.11 199.428 198.067 199.374C197.992 199.289 197.917 199.192 197.852 199.106C197.799 199.042 197.734 198.967 197.681 198.903C197.617 198.828 197.563 198.753 197.499 198.688C197.424 198.603 197.359 198.517 197.284 198.442C197.231 198.388 197.188 198.324 197.134 198.271C197.049 198.174 196.963 198.067 196.877 197.97C196.845 197.928 196.813 197.885 196.77 197.853C196.673 197.735 196.566 197.617 196.47 197.51C196.448 197.488 196.427 197.456 196.406 197.435C196.288 197.306 196.18 197.167 196.063 197.038C196.052 197.027 196.041 197.017 196.041 197.006C195.387 196.256 194.712 195.527 194.026 194.809C189.932 190.522 185.163 186.728 179.697 184.349C179.547 184.284 179.408 184.22 179.258 184.156C179.204 184.134 179.151 184.113 179.108 184.092C178.111 183.674 177.082 183.309 176.043 183.009C175.818 182.945 175.593 182.88 175.367 182.816C174.339 182.538 173.299 182.334 172.249 182.173C171.884 182.12 171.52 182.077 171.145 182.034C171.123 182.034 171.091 182.023 171.07 182.023C171.059 182.023 171.048 182.023 171.027 182.023C170.952 182.012 170.877 182.012 170.813 182.002C170.18 181.937 169.537 181.895 168.905 181.884C168.691 181.884 168.466 181.873 168.251 181.873C166.419 181.873 164.586 182.066 162.785 182.441C162.357 182.527 161.939 182.623 161.51 182.73C160.546 182.966 159.592 183.266 158.659 183.599C156.237 184.477 153.933 185.656 151.757 187.05C150.236 188.014 148.789 189.097 147.395 190.243C147.374 190.254 147.363 190.275 147.342 190.286C147.31 190.308 147.278 190.34 147.245 190.361C146.613 190.886 146.002 191.422 145.391 191.969C142.465 194.616 139.84 197.563 137.418 200.682C137.385 200.714 137.364 200.757 137.332 200.789C137.31 200.821 137.289 200.843 137.268 200.875C136.282 202.161 135.328 203.468 134.406 204.797C134.385 204.829 134.363 204.862 134.331 204.894C134.32 204.905 134.31 204.926 134.299 204.947C134.042 205.312 133.795 205.676 133.549 206.051C132.488 207.627 131.47 209.234 130.484 210.874C130.451 210.938 130.409 210.992 130.376 211.056C130.323 211.153 130.269 211.238 130.205 211.335C130.13 211.463 130.055 211.592 129.98 211.721C129.98 211.721 129.98 211.721 129.98 211.731C127.869 215.3 125.929 218.987 124.128 222.727C124.075 222.824 124.032 222.931 123.978 223.027C123.967 223.038 123.967 223.06 123.957 223.081C123.485 224.056 123.024 225.042 122.574 226.028C122.564 226.039 122.553 226.06 122.553 226.071C121.395 228.622 120.281 231.183 119.22 233.777C119.123 234.013 119.198 234.334 119.316 234.538C119.445 234.763 119.659 234.924 119.906 234.988C120.163 235.052 120.441 235.02 120.667 234.891C120.913 234.752 121.02 234.549 121.117 234.302C121.374 233.67 121.642 233.037 121.899 232.405C122.617 230.712 123.357 229.029 124.118 227.357C124.118 227.346 124.128 227.336 124.128 227.336C124.632 226.221 125.157 225.107 125.682 224.003C129.38 216.329 133.613 208.87 138.811 202.107C140.408 200.05 142.101 198.056 143.912 196.17C145.745 194.262 147.695 192.472 149.785 190.854C152.175 189.021 154.747 187.435 157.502 186.203C157.534 186.181 157.577 186.171 157.609 186.149C157.663 186.128 157.705 186.106 157.759 186.085C157.791 186.074 157.813 186.064 157.845 186.053C159.195 185.496 160.578 185.024 161.982 184.67C162.946 184.424 163.932 184.231 164.918 184.092C167.137 183.813 169.366 183.813 171.574 184.092L171.702 184.113C173.781 184.424 175.807 184.97 177.768 185.71C178.068 185.828 178.368 185.946 178.668 186.074C181.551 187.317 184.231 188.979 186.728 190.886C190.897 194.134 194.509 198.035 197.734 202.193C203.157 209.266 207.552 217.09 211.345 225.139C211.388 225.235 211.431 225.332 211.474 225.417C211.517 225.503 211.549 225.578 211.592 225.664C211.603 225.675 211.603 225.685 211.613 225.696C211.678 225.835 211.742 225.985 211.817 226.125C211.828 226.146 211.828 226.157 211.838 226.178C211.838 226.178 211.838 226.178 211.838 226.189C211.849 226.21 211.849 226.221 211.86 226.243C212.214 227.014 212.567 227.797 212.921 228.579C212.932 228.611 212.953 228.643 212.964 228.675C213.039 228.836 213.103 228.997 213.178 229.158C213.628 230.165 214.068 231.183 214.496 232.201C214.518 232.244 214.528 232.287 214.55 232.33V232.319C214.561 232.341 214.561 232.351 214.571 232.362C214.571 232.351 214.561 232.341 214.561 232.33C214.979 233.327 215.397 234.334 215.804 235.342C215.911 235.61 216.029 235.888 216.136 236.156H175.346H121.17C120.634 236.156 120.184 236.606 120.184 237.142C120.184 237.678 120.634 238.128 121.17 238.128H181.562H241.729H290.964C291.5 238.128 291.95 237.678 291.95 237.142C291.95 236.606 291.521 236.178 290.986 236.156ZM178.615 186.042C178.626 186.053 178.647 186.053 178.658 186.064C178.668 186.064 178.668 186.074 178.679 186.074C178.658 186.064 178.636 186.053 178.615 186.042Z" fill="#AD4F4D"/>
<path d="M262.499 178.947C262.52 178.979 262.542 179.001 262.563 179.033C262.553 179.022 262.553 179.012 262.542 179.012C262.531 178.99 262.51 178.969 262.499 178.947Z" fill="#AD4F4D"/>
<path d="M820.323 374.913L820.066 374.055L812.756 347.53L793.251 313.61L774.528 299.131L755.408 298.67L745.72 306.258C740.704 311.07 735.688 315.871 730.673 320.683C729.354 323.738 728.036 326.781 726.718 329.836C726.268 330.875 725.829 331.904 725.378 332.944L726.686 329.879L724.96 332.665L707.598 321.283L690.226 321.873L678.801 328.635L660.464 351.86L652.672 372.576L651.772 375.395H748.324L748.613 373.712L749.342 375.181L820.323 374.913Z" fill="white"/>
<path d="M822.241 374.559C822.231 374.495 822.231 374.442 822.209 374.377C822.123 374.077 822.027 373.777 821.941 373.477C821.877 373.263 821.813 373.059 821.748 372.845C821.652 372.512 821.545 372.169 821.448 371.837C821.437 371.816 821.437 371.805 821.427 371.784C820.655 369.276 819.862 366.789 819.026 364.303C819.026 364.282 819.015 364.271 819.015 364.249C818.865 363.799 818.715 363.338 818.554 362.888C818.458 362.599 818.362 362.32 818.265 362.031C818.233 361.924 818.19 361.827 818.158 361.72C818.126 361.634 818.104 361.559 818.072 361.474C818.072 361.463 818.062 361.452 818.062 361.441C818.019 361.324 817.976 361.195 817.933 361.077C817.911 361.013 817.89 360.959 817.869 360.895V360.884C817.836 360.798 817.815 360.723 817.783 360.638C817.783 360.627 817.772 360.616 817.772 360.595C816.808 357.862 815.8 355.14 814.75 352.439C814.75 352.439 814.75 352.428 814.739 352.417C811.921 345.226 808.77 338.153 805.094 331.358C805.083 331.347 805.072 331.326 805.072 331.315C802.189 326.01 798.974 320.866 795.277 316.086C791.601 311.338 787.431 306.955 782.523 303.461C780.047 301.693 777.379 300.224 774.539 299.12C771.709 298.006 768.708 297.363 765.675 297.202C765.225 297.181 764.786 297.17 764.336 297.17C761.731 297.17 759.127 297.577 756.641 298.285C753.683 299.131 750.864 300.471 748.26 302.089C745.795 303.622 743.501 305.433 741.358 307.383C739.118 309.42 737.06 311.66 735.131 313.985C731.294 318.615 727.983 323.663 725.003 328.882C724.735 329.354 724.896 329.965 725.357 330.233C725.818 330.501 726.439 330.34 726.707 329.879C729.162 325.571 731.852 321.391 734.874 317.458C738.078 313.321 741.669 309.441 745.806 306.205C748.335 304.265 751.057 302.582 753.994 301.307C756.255 300.374 758.602 299.699 761.013 299.356C763.221 299.078 765.44 299.078 767.647 299.346C770.069 299.688 772.427 300.353 774.689 301.285C777.615 302.539 780.326 304.211 782.855 306.14C786.981 309.355 790.561 313.214 793.765 317.329C793.755 317.318 793.744 317.297 793.733 317.286C793.765 317.318 793.787 317.361 793.819 317.393C793.83 317.404 793.83 317.415 793.84 317.426C793.84 317.426 793.84 317.426 793.84 317.415L793.851 317.426C797.474 322.152 800.625 327.221 803.465 332.451C803.486 332.494 803.507 332.537 803.54 332.591C803.55 332.601 803.55 332.612 803.561 332.633C806.219 337.563 808.598 342.643 810.784 347.809C811.417 349.32 812.038 350.831 812.639 352.364C812.639 352.375 812.639 352.375 812.649 352.385C812.671 352.439 812.692 352.493 812.714 352.546C813.689 355.033 814.621 357.53 815.522 360.048C815.522 360.059 815.532 360.08 815.532 360.091C815.704 360.584 815.886 361.077 816.057 361.57C816.165 361.892 816.282 362.213 816.39 362.535C816.647 363.274 816.904 364.024 817.151 364.764C817.161 364.785 817.161 364.807 817.172 364.817C818.008 367.304 818.801 369.801 819.573 372.309L819.583 372.341C819.68 372.641 819.765 372.941 819.851 373.23C819.937 373.498 820.012 373.766 820.098 374.034C820.151 374.206 820.194 374.367 820.248 374.538H767.326H749.503C749.492 374.495 749.492 374.452 749.471 374.409C749.332 374.066 749.192 373.723 749.064 373.38C749.053 373.359 749.042 373.327 749.031 373.305V373.295C748.989 373.177 748.935 373.048 748.881 372.93C748.86 372.877 748.839 372.812 748.817 372.759V372.748C748.817 372.737 748.806 372.727 748.806 372.716C748.796 372.684 748.785 372.652 748.764 372.62C748.753 372.609 748.753 372.598 748.742 372.577C748.71 372.491 748.678 372.405 748.635 372.319C748.624 372.287 748.613 372.266 748.603 372.234C747.542 369.651 746.449 367.1 745.291 364.56C745.28 364.528 745.27 364.496 745.248 364.474C745.152 364.26 745.055 364.056 744.959 363.842C744.83 363.563 744.702 363.285 744.562 363.006C744.498 362.867 744.434 362.728 744.369 362.599C744.359 362.588 744.359 362.577 744.348 362.556C743.93 361.677 743.512 360.798 743.073 359.92C743.073 359.909 743.062 359.909 743.062 359.898C742.987 359.748 742.912 359.598 742.837 359.448C742.826 359.427 742.816 359.405 742.805 359.384C742.73 359.234 742.655 359.084 742.58 358.934C742.569 358.912 742.558 358.901 742.558 358.88L742.322 358.419C742.312 358.408 742.312 358.398 742.301 358.387C742.215 358.226 742.14 358.066 742.055 357.894C740.35 354.55 738.529 351.271 736.557 348.066C734.585 344.873 732.452 341.754 730.126 338.796C730.115 338.774 730.105 338.764 730.083 338.742C729.987 338.614 729.89 338.496 729.783 338.367C729.751 338.335 729.73 338.292 729.697 338.26C729.612 338.153 729.526 338.046 729.44 337.938C729.397 337.885 729.355 337.831 729.312 337.778C729.237 337.692 729.162 337.595 729.097 337.51C729.044 337.445 728.979 337.37 728.926 337.306C728.862 337.231 728.808 337.156 728.744 337.092C728.669 337.006 728.604 336.92 728.529 336.845C728.476 336.792 728.433 336.727 728.379 336.674C728.294 336.577 728.208 336.47 728.122 336.374C728.09 336.331 728.058 336.288 728.015 336.256C727.918 336.138 727.811 336.02 727.715 335.913C727.693 335.891 727.672 335.859 727.651 335.838C727.533 335.709 727.425 335.57 727.308 335.441C727.297 335.431 727.286 335.42 727.286 335.409C726.632 334.659 725.957 333.93 725.271 333.212C721.177 328.925 716.408 325.131 710.942 322.752C710.792 322.688 710.653 322.623 710.503 322.559C710.449 322.538 710.396 322.516 710.353 322.495C709.356 322.077 708.327 321.712 707.288 321.412C707.063 321.348 706.838 321.284 706.613 321.22C705.584 320.941 704.544 320.737 703.494 320.576C703.129 320.523 702.765 320.48 702.39 320.437C702.368 320.437 702.336 320.426 702.315 320.426C702.304 320.426 702.293 320.426 702.272 320.426C702.197 320.416 702.122 320.416 702.058 320.405C701.425 320.341 700.782 320.298 700.15 320.287C699.936 320.287 699.711 320.276 699.496 320.276C697.664 320.276 695.831 320.469 694.03 320.844C693.602 320.93 693.184 321.027 692.755 321.134C691.79 321.37 690.837 321.67 689.904 322.002C687.482 322.881 685.178 324.06 683.002 325.453C681.48 326.417 680.034 327.5 678.64 328.647C678.619 328.657 678.608 328.679 678.587 328.689C678.555 328.711 678.523 328.743 678.49 328.764C677.858 329.29 677.247 329.825 676.636 330.372C673.71 333.019 671.085 335.966 668.663 339.085C668.63 339.117 668.609 339.16 668.577 339.192C668.555 339.225 668.534 339.246 668.513 339.278C667.527 340.564 666.573 341.872 665.651 343.201C665.63 343.233 665.608 343.265 665.576 343.297C665.565 343.308 665.555 343.329 665.544 343.351C665.287 343.715 665.04 344.079 664.794 344.455C663.733 346.03 662.715 347.638 661.729 349.277C661.696 349.342 661.654 349.395 661.621 349.46C661.568 349.556 661.514 349.642 661.45 349.738C661.375 349.867 661.3 349.995 661.225 350.124C661.225 350.124 661.225 350.124 661.225 350.135C659.113 353.704 657.174 357.39 655.373 361.131C655.32 361.227 655.277 361.334 655.223 361.431C655.212 361.441 655.212 361.463 655.202 361.484C654.73 362.46 654.269 363.446 653.819 364.432C653.808 364.442 653.798 364.464 653.798 364.474C652.64 367.025 651.526 369.587 650.465 372.18C650.368 372.416 650.443 372.737 650.561 372.941C650.69 373.166 650.904 373.327 651.151 373.391C651.408 373.456 651.686 373.423 651.911 373.295C652.158 373.155 652.265 372.952 652.362 372.705C652.619 372.073 652.887 371.441 653.144 370.808C653.862 369.115 654.601 367.432 655.362 365.761C655.362 365.75 655.373 365.739 655.373 365.739C655.877 364.625 656.402 363.51 656.927 362.406C660.625 354.732 664.858 347.273 670.056 340.511C671.653 338.453 673.346 336.459 675.157 334.573C676.99 332.666 678.941 330.876 681.03 329.257C683.42 327.425 685.992 325.839 688.747 324.606C688.779 324.585 688.822 324.574 688.854 324.553C688.908 324.531 688.95 324.51 689.004 324.488C689.036 324.478 689.058 324.467 689.09 324.456C690.44 323.899 691.823 323.427 693.227 323.074C694.191 322.827 695.177 322.634 696.163 322.495C698.382 322.216 700.611 322.216 702.819 322.495L702.947 322.516C705.026 322.827 707.052 323.374 709.013 324.113C709.313 324.231 709.613 324.349 709.913 324.478C712.796 325.721 715.476 327.382 717.973 329.29C722.142 332.537 725.754 336.438 728.979 340.596C734.402 347.67 738.796 355.493 742.59 363.542C742.633 363.638 742.676 363.735 742.719 363.821C742.762 363.906 742.794 363.981 742.837 364.067C742.848 364.078 742.848 364.089 742.858 364.099C742.923 364.239 742.987 364.389 743.062 364.528C743.073 364.549 743.073 364.56 743.083 364.582C743.083 364.582 743.083 364.582 743.083 364.592C743.094 364.614 743.094 364.624 743.105 364.646C743.458 365.418 743.812 366.2 744.166 366.982C744.177 367.014 744.198 367.047 744.209 367.079C744.284 367.24 744.348 367.4 744.423 367.561C744.873 368.568 745.313 369.587 745.741 370.605C745.763 370.648 745.773 370.69 745.795 370.733V370.723C745.806 370.744 745.806 370.755 745.816 370.766C745.816 370.755 745.806 370.744 745.806 370.733C746.224 371.73 746.642 372.737 747.049 373.745C747.156 374.013 747.274 374.291 747.381 374.559H706.591H652.415C651.879 374.559 651.429 375.01 651.429 375.545C651.429 376.081 651.879 376.531 652.415 376.531H712.807H772.974H822.209C822.745 376.531 823.195 376.081 823.195 375.545C823.206 375.01 822.766 374.581 822.241 374.559ZM709.87 324.445C709.881 324.456 709.903 324.456 709.913 324.467C709.924 324.467 709.924 324.478 709.935 324.478C709.913 324.467 709.892 324.456 709.87 324.445Z" fill="#AD4F4D"/>
<path d="M793.744 317.351C793.765 317.383 793.787 317.404 793.808 317.436C793.798 317.426 793.798 317.415 793.787 317.415C793.776 317.393 793.765 317.372 793.744 317.351Z" fill="#AD4F4D"/>
</g>
</svg>
