<svg width="978" height="978" viewBox="0 0 978 978" fill="none" xmlns="http://www.w3.org/2000/svg">
<g opacity="0.8">
<path d="M488.759 977.317C758.693 977.317 977.518 758.537 977.518 488.658C977.518 218.78 758.693 0 488.759 0C218.825 0 0 218.78 0 488.658C0 758.537 218.825 977.317 488.759 977.317Z" fill="#FCDEDE"/>
<path d="M98.6508 783.067C126.885 820.412 160.367 853.574 197.997 881.466C205.794 884.559 213.649 887.478 221.596 890.177L282.351 872.096L186.388 549.713L98.6508 783.067Z" fill="#DE4238"/>
<path d="M171.721 860.559C257.071 933.359 367.783 977.317 488.77 977.317C748.367 977.317 960.695 774.971 976.568 519.423L171.721 860.559Z" fill="#EF6059"/>
<path d="M512.104 593.382L496.66 592.733L492.072 701.128L514.479 702.078L518.777 600.656C518.939 596.799 515.962 593.544 512.104 593.382Z" fill="#4B7FD1"/>
<path d="M440.25 535.35L457.721 521.288L516.193 593.938C520.167 598.884 519.391 606.112 514.444 610.085L505.917 616.942L440.25 535.35Z" fill="#4B7FD1"/>
<path d="M546.466 702.784L500.205 722.939L490.867 701.522L518.476 689.499C528.775 685.004 540.778 689.719 545.262 700.028L546.466 702.784Z" fill="#606060"/>
<path d="M394.507 741.051L416.409 745.883L462.206 538.407L440.304 533.574L394.507 741.051Z" fill="#4B7FD1"/>
<path d="M449.878 742.329L403.617 762.484L394.279 741.067L421.887 729.044C432.187 724.549 444.189 729.264 448.673 739.573L449.878 742.329Z" fill="#606060"/>
<path d="M472.238 519.493H438.756V543.539H472.238V519.493Z" fill="#4B7FD1"/>
<path d="M482.047 333.302L468.53 332.018L466.124 357.328L479.641 358.612L482.047 333.302Z" fill="#FFB871"/>
<path d="M455.311 528.4C468.16 529.616 479.56 520.199 480.776 507.354L492.628 382.638C493.845 369.792 484.426 358.394 471.577 357.178C458.729 355.962 447.329 365.379 446.112 378.225L434.26 502.94C433.044 515.775 442.463 527.184 455.311 528.4Z" fill="#76A0F4"/>
<path d="M450.677 475.453L458.66 461.623C458.706 461.554 458.787 461.531 458.868 461.565L518.731 496.118C522.229 498.145 523.434 502.616 521.407 506.126L520.318 508.002C518.29 511.5 513.818 512.705 510.308 510.678L450.92 476.403C450.596 476.206 450.48 475.778 450.677 475.453Z" fill="#FFB871"/>
<path d="M440.656 469.199L448.464 455.681C448.522 455.577 448.65 455.542 448.754 455.6L501.248 485.902C501.352 485.96 501.387 486.087 501.329 486.191L493.127 500.392C493.069 500.497 492.941 500.531 492.837 500.473L441.015 470.566C440.54 470.276 440.378 469.674 440.656 469.199Z" fill="#CACAFC"/>
<path d="M447.989 473.832L442.451 471.805C436.786 469.732 433.866 463.465 435.94 457.801L462.008 386.437C463.606 382.07 468.426 379.835 472.794 381.422C477.162 383.02 479.398 387.839 477.81 392.205L447.989 473.832Z" fill="#CACAFC"/>
<path d="M471.033 315.074L460.954 326.101C460.954 326.101 442.034 303.965 442.255 294.861C442.521 283.649 456.319 260.714 467.059 257.505C478.135 254.204 503.982 260.007 511.988 268.336C513.772 270.201 515.012 276.479 513.459 278.54C511.675 280.915 501.7 280.197 501.7 280.197" fill="black"/>
<path d="M470.616 314.888L460.942 326.101C460.942 326.101 477.88 346.105 485.747 349.29C488.77 350.518 498.803 349.545 498.803 349.545L506.241 323.518L513.865 320.912L507.574 306.363L501.688 280.197C501.688 280.197 482.827 276.594 477.845 281.9C473.338 286.695 474.752 305.877 474.752 305.877C474.752 305.877 467.546 301.823 466.051 303.514C464.024 305.807 470.616 314.888 470.616 314.888Z" fill="#FFB871"/>
<path d="M311.685 254.818L311.407 253.903L303.506 225.235L282.421 188.574L262.181 172.925L241.512 172.427L231.039 180.628C225.617 185.829 220.195 191.018 214.773 196.219C213.348 199.52 211.923 202.81 210.498 206.111C210.011 207.235 209.536 208.347 209.049 209.47L210.463 206.157L208.598 209.169L189.829 196.868L171.049 197.505L158.699 204.814L138.876 229.914L130.453 252.305L129.468 255.351H233.842L234.155 253.533L234.943 255.119L311.685 254.818Z" fill="white"/>
<path d="M313.759 254.436C313.748 254.366 313.748 254.308 313.724 254.239C313.632 253.915 313.528 253.59 313.435 253.266C313.365 253.034 313.296 252.814 313.226 252.583C313.122 252.224 313.006 251.853 312.902 251.494C312.89 251.471 312.89 251.459 312.879 251.436C312.056 248.725 311.187 246.038 310.284 243.351C310.284 243.328 310.272 243.316 310.272 243.293C310.11 242.806 309.948 242.308 309.774 241.822C309.67 241.509 309.565 241.208 309.461 240.895C309.426 240.779 309.38 240.675 309.345 240.559C309.311 240.467 309.287 240.386 309.252 240.293C309.252 240.281 309.241 240.27 309.241 240.258C309.195 240.131 309.148 239.992 309.102 239.864C309.079 239.795 309.056 239.737 309.032 239.667V239.656C308.998 239.563 308.974 239.482 308.94 239.389C308.94 239.378 308.928 239.366 308.928 239.343C307.886 236.389 306.796 233.447 305.661 230.528C305.661 230.528 305.661 230.517 305.649 230.505C302.602 222.733 299.196 215.088 295.222 207.744C295.211 207.733 295.199 207.709 295.199 207.698C292.083 201.964 288.607 196.404 284.61 191.238C280.636 186.107 276.13 181.369 270.823 177.593C268.147 175.682 265.262 174.095 262.192 172.902C259.134 171.697 255.89 171.002 252.611 170.829C252.124 170.806 251.649 170.794 251.163 170.794C248.347 170.794 245.532 171.234 242.844 171.999C239.647 172.914 236.6 174.362 233.784 176.111C231.12 177.767 228.64 179.725 226.323 181.833C223.902 184.033 221.678 186.454 219.592 188.968C215.445 193.972 211.865 199.428 208.644 205.069C208.354 205.578 208.528 206.238 209.026 206.528C209.524 206.818 210.196 206.644 210.486 206.146C213.139 201.489 216.047 196.972 219.314 192.721C222.778 188.25 226.659 184.057 231.131 180.559C233.865 178.462 236.808 176.643 239.983 175.265C242.427 174.257 244.964 173.528 247.571 173.157C249.958 172.856 252.356 172.856 254.743 173.145C257.361 173.516 259.91 174.234 262.354 175.242C265.517 176.597 268.448 178.404 271.182 180.489C275.643 183.964 279.513 188.134 282.977 192.582C282.965 192.57 282.953 192.547 282.942 192.536C282.977 192.57 283 192.617 283.034 192.651C283.046 192.663 283.046 192.675 283.058 192.686C283.058 192.686 283.058 192.686 283.058 192.675L283.069 192.686C286.985 197.794 290.391 203.273 293.461 208.926C293.485 208.972 293.508 209.018 293.543 209.076C293.554 209.088 293.554 209.099 293.566 209.123C296.439 214.451 299.011 219.941 301.374 225.524C302.058 227.158 302.73 228.791 303.379 230.447C303.379 230.459 303.379 230.459 303.39 230.47C303.413 230.528 303.437 230.586 303.46 230.644C304.514 233.331 305.522 236.03 306.495 238.752C306.495 238.764 306.507 238.787 306.507 238.799C306.692 239.331 306.889 239.864 307.074 240.397C307.19 240.745 307.318 241.092 307.434 241.44C307.712 242.239 307.99 243.05 308.256 243.849C308.268 243.872 308.268 243.895 308.279 243.907C309.183 246.594 310.04 249.293 310.874 252.003L310.886 252.038C310.99 252.363 311.083 252.687 311.176 253C311.268 253.289 311.349 253.579 311.442 253.868C311.5 254.054 311.546 254.227 311.604 254.413H254.395H235.128C235.117 254.366 235.117 254.32 235.094 254.274C234.943 253.903 234.792 253.532 234.653 253.162C234.642 253.139 234.63 253.104 234.619 253.081V253.069C234.572 252.942 234.514 252.803 234.456 252.675C234.433 252.617 234.41 252.548 234.387 252.49V252.478C234.387 252.467 234.375 252.455 234.375 252.444C234.364 252.409 234.352 252.374 234.341 252.339C234.329 252.328 234.329 252.316 234.317 252.293C234.283 252.2 234.248 252.108 234.202 252.015C234.19 251.98 234.178 251.957 234.167 251.922C233.02 249.131 231.838 246.374 230.587 243.629C230.575 243.594 230.564 243.559 230.541 243.536C230.436 243.304 230.332 243.084 230.228 242.853C230.089 242.552 229.95 242.25 229.799 241.949C229.73 241.799 229.66 241.648 229.59 241.509C229.579 241.498 229.579 241.486 229.567 241.463C229.115 240.513 228.664 239.563 228.189 238.613C228.189 238.602 228.177 238.602 228.177 238.59C228.096 238.428 228.015 238.266 227.934 238.104C227.922 238.08 227.911 238.057 227.899 238.034C227.818 237.872 227.737 237.71 227.656 237.548C227.644 237.524 227.633 237.513 227.633 237.49L227.378 236.992C227.366 236.98 227.366 236.969 227.354 236.957C227.262 236.783 227.181 236.609 227.088 236.424C225.246 232.81 223.276 229.266 221.145 225.802C219.013 222.351 216.707 218.98 214.193 215.783C214.182 215.76 214.17 215.748 214.147 215.725C214.043 215.586 213.938 215.459 213.823 215.32C213.788 215.285 213.765 215.239 213.73 215.204C213.637 215.088 213.545 214.972 213.452 214.856C213.406 214.798 213.359 214.74 213.313 214.683C213.232 214.59 213.151 214.486 213.081 214.393C213.023 214.323 212.954 214.242 212.896 214.173C212.826 214.092 212.768 214.011 212.699 213.941C212.618 213.849 212.548 213.756 212.467 213.675C212.409 213.617 212.363 213.547 212.305 213.489C212.212 213.385 212.119 213.269 212.027 213.165C211.992 213.119 211.957 213.072 211.911 213.038C211.807 212.91 211.691 212.783 211.587 212.667C211.563 212.644 211.54 212.609 211.517 212.586C211.39 212.447 211.274 212.296 211.146 212.157C211.135 212.146 211.123 212.134 211.123 212.123C210.416 211.312 209.687 210.524 208.945 209.748C204.519 205.115 199.364 201.014 193.455 198.443C193.293 198.373 193.142 198.304 192.98 198.234C192.922 198.211 192.864 198.188 192.818 198.165C191.741 197.713 190.628 197.319 189.505 196.995C189.261 196.926 189.018 196.856 188.775 196.787C187.662 196.485 186.539 196.265 185.403 196.092C185.009 196.034 184.615 195.987 184.21 195.941C184.187 195.941 184.152 195.929 184.129 195.929C184.117 195.929 184.106 195.929 184.083 195.929C184.001 195.918 183.92 195.918 183.851 195.906C183.167 195.837 182.472 195.79 181.789 195.779C181.557 195.779 181.314 195.767 181.082 195.767C179.101 195.767 177.12 195.976 175.173 196.381C174.71 196.474 174.258 196.578 173.795 196.694C172.752 196.949 171.721 197.273 170.713 197.632C168.095 198.582 165.604 199.856 163.252 201.362C161.607 202.404 160.043 203.574 158.536 204.814C158.513 204.825 158.502 204.848 158.479 204.86C158.444 204.883 158.409 204.918 158.374 204.941C157.691 205.509 157.03 206.088 156.37 206.679C153.207 209.54 150.369 212.725 147.75 216.096C147.716 216.13 147.692 216.177 147.658 216.212C147.634 216.246 147.611 216.269 147.588 216.304C146.522 217.694 145.491 219.107 144.495 220.544C144.472 220.578 144.448 220.613 144.414 220.648C144.402 220.659 144.391 220.683 144.379 220.706C144.101 221.1 143.834 221.493 143.568 221.899C142.421 223.602 141.32 225.339 140.254 227.111C140.22 227.181 140.173 227.239 140.139 227.308C140.081 227.412 140.023 227.505 139.953 227.609C139.872 227.748 139.791 227.887 139.71 228.026C139.71 228.026 139.71 228.026 139.71 228.038C137.428 231.895 135.331 235.88 133.384 239.922C133.326 240.026 133.28 240.142 133.222 240.247C133.211 240.258 133.21 240.281 133.199 240.304C132.689 241.359 132.191 242.424 131.704 243.49C131.693 243.501 131.681 243.525 131.681 243.536C130.43 246.293 129.225 249.061 128.078 251.864C127.974 252.119 128.055 252.467 128.182 252.687C128.321 252.93 128.553 253.104 128.82 253.173C129.098 253.243 129.399 253.208 129.642 253.069C129.909 252.918 130.024 252.698 130.129 252.432C130.407 251.749 130.696 251.065 130.974 250.382C131.751 248.552 132.55 246.733 133.373 244.926C133.373 244.915 133.384 244.903 133.384 244.903C133.929 243.698 134.496 242.494 135.064 241.301C139.061 233.007 143.637 224.945 149.256 217.636C150.983 215.412 152.813 213.258 154.771 211.219C156.752 209.157 158.861 207.223 161.12 205.474C163.704 203.493 166.484 201.779 169.462 200.447C169.496 200.424 169.543 200.412 169.577 200.389C169.635 200.366 169.682 200.343 169.74 200.319C169.774 200.308 169.798 200.296 169.832 200.285C171.292 199.682 172.787 199.173 174.304 198.79C175.347 198.524 176.413 198.316 177.479 198.165C179.877 197.864 182.287 197.864 184.673 198.165L184.812 198.188C187.06 198.524 189.25 199.115 191.37 199.914C191.694 200.041 192.019 200.169 192.343 200.308C195.459 201.651 198.356 203.447 201.055 205.509C205.562 209.018 209.466 213.235 212.954 217.729C218.816 225.374 223.566 233.829 227.667 242.528C227.714 242.633 227.76 242.737 227.806 242.83C227.853 242.922 227.887 243.003 227.934 243.096C227.945 243.108 227.945 243.119 227.957 243.131C228.026 243.281 228.096 243.443 228.177 243.594C228.189 243.617 228.189 243.629 228.2 243.652C228.2 243.652 228.2 243.652 228.2 243.664C228.212 243.687 228.212 243.698 228.223 243.721C228.606 244.555 228.988 245.401 229.37 246.247C229.382 246.281 229.405 246.316 229.417 246.351C229.498 246.525 229.567 246.698 229.648 246.872C230.135 247.961 230.61 249.061 231.073 250.162C231.097 250.208 231.108 250.254 231.131 250.301V250.289C231.143 250.312 231.143 250.324 231.155 250.335C231.155 250.324 231.143 250.312 231.143 250.301C231.595 251.378 232.047 252.467 232.487 253.556C232.603 253.845 232.73 254.146 232.846 254.436H188.752H130.187C129.607 254.436 129.121 254.922 129.121 255.502C129.121 256.081 129.607 256.567 130.187 256.567H195.471H260.512H313.736C314.315 256.567 314.802 256.081 314.802 255.502C314.802 254.922 314.339 254.459 313.759 254.436ZM192.285 200.273C192.297 200.285 192.32 200.285 192.331 200.296C192.343 200.296 192.343 200.308 192.355 200.308C192.331 200.296 192.308 200.285 192.285 200.273Z" fill="#AD4F4D"/>
<path d="M282.965 192.605C282.988 192.64 283.011 192.663 283.034 192.697C283.023 192.686 283.023 192.674 283.011 192.674C283 192.651 282.977 192.628 282.965 192.605Z" fill="#AD4F4D"/>
<path d="M885.98 404.403L885.702 403.476L877.801 374.808L856.715 338.147L836.475 322.499L815.807 322L805.333 330.201C799.911 335.402 794.489 340.591 789.067 345.792C787.642 349.093 786.217 352.383 784.792 355.684C784.306 356.808 783.831 357.92 783.344 359.043L784.757 355.731L782.892 358.742L764.124 346.441L745.344 347.078L732.993 354.387L713.171 379.488L704.748 401.878L703.775 404.924H808.149L808.461 403.106L809.249 404.693L885.98 404.403Z" fill="white"/>
<path d="M888.054 404.021C888.043 403.951 888.043 403.893 888.019 403.824C887.927 403.5 887.823 403.175 887.73 402.851C887.66 402.619 887.591 402.399 887.521 402.168C887.417 401.808 887.301 401.438 887.197 401.079C887.185 401.056 887.185 401.044 887.174 401.021C886.34 398.31 885.482 395.623 884.579 392.936C884.579 392.913 884.567 392.901 884.567 392.878C884.405 392.391 884.243 391.893 884.069 391.407C883.964 391.094 883.86 390.793 883.756 390.48C883.721 390.364 883.675 390.26 883.64 390.144C883.605 390.052 883.582 389.97 883.547 389.878C883.547 389.866 883.536 389.855 883.536 389.843C883.49 389.716 883.443 389.577 883.397 389.449C883.374 389.38 883.35 389.322 883.327 389.252V389.241C883.293 389.148 883.269 389.067 883.235 388.974C883.235 388.963 883.223 388.951 883.223 388.928C882.18 385.974 881.091 383.032 879.956 380.113C879.956 380.113 879.956 380.102 879.944 380.09C876.897 372.318 873.491 364.673 869.517 357.329C869.506 357.318 869.494 357.294 869.494 357.283C866.378 351.549 862.902 345.989 858.905 340.823C854.931 335.692 850.424 330.954 845.118 327.178C842.442 325.267 839.557 323.68 836.487 322.487C833.428 321.282 830.184 320.587 826.906 320.414C826.419 320.39 825.944 320.379 825.458 320.379C822.642 320.379 819.827 320.819 817.139 321.584C813.941 322.499 810.895 323.947 808.079 325.696C805.415 327.352 802.935 329.31 800.618 331.418C798.197 333.618 795.972 336.039 793.887 338.553C789.739 343.557 786.159 349.012 782.939 354.653C782.649 355.163 782.823 355.823 783.321 356.113C783.819 356.403 784.491 356.229 784.781 355.731C787.434 351.074 790.342 346.557 793.609 342.306C797.073 337.835 800.954 333.642 805.426 330.143C808.16 328.047 811.103 326.228 814.277 324.85C816.722 323.842 819.259 323.113 821.866 322.742C824.253 322.441 826.651 322.441 829.037 322.73C831.656 323.101 834.205 323.819 836.649 324.827C839.812 326.182 842.743 327.989 845.477 330.074C849.938 333.549 853.807 337.719 857.271 342.167C857.26 342.155 857.248 342.132 857.237 342.12C857.271 342.155 857.295 342.202 857.329 342.236C857.341 342.248 857.341 342.259 857.353 342.271C857.353 342.271 857.353 342.271 857.353 342.259L857.364 342.271C861.28 347.379 864.686 352.858 867.756 358.511C867.78 358.557 867.803 358.603 867.837 358.661C867.849 358.673 867.849 358.684 867.861 358.708C870.734 364.036 873.306 369.526 875.669 375.109C876.353 376.743 877.025 378.376 877.674 380.032C877.674 380.044 877.674 380.044 877.685 380.055C877.708 380.113 877.732 380.171 877.755 380.229C878.809 382.916 879.817 385.615 880.79 388.337C880.79 388.349 880.802 388.372 880.802 388.384C880.987 388.916 881.184 389.449 881.369 389.982C881.485 390.33 881.613 390.677 881.728 391.025C882.007 391.824 882.285 392.635 882.551 393.434C882.563 393.457 882.563 393.48 882.574 393.492C883.478 396.179 884.335 398.878 885.169 401.588L885.181 401.623C885.285 401.947 885.378 402.272 885.471 402.585C885.563 402.874 885.644 403.164 885.737 403.453C885.795 403.639 885.841 403.812 885.899 403.998H828.69H809.423C809.412 403.951 809.412 403.905 809.388 403.859C809.238 403.488 809.087 403.117 808.948 402.747C808.937 402.724 808.925 402.689 808.913 402.666V402.654C808.867 402.527 808.809 402.388 808.751 402.26C808.728 402.202 808.705 402.133 808.682 402.075V402.063C808.682 402.052 808.67 402.04 808.67 402.029C808.659 401.994 808.647 401.959 808.624 401.924C808.612 401.913 808.612 401.901 808.601 401.878C808.566 401.785 808.531 401.693 808.485 401.6C808.473 401.565 808.462 401.542 808.45 401.507C807.303 398.716 806.121 395.959 804.87 393.214C804.858 393.179 804.847 393.144 804.824 393.121C804.719 392.889 804.615 392.669 804.511 392.438C804.372 392.137 804.233 391.835 804.082 391.534C804.013 391.384 803.943 391.233 803.874 391.094C803.862 391.082 803.862 391.071 803.85 391.048C803.399 390.098 802.947 389.148 802.472 388.198C802.472 388.187 802.46 388.187 802.46 388.175C802.379 388.013 802.298 387.851 802.217 387.689C802.205 387.665 802.194 387.642 802.182 387.619C802.101 387.457 802.02 387.295 801.939 387.133C801.927 387.109 801.916 387.098 801.916 387.075L801.661 386.577C801.649 386.565 801.649 386.553 801.638 386.542C801.545 386.368 801.464 386.194 801.371 386.009C799.529 382.395 797.56 378.851 795.428 375.387C793.296 371.936 790.991 368.565 788.476 365.368C788.465 365.345 788.453 365.333 788.43 365.31C788.326 365.171 788.222 365.044 788.106 364.905C788.071 364.87 788.048 364.823 788.013 364.789C787.92 364.673 787.828 364.557 787.735 364.441C787.689 364.383 787.642 364.325 787.596 364.267C787.515 364.175 787.434 364.071 787.364 363.978C787.306 363.908 787.237 363.827 787.179 363.758C787.109 363.677 787.051 363.596 786.982 363.526C786.901 363.433 786.831 363.341 786.75 363.26C786.692 363.202 786.646 363.132 786.588 363.074C786.495 362.97 786.403 362.854 786.31 362.75C786.275 362.704 786.24 362.657 786.194 362.623C786.09 362.495 785.974 362.368 785.87 362.252C785.847 362.229 785.823 362.194 785.8 362.171C785.673 362.032 785.557 361.881 785.429 361.742C785.418 361.731 785.406 361.719 785.406 361.708C784.7 360.897 783.97 360.109 783.228 359.333C778.803 354.7 773.647 350.599 767.738 348.028C767.576 347.958 767.426 347.889 767.263 347.819C767.205 347.796 767.148 347.773 767.101 347.75C766.024 347.298 764.912 346.904 763.788 346.58C763.544 346.51 763.301 346.441 763.058 346.372C761.946 346.07 760.822 345.85 759.686 345.677C759.293 345.619 758.899 345.572 758.493 345.526C758.47 345.526 758.435 345.514 758.412 345.514C758.4 345.514 758.389 345.514 758.366 345.514C758.285 345.503 758.204 345.503 758.134 345.491C757.45 345.422 756.755 345.375 756.072 345.364C755.84 345.364 755.597 345.352 755.365 345.352C753.384 345.352 751.403 345.561 749.456 345.966C748.993 346.059 748.541 346.163 748.078 346.279C747.035 346.534 746.004 346.858 744.996 347.217C742.378 348.167 739.887 349.441 737.535 350.947C735.89 351.989 734.326 353.159 732.819 354.399C732.796 354.41 732.785 354.433 732.762 354.445C732.727 354.468 732.692 354.503 732.657 354.526C731.974 355.094 731.313 355.673 730.653 356.264C727.49 359.125 724.652 362.31 722.033 365.681C721.999 365.715 721.976 365.762 721.941 365.796C721.918 365.831 721.894 365.854 721.871 365.889C720.805 367.279 719.774 368.692 718.778 370.129C718.755 370.163 718.732 370.198 718.697 370.233C718.685 370.244 718.674 370.268 718.662 370.291C718.384 370.685 718.118 371.078 717.851 371.484C716.704 373.186 715.603 374.924 714.538 376.696C714.503 376.766 714.457 376.824 714.422 376.893C714.364 376.997 714.306 377.09 714.236 377.194C714.155 377.333 714.074 377.472 713.993 377.611C713.993 377.611 713.993 377.611 713.993 377.623C711.711 381.48 709.614 385.465 707.667 389.507C707.609 389.611 707.563 389.727 707.505 389.831C707.494 389.843 707.493 389.866 707.482 389.889C706.972 390.943 706.474 392.009 705.987 393.075C705.976 393.086 705.964 393.11 705.964 393.121C704.713 395.878 703.508 398.646 702.361 401.449C702.257 401.704 702.338 402.052 702.465 402.272C702.604 402.515 702.836 402.689 703.103 402.758C703.381 402.828 703.682 402.793 703.925 402.654C704.192 402.503 704.308 402.283 704.412 402.017C704.69 401.334 704.98 400.65 705.258 399.967C706.034 398.137 706.833 396.318 707.656 394.511C707.656 394.499 707.667 394.488 707.667 394.488C708.212 393.283 708.78 392.079 709.347 390.886C713.344 382.592 717.921 374.53 723.54 367.221C725.266 364.997 727.096 362.843 729.054 360.804C731.035 358.742 733.144 356.808 735.403 355.059C737.987 353.078 740.767 351.364 743.745 350.032C743.779 350.009 743.826 349.997 743.861 349.974C743.918 349.951 743.965 349.928 744.023 349.904C744.058 349.893 744.081 349.881 744.115 349.87C745.575 349.267 747.07 348.758 748.588 348.375C749.63 348.109 750.696 347.9 751.762 347.75C754.16 347.449 756.57 347.449 758.957 347.75L759.096 347.773C761.343 348.109 763.533 348.7 765.653 349.499C765.977 349.626 766.302 349.754 766.626 349.893C769.743 351.236 772.639 353.032 775.338 355.094C779.845 358.603 783.75 362.82 787.237 367.314C793.099 374.959 797.849 383.414 801.95 392.113C801.997 392.218 802.043 392.322 802.089 392.415C802.136 392.507 802.171 392.588 802.217 392.681C802.228 392.693 802.229 392.704 802.24 392.716C802.31 392.866 802.379 393.028 802.46 393.179C802.472 393.202 802.472 393.214 802.483 393.237C802.483 393.237 802.483 393.237 802.483 393.249C802.495 393.272 802.495 393.283 802.507 393.306C802.889 394.14 803.271 394.986 803.653 395.832C803.665 395.866 803.688 395.901 803.7 395.936C803.781 396.11 803.85 396.283 803.932 396.457C804.418 397.546 804.893 398.646 805.357 399.747C805.38 399.793 805.391 399.839 805.415 399.886V399.874C805.426 399.897 805.426 399.909 805.438 399.92C805.438 399.909 805.426 399.897 805.426 399.886C805.878 400.963 806.33 402.052 806.77 403.141C806.886 403.43 807.013 403.731 807.129 404.021H763.035H704.47C703.89 404.021 703.404 404.507 703.404 405.087C703.404 405.666 703.89 406.152 704.47 406.152H769.754H834.795H888.019C888.599 406.152 889.085 405.666 889.085 405.087C889.097 404.507 888.622 404.044 888.054 404.021ZM766.58 349.858C766.591 349.87 766.615 349.87 766.626 349.881C766.638 349.881 766.638 349.893 766.649 349.893C766.626 349.881 766.603 349.87 766.58 349.858Z" fill="#AD4F4D"/>
<path d="M857.248 342.19C857.271 342.225 857.294 342.248 857.317 342.282C857.306 342.271 857.306 342.259 857.294 342.259C857.283 342.236 857.271 342.213 857.248 342.19Z" fill="#AD4F4D"/>
</g>
</svg>
