<?xml version="1.0" encoding="utf-8"?>
<!-- Generator: Adobe Illustrator 24.0.3, SVG Export Plug-In . SVG Version: 6.00 Build 0)  -->
<svg version="1.1" id="Layer_1" xmlns="http://www.w3.org/2000/svg" xmlns:xlink="http://www.w3.org/1999/xlink" x="0px" y="0px"
	 viewBox="0 0 904.3 904.3" style="enable-background:new 0 0 904.3 904.3;" xml:space="preserve">
<style type="text/css">
	.st0{opacity:0.8;}
	.st1{fill:#FCDEDE;}
	.st2{clip-path:url(#SVGID_2_);fill:#CC332F;}
	.st3{clip-path:url(#SVGID_4_);fill:#DE4238;}
	.st4{clip-path:url(#SVGID_6_);fill:#DE4238;}
	.st5{fill:#EF6059;}
	.st6{fill:#C4925C;}
	.st7{fill:#4B7FD1;}
	.st8{fill:#AD561C;}
	.st9{fill:#FFC783;}
	.st10{fill:#CACAFC;}
	.st11{fill:#874E03;}
	.st12{fill:#FFB871;}
	.st13{fill:#C19667;}
	.st14{fill:#F7F7F7;}
	.st15{fill:#FFFFFF;}
</style>
<g class="st0">
	<path class="st1" d="M452.1,904.3c249.7,0,452.1-202.4,452.1-452.1S701.8,0,452.1,0S0,202.4,0,452.1S202.4,904.3,452.1,904.3z"/>
	<g>
		<g>
			<g>
				<defs>
					<path id="SVGID_1_" d="M452.1,904.3c249.7,0,452.1-202.4,452.1-452.1S701.8,0,452.1,0S0,202.4,0,452.1S202.4,904.3,452.1,904.3
						z"/>
				</defs>
				<clipPath id="SVGID_2_">
					<use xlink:href="#SVGID_1_"  style="overflow:visible;"/>
				</clipPath>
				<path class="st2" d="M0,683.9c47.4,34.6,112.8,92.3,175.9,118.1c13.1,2.9,26.3,5.6,39.6,8.1l101.9-16.7l-161-298.2L0,683.9z"/>
			</g>
		</g>
		<g>
			<g>
				<defs>
					<path id="SVGID_3_" d="M452.1,904.3c249.7,0,452.1-202.4,452.1-452.1S701.8,0,452.1,0S0,202.4,0,452.1S202.4,904.3,452.1,904.3
						z"/>
				</defs>
				<clipPath id="SVGID_4_">
					<use xlink:href="#SVGID_3_"  style="overflow:visible;"/>
				</clipPath>
				<path class="st3" d="M9.3,711.1c47.4,34.6,103.5,65.2,166.6,91c13.1,2.9,26.3,5.6,39.6,8.1l101.9-16.7l-161-298.2L9.3,711.1z"/>
			</g>
		</g>
		<g>
			<g>
				<defs>
					<path id="SVGID_5_" d="M452.1,904.3c249.7,0,452.1-202.4,452.1-452.1S701.8,0,452.1,0S0,202.4,0,452.1S202.4,904.3,452.1,904.3
						z"/>
				</defs>
				<clipPath id="SVGID_6_">
					<use xlink:href="#SVGID_5_"  style="overflow:visible;"/>
				</clipPath>
				<path id="climb_1_" class="st4" d="M158.9,809.3c81.7,69.9,185.8,108.2,293.3,108c240.1,0,436.6-187.2,451.2-423.7L158.9,809.3z
					"/>
			</g>
		</g>
	</g>
	<path id="climb" class="st5" d="M158.9,796.2c81.7,69.9,185.8,108.2,293.3,108c240.1,0,436.6-187.2,451.2-423.7L158.9,796.2z"/>
</g>
<g id="Perso">
	<path class="st6" d="M452.3,404.7l23.2-1.5c2.6-0.2,4.5,2.8,3.9,6.2l-13.5,74l-29-6.2c-2.6-0.6-4.3-3.2-3.7-5.8l14.8-62.2
		C448.6,406.7,450.4,404.9,452.3,404.7z"/>
	<g>
		<path class="st7" d="M508.8,560.1l-3.3-0.1c-4.8-0.2-8.9,3.5-9.1,8.4l-2.8,67.1c-0.2,4.8,3.5,8.9,8.4,9.1l0,0
			c4.8,0.2,8.9-3.5,9.1-8.4l3-70.4C514.2,562.8,511.9,560.3,508.8,560.1L508.8,560.1z"/>
		<path class="st7" d="M459.5,509.5l0.3-0.2c3.7-3,9.1-2.4,12,1.3l40.3,50c3.1,3.9,2.5,9.5-1.3,12.6l0,0c-3.7,2.9-9.1,2.3-12-1.3
			l-40.5-50.3C455.2,517.8,455.8,512.4,459.5,509.5z"/>
		<path class="st7" d="M423.1,674.8l4.9,1.1c3.4,0.7,6.7-1.4,7.5-4.7l33.1-147.8c0.7-3.3-1.4-6.6-4.8-7.4l-4.9-1.1
			c-3.4-0.7-6.7,1.4-7.5,4.7l-33.1,147.8C417.6,670.7,419.8,674,423.1,674.8z"/>
		<path id="pants" class="st7" d="M477.8,502.5h-26.1v18.7h26.1V502.5z"/>
	</g>
	<g id="shoes">
		<path class="st8" d="M525.3,641.6l-24.2,9.9c-0.9,0.4-1.9-0.1-2.3-0.9l-3.8-9.5c-0.4-0.9,0.1-1.9,0.9-2.2l14.7-6
			c6.1-2.5,13,0.4,15.6,6.5l0,0l0,0C526.6,640.2,526.2,641.3,525.3,641.6z"/>
		<path class="st8" d="M452.1,672.7L425,683.9c-0.9,0.4-2-0.1-2.4-1.1l-4.1-11.3c-0.4-1,0.1-2.1,1-2.5l16.5-6.8
			c6.8-2.8,14.4,0.7,17.1,8l0,0C453.5,671.2,453,672.3,452.1,672.7z"/>
	</g>
	<g id="harm_x2B_hand_1_">
		<path class="st9" d="M530.4,464.9l-3.8-11.5c-0.1-0.1,0-0.1,0-0.2l0,0l49.8-16.4c2.9-0.9,6,0.6,7,3.5l0.5,1.5c0.9,2.9-0.6,6-3.5,7
			L531.1,465C530.8,465.3,530.6,465.2,530.4,464.9L530.4,464.9z"/>
		<path class="st10" d="M521.8,467.4l-3.7-11.2c0-0.1,0-0.2,0.1-0.2l43.6-14.4c0.1,0,0.2,0,0.2,0.1l3.9,11.8c0,0.1,0,0.2-0.1,0.2
			l-43,14.1C522.4,468,522,467.8,521.8,467.4L521.8,467.4z"/>
		<path class="st10" d="M528.1,465.6l-3.9,2.1c-4,2.1-9,0.6-11.2-3.4l0,0l-27.1-50.7c-1.6-3.2-0.2-7,2.9-8.5c3-1.5,6.6-0.4,8.3,2.5
			L528.1,465.6z"/>
	</g>
	<g id="head">
		<path class="st11" d="M483.9,367.2l-7.4,9.1c0,0-15.9-16.5-16.1-23.6c-0.4-8.8,9.4-27.4,17.7-30.5c8.5-3.1,29,0.2,35.7,6.3
			c1.4,1.4,2.8,6.2,1.7,7.9c-1.2,1.9-9.1,1.8-9.1,1.8"/>
		<path class="st9" d="M483.7,367.1l-7.1,9.3c0,0,14.2,14.9,20.5,17c2.4,0.8,10.3-0.4,10.3-0.4l4.6-20.7l5.8-2.4l-5.6-11.1
			l-5.8-20.2c0,0-15-1.9-18.6,2.5c-3.3,3.9-1.3,18.9-1.3,18.9s-5.9-2.9-6.9-1.5C478,360.3,483.7,367.1,483.7,367.1z"/>
		<path class="st9" d="M493.5,381.3l-10.7-0.7l-0.2,27.1l10.7,0.7L493.5,381.3z"/>
	</g>
	<polygon class="st10" points="468.1,405.9 482.7,396.4 497.1,424.7 477.8,502.5 451.6,502.5 	"/>
	<g id="harm_x2B_hand">
		<path class="st12" d="M429.9,462.1l10.1-6.6c0-0.1,0.1,0,0.2,0l0,0l28.6,43.9c1.6,2.6,0.9,6-1.6,7.7l-1.4,0.9
			c-2.6,1.6-6,0.9-7.7-1.6l-28.3-43.5C429.5,462.6,429.6,462.3,429.9,462.1L429.9,462.1z"/>
		<path class="st10" d="M425.2,454.4l9.9-6.5c0.1,0,0.2,0,0.3,0l25.1,38.5c0,0.1,0,0.2,0,0.3l-10.4,6.8c-0.1,0-0.2,0-0.3,0l-24.7-38
			C424.8,455.1,424.9,454.7,425.2,454.4L425.2,454.4z"/>
		<path class="st10" d="M428.6,460.1l-3-3.3c-3.1-3.3-2.9-8.5,0.4-11.7l0,0l42.1-39.2c2.7-2.3,6.7-2,9,0.6c2.2,2.5,2,6.3-0.3,8.7
			L428.6,460.1z"/>
	</g>
	<path class="st13" d="M497.1,407.5c2.3,6.3,3.1,13.5,0.1,20.7c-0.1,0.2-0.2,0.3-0.2,0.5l-1.5,2.8c2-7,2.8-16.4,0.2-25.5
		L497.1,407.5z"/>
	<path class="st13" d="M468.1,405.6c1.2,5.9-1.5,13-3.5,20.7l-2,11.8c1.5-6.8,9.6-24.4,7.8-33.8L468.1,405.6z"/>
</g>
<g id="clouds-2">
	<path class="st14" d="M683.6,303.2c-23.1,0-46.5,33-57.1,62.9c-1.7,4.7,0.8,9.9,5.6,11.6c1,0.3,2,0.5,3,0.5h100.6
		c5,0,9.1-4.1,9.1-9.1c0-1.2-0.2-2.4-0.7-3.5C731,333.9,706.5,303.2,683.6,303.2z"/>
	<path class="st15" d="M814.8,317c-18.5,0-37.2,26-46.1,50c-1.6,4.3,0.6,9.1,4.9,10.7c0.9,0.3,1.9,0.5,2.9,0.5h79.4
		c4.6,0,8.4-3.7,8.4-8.3c0-1.1-0.2-2.2-0.7-3.3C852.8,341.2,833.2,317,814.8,317z"/>
	<path class="st15" d="M824.5,378.2c-15-49.8-30.2-87.3-66.3-87.3c-36.6,0-73.7,42.2-85.2,87.3H824.5z"/>
</g>
<g id="snoq">
	<path class="st15" d="M84.7,600.5c0,0-5.6,23.3,0,27c9.9,6.5,34.3-14.9,45.3-13.8c16.1,1.6,41.7,34.8,53.2,35.9
		c20.4,2,19-69.7,19-69.7l-45.8-84.7l-59.2,71.5L84.7,600.5"/>
	<polygon class="st14" points="84.7,600.5 156.4,495.2 96.7,567.3 	"/>
</g>
<g id="clouds">
	<path class="st14" d="M169.2,153.6c-25.8,0-51.9,36.9-63.8,70.2c-1.9,5.3,0.9,11.1,6.2,13c1.1,0.4,2.2,0.6,3.4,0.6h112.4
		c5.6,0,10.2-4.6,10.2-10.2c0-1.3-0.3-2.6-0.7-3.8C222.1,187.9,194.8,153.6,169.2,153.6z"/>
	<path class="st15" d="M315.8,169c-20.7,0-41.6,29-51.5,55.8c-1.8,4.8,0.7,10.2,5.5,12c1,0.4,2.1,0.6,3.3,0.6h88.7
		c5.2,0,9.3-4.2,9.4-9.3c0-1.3-0.3-2.5-0.8-3.7C358.2,196.1,336.3,169,315.8,169z"/>
	<path class="st15" d="M326.6,237.4c-16.8-55.6-33.6-97.5-74.1-97.5c-40.9,0-82.3,47.1-95.2,97.5H326.6z"/>
</g>
</svg>
