<svg xmlns="http://www.w3.org/2000/svg" viewBox="0 0 1440 945.67"><defs><style>.cls-1{fill:#fcdede;opacity:0.8;isolation:isolate;}.cls-2{fill:#bf6d6d;}.cls-3{fill:#ad4f4d;}.cls-4{fill:#ef7373;}.cls-5{fill:#ef6059;}.cls-6{fill:#f7f7f7;}.cls-7{fill:#fff;}</style></defs><title>finalSH_1</title><g id="Layer_2" data-name="Layer 2"><g id="Layer_1-2" data-name="Layer 1"><g id="Layer_2-2" data-name="Layer 2"><g id="Layer_1-2-2" data-name="Layer 1-2"><path class="cls-1" d="M1440,0H0V945.27H1440Z"/><path class="cls-2" d="M856,837.37c5.7.2,17.3,1.3,22.6,1.5L463.7,422.17H19.9l-8.5,516.3H607.7C607.8,938.47,625.7,828.17,856,837.37Z"/><path class="cls-3" d="M836.6,833c5.7.2,11.2.4,16.6.5L443.7,422.27H0v523.4H573.1S606.3,823.67,836.6,833Z"/><g id="red_mountain" data-name="red mountain"><path class="cls-4" d="M1311.1,631.57c-149.1,235.1-142.1,60.2-219.3,93-100.9,42.8-24.9,117.6-255.2,108.4s-263.5,112.7-263.5,112.7H1440V577S1372.3,535,1311.1,631.57Z"/><path class="cls-5" d="M1311.1,661.27c-149.1,235.1-142.1,60.2-219.3,93-100.9,42.8-24.9,117.7-255.2,108.4-155.9-6.3-221.5,47.6-247.6,83h851v-339C1440,606.57,1372.3,564.67,1311.1,661.27Z"/></g><g id="Cloud"><path class="cls-6" d="M1053.1,492.57c-25.8,0-51.9,36.9-63.8,70.2a10.18,10.18,0,0,0,6.2,13,9.74,9.74,0,0,0,3.4.6h112.4a10.24,10.24,0,0,0,10.2-10.2,12.17,12.17,0,0,0-.7-3.8C1106,526.87,1078.6,492.57,1053.1,492.57Z"/><path class="cls-7" d="M1199.6,508c-20.7,0-41.6,29-51.5,55.8a9.37,9.37,0,0,0,5.5,12,8.81,8.81,0,0,0,3.3.6h88.7a9.24,9.24,0,0,0,8.6-13C1242,535,1220.1,508,1199.6,508Z"/><path class="cls-7" d="M1210.5,576.37c-16.8-55.6-33.7-97.5-74.1-97.5-40.9,0-82.3,47.1-95.2,97.5Z"/></g><g id="Cloud-2" data-name="Cloud"><path class="cls-6" d="M809.85,229.41c-25.8,0-51.9,36.9-63.8,70.2a10.18,10.18,0,0,0,6.2,13,9.74,9.74,0,0,0,3.4.6h112.4a10.24,10.24,0,0,0,10.2-10.2,12.17,12.17,0,0,0-.7-3.8C862.75,263.71,835.35,229.41,809.85,229.41Z"/><path class="cls-7" d="M956.35,244.81c-20.7,0-41.6,29-51.5,55.8a9.37,9.37,0,0,0,5.5,12,8.81,8.81,0,0,0,3.3.6h88.7a9.24,9.24,0,0,0,8.6-13C998.75,271.81,976.85,244.81,956.35,244.81Z"/><path class="cls-7" d="M967.25,313.21c-16.8-55.6-33.7-97.5-74.1-97.5-40.9,0-82.3,47.1-95.2,97.5Z"/></g></g></g><polygon class="cls-2" points="19.84 422.27 0 0 463.55 422.27 19.84 422.27"/><polygon class="cls-3" points="0 422.27 0 0 443.7 422.27 0 422.27"/><g id="Cloud-3" data-name="Cloud"><path class="cls-6" d="M185.13,141c-44,0-88.62,63-108.94,119.87a17.39,17.39,0,0,0,10.59,22.2,16.72,16.72,0,0,0,5.81,1H284.51a17.49,17.49,0,0,0,17.42-17.42,20.77,20.77,0,0,0-1.2-6.48C275.46,199.59,228.67,141,185.13,141Z"/><path class="cls-7" d="M435.28,167.32c-35.34,0-71,49.51-87.93,95.28a16,16,0,0,0,9.39,20.49,15.08,15.08,0,0,0,5.63,1H513.83a15.77,15.77,0,0,0,14.68-22.2C507.68,213.42,470.29,167.32,435.28,167.32Z"/><path class="cls-7" d="M453.9,284.11c-28.69-94.94-57.55-166.48-126.53-166.48-69.84,0-140.53,80.42-162.56,166.48Z"/></g><g id="Cloud-4" data-name="Cloud"><path class="cls-6" d="M732.27,487c-15.45,0-31.08,22.1-38.21,42a6.1,6.1,0,0,0,3.71,7.79,5.84,5.84,0,0,0,2,.36h67.32a6.14,6.14,0,0,0,6.11-6.11,7.3,7.3,0,0,0-.42-2.28C764,507.52,747.55,487,732.27,487Z"/><path class="cls-7" d="M820,496.2c-12.4,0-24.92,17.37-30.85,33.42a5.62,5.62,0,0,0,3.3,7.19,5.23,5.23,0,0,0,2,.36h53.13a5.54,5.54,0,0,0,5.15-7.79C845.41,512.37,832.3,496.2,820,496.2Z"/><path class="cls-7" d="M826.55,537.17c-10.07-33.3-20.19-58.4-44.38-58.4-24.5,0-49.3,28.21-57,58.4Z"/></g></g></g></svg>