<?xml version="1.0" encoding="utf-8"?>
<!-- Generator: Adobe Illustrator 24.0.3, SVG Export Plug-In . SVG Version: 6.00 Build 0)  -->
<svg version="1.1" id="Layer_1" xmlns="http://www.w3.org/2000/svg" xmlns:xlink="http://www.w3.org/1999/xlink" x="0px" y="0px"
	 viewBox="0 0 732 905" style="enable-background:new 0 0 732 905;" xml:space="preserve">
<style type="text/css">
	.st0{display:none;opacity:0.8;}
	.st1{display:inline;fill:#DE4238;}
	.st2{display:inline;fill:#FCDEDE;}
	.st3{display:inline;fill:none;stroke:#B75004;stroke-miterlimit:10;}
	.st4{display:inline;}
	.st5{clip-path:url(#SVGID_2_);fill:#CC332F;}
	.st6{clip-path:url(#SVGID_4_);fill:#DE4238;}
	.st7{clip-path:url(#SVGID_6_);fill:#DE4238;}
	.st8{display:inline;fill:#EF6059;}
	.st9{display:none;}
	.st10{display:inline;fill:#C4925C;}
	.st11{fill:#4B7FD1;}
	.st12{fill:#AD561C;}
	.st13{fill:#FFC783;}
	.st14{fill:#CACAFC;}
	.st15{fill:#874E03;}
	.st16{display:inline;fill:#CACAFC;}
	.st17{fill:#FFB871;}
	.st18{display:inline;fill:#C19667;}
	.st19{display:inline;fill:#F7F7F7;}
	.st20{display:inline;fill:#FFFFFF;}
	.st21{opacity:0.8;}
	.st22{fill:#DE4238;}
	.st23{fill:#FCDEDE;}
	.st24{fill:none;stroke:#B75004;stroke-miterlimit:10;stroke-opacity:0.8;}
</style>
<g class="st0">
	<path class="st1" d="M452.2,904.9c249.7,0,452.2-202.6,452.2-452.5S701.9,0,452.2,0S0,202.6,0,452.5S202.4,904.9,452.2,904.9z"/>
	<path class="st2" d="M73.7,593.2l219-96.8l25.4,31.2L253.9,570l67.7,14.2l66.2-3.3l73-90.8l32.4,36.5l-92.6,115.1L315,674.3
		L177,665l-61.4,22.8L73.7,593.2z"/>
	<path class="st2" d="M303.8,580.8l73.4-72.4l16.6,18.5l31-29.3l13.7,19L387.9,581l-54.4,2.7l-11.8,0.5L303.8,580.8z"/>
	<path class="st3" d="M115.6,687.9l61.2-22.8"/>
	<path class="st3" d="M315,674.3L176.8,665"/>
	<path class="st3" d="M315,674.3l85.7-32.4"/>
	<path class="st3" d="M493.3,526.8l-92.6,115.1"/>
	<path class="st3" d="M460.9,490.2l32.4,36.5"/>
	<path class="st3" d="M387.9,581l73-90.8"/>
	<path class="st3" d="M321.7,584.2l66.2-3.3"/>
	<path class="st3" d="M253.9,570l67.7,14.2"/>
	<path class="st3" d="M318.1,527.6L253.8,570"/>
	<path class="st3" d="M292.7,496.4l25.5,31.2"/>
	<path class="st3" d="M73.7,593.2l218.8-96.8"/>
	<path class="st3" d="M115.6,687.9l-41.8-94.7"/>
	<path class="st3" d="M333.5,583.7l91.4-86.1"/>
	<path class="st3" d="M438.6,516.6l-13.7-19"/>
	<path class="st3" d="M303.8,580.8l73.4-72.2"/>
	<path class="st2" d="M600.5,216.1l57.8-30.4l53.6,88.6L507.2,398l-29.4-27.7l58.5-49.6l-50.9-5l-63.7,81.1l-18.8-16.1l-27.2,33
		l-16-17.2L341,425.6l-36.7-32l77.1-125.9l81-43.3L600.5,216.1z"/>
	<path class="st3" d="M393.9,526.8l-16.7-18.3"/>
	<path class="st3" d="M658,185.8l-58,30.4"/>
	<path class="st3" d="M462,224.6l138.2-8.3"/>
	<path class="st3" d="M462,224.6l-80.8,43.1"/>
	<path class="st3" d="M303.9,393.8L381,267.9"/>
	<path class="st3" d="M340.7,425.8l-36.7-32"/>
	<path class="st3" d="M401.7,326.5l-61,99.3"/>
	<path class="st3" d="M466.9,314.8l-65.2,11.7"/>
	<path class="st3" d="M535.9,320.3l-68.9-5.5"/>
	<path class="st3" d="M477.5,370.5l58.4-50.2"/>
	<path class="st3" d="M506.9,398.2l-29.2-27.7"/>
	<path class="st3" d="M711.7,274.4L506.9,398.2"/>
	<path class="st3" d="M658,185.8l53.5,88.6"/>
	<path class="st3" d="M455.1,316.8l-79.7,97.1"/>
	<path class="st3" d="M359.4,396.7l16,17.2"/>
	<path class="st3" d="M485.1,316l-63.7,81.1"/>
	<path class="st3" d="M402.6,381l18.8,16.1"/>
</g>
<g class="st0">
	<path class="st2" d="M449.3,903.7c247.8,0,448.6-200.8,448.6-448.6S697.1,6.4,449.3,6.4S0.7,207.2,0.7,455S201.6,903.7,449.3,903.7
		z"/>
	<g class="st4">
		<g>
			<g>
				<g>
					<g>
						<defs>
							<path id="SVGID_1_" d="M449.3,903.7c247.8,0,448.6-200.8,448.6-448.6S697.1,6.4,449.3,6.4S0.7,207.2,0.7,455
								S201.6,903.7,449.3,903.7z"/>
						</defs>
						<clipPath id="SVGID_2_">
							<use xlink:href="#SVGID_1_"  style="overflow:visible;"/>
						</clipPath>
						<path class="st5" d="M0.7,685c47,34.3,111.9,91.6,174.5,117.2c13,2.9,26.1,5.6,39.3,8l101.1-16.6L155.9,497.7L0.7,685z"/>
					</g>
				</g>
			</g>
		</g>
		<g>
			<g>
				<g>
					<g>
						<defs>
							<path id="SVGID_3_" d="M449.3,903.7c247.8,0,448.6-200.8,448.6-448.6S697.1,6.4,449.3,6.4S0.7,207.2,0.7,455
								S201.6,903.7,449.3,903.7z"/>
						</defs>
						<clipPath id="SVGID_4_">
							<use xlink:href="#SVGID_3_"  style="overflow:visible;"/>
						</clipPath>
						<path class="st6" d="M10,712c47,34.3,102.7,64.7,165.3,90.3c13,2.9,26.1,5.6,39.3,8l101.1-16.6L155.9,497.8L10,712z"/>
					</g>
				</g>
			</g>
		</g>
		<g>
			<g>
				<g>
					<g>
						<defs>
							<path id="SVGID_5_" d="M449.3,903.7c247.8,0,448.6-200.8,448.6-448.6S697.1,6.4,449.3,6.4S0.7,207.2,0.7,455
								S201.6,903.7,449.3,903.7z"/>
						</defs>
						<clipPath id="SVGID_6_">
							<use xlink:href="#SVGID_5_"  style="overflow:visible;"/>
						</clipPath>
						<path id="climb_1_" class="st7" d="M158.4,809.4c81.1,69.4,184.4,107.4,291,107.2c238.3,0,433.2-185.8,447.7-420.4
							L158.4,809.4z"/>
					</g>
				</g>
			</g>
		</g>
	</g>
	<path id="climb" class="st8" d="M158.4,796.4c81.1,69.4,184.4,107.4,291,107.2c238.3,0,433.2-185.8,447.7-420.4L158.4,796.4z"/>
</g>
<g id="Perso" class="st9">
	<path class="st10" d="M449.5,407.9l23-1.5c2.6-0.2,4.5,2.8,3.9,6.2L463,486l-28.8-6.2c-2.6-0.6-4.3-3.2-3.7-5.8l14.7-61.7
		C445.9,409.9,447.7,408.1,449.5,407.9z"/>
	<g class="st4">
		<path class="st11" d="M505.6,562.1l-3.3-0.1c-4.8-0.2-8.8,3.5-9,8.3l-2.8,66.6c-0.2,4.8,3.5,8.8,8.3,9l0,0c4.8,0.2,8.8-3.5,9-8.3
			l3-69.9C511,564.8,508.7,562.3,505.6,562.1L505.6,562.1z"/>
		<path class="st11" d="M456.7,511.9l0.3-0.2c3.7-3,9-2.4,11.9,1.3l40,49.6c3.1,3.9,2.5,9.4-1.3,12.5l0,0c-3.7,2.9-9,2.3-11.9-1.3
			l-40.2-49.9C452.4,520.2,453,514.8,456.7,511.9z"/>
		<path class="st11" d="M420.6,676l4.9,1.1c3.4,0.7,6.6-1.4,7.4-4.7l32.8-146.7c0.7-3.3-1.4-6.5-4.8-7.3l-4.9-1.1
			c-3.4-0.7-6.6,1.4-7.4,4.7l-32.8,146.7C415.1,671.9,417.3,675.2,420.6,676z"/>
		<path id="pants" class="st11" d="M474.9,505H449v18.6h25.9V505z"/>
	</g>
	<g id="shoes" class="st4">
		<path class="st12" d="M522,643l-24,9.8c-0.9,0.4-1.9-0.1-2.3-0.9l-3.8-9.4c-0.4-0.9,0.1-1.9,0.9-2.2l14.6-6
			c6.1-2.5,12.9,0.4,15.5,6.5l0,0l0,0C523.3,641.6,522.9,642.7,522,643z"/>
		<path class="st12" d="M449.3,673.9L422.5,685c-0.9,0.4-2-0.1-2.4-1.1l-4.1-11.2c-0.4-1,0.1-2.1,1-2.5l16.4-6.7
			c6.7-2.8,14.3,0.7,17,7.9l0,0C450.7,672.4,450.2,673.5,449.3,673.9z"/>
	</g>
	<g id="harm_x2B_hand_1_" class="st4">
		<path class="st13" d="M527,467.7l-3.8-11.4c-0.1-0.1,0-0.1,0-0.2l0,0l49.4-16.3c2.9-0.9,6,0.6,6.9,3.5l0.5,1.5
			c0.9,2.9-0.6,6-3.5,6.9l-48.9,16.1C527.4,468.1,527.2,468,527,467.7L527,467.7z"/>
		<path class="st14" d="M518.5,470.2l-3.7-11.1c0-0.1,0-0.2,0.1-0.2l43.3-14.3c0.1,0,0.2,0,0.2,0.1l3.9,11.7c0,0.1,0,0.2-0.1,0.2
			l-42.7,14C519.1,470.8,518.7,470.6,518.5,470.2L518.5,470.2z"/>
		<path class="st14" d="M524.8,468.4l-3.9,2.1c-4,2.1-8.9,0.6-11.1-3.4l0,0l-26.9-50.3c-1.6-3.2-0.2-6.9,2.9-8.4
			c3-1.5,6.5-0.4,8.2,2.5L524.8,468.4z"/>
	</g>
	<g id="head" class="st4">
		<path class="st15" d="M480.9,370.7l-7.3,9c0,0-15.8-16.4-16-23.4c-0.4-8.7,9.3-27.2,17.6-30.3c8.4-3.1,28.8,0.2,35.4,6.3
			c1.4,1.4,2.8,6.2,1.7,7.8c-1.2,1.9-9,1.8-9,1.8"/>
		<path class="st13" d="M480.7,370.6l-7,9.2c0,0,14.1,14.8,20.3,16.9c2.4,0.8,10.2-0.4,10.2-0.4l4.6-20.5l5.8-2.4l-5.6-11l-5.8-20
			c0,0-14.9-1.9-18.5,2.5c-3.3,3.9-1.3,18.8-1.3,18.8s-5.9-2.9-6.8-1.5C475,363.9,480.7,370.6,480.7,370.6z"/>
		<path class="st13" d="M490.4,384.7l-10.6-0.7l-0.2,26.9l10.6,0.7L490.4,384.7z"/>
	</g>
	<polygon class="st16" points="465.2,409.1 479.7,399.7 494,427.8 474.9,505 448.9,505 	"/>
	<g id="harm_x2B_hand" class="st4">
		<path class="st17" d="M427.3,464.9l10-6.5c0-0.1,0.1,0,0.2,0l0,0l28.4,43.6c1.6,2.6,0.9,6-1.6,7.6l-1.4,0.9
			c-2.6,1.6-6,0.9-7.6-1.6l-28.1-43.2C426.9,465.4,427,465.1,427.3,464.9L427.3,464.9z"/>
		<path class="st14" d="M422.7,457.3l9.8-6.5c0.1,0,0.2,0,0.3,0l24.9,38.2c0,0.1,0,0.2,0,0.3l-10.3,6.7c-0.1,0-0.2,0-0.3,0
			l-24.5-37.7C422.3,458,422.4,457.6,422.7,457.3L422.7,457.3z"/>
		<path class="st14" d="M426,462.9l-3-3.3c-3.1-3.3-2.9-8.4,0.4-11.6l0,0l41.8-38.9c2.7-2.3,6.6-2,8.9,0.6c2.2,2.5,2,6.3-0.3,8.6
			L426,462.9z"/>
	</g>
	<path class="st18" d="M494,410.7c2.3,6.3,3.1,13.4,0.1,20.5c-0.1,0.2-0.2,0.3-0.2,0.5l-1.5,2.8c2-6.9,2.8-16.3,0.2-25.3L494,410.7z
		"/>
	<path class="st18" d="M465.2,408.8c1.2,5.9-1.5,12.9-3.5,20.5l-2,11.7c1.5-6.7,9.5-24.2,7.7-33.5L465.2,408.8z"/>
</g>
<g id="clouds-2" class="st9">
	<path class="st19" d="M679.1,307.2c-22.9,0-46.1,32.7-56.7,62.4c-1.7,4.7,0.8,9.8,5.6,11.5c1,0.3,2,0.5,3,0.5h99.8c5,0,9-4.1,9-9
		c0-1.2-0.2-2.4-0.7-3.5C726.1,337.7,701.8,307.2,679.1,307.2z"/>
	<path class="st20" d="M809.3,320.9c-18.4,0-36.9,25.8-45.7,49.6c-1.6,4.3,0.6,9,4.9,10.6c0.9,0.3,1.9,0.5,2.9,0.5H850
		c4.6,0,8.3-3.7,8.3-8.2c0-1.1-0.2-2.2-0.7-3.3C847,344.9,827.5,320.9,809.3,320.9z"/>
	<path class="st20" d="M818.9,381.6c-14.9-49.4-30-86.6-65.8-86.6c-36.3,0-73.1,41.9-84.5,86.6H818.9z"/>
</g>
<g id="snoq" class="st9">
	<path class="st20" d="M84.8,602.2c0,0-5.6,23.1,0,26.8c9.8,6.5,34-14.8,45-13.7c16,1.6,41.4,34.5,52.8,35.6
		c20.2,2,18.9-69.2,18.9-69.2l-45.4-84l-58.7,71L84.8,602.2"/>
	<polygon class="st19" points="84.8,602.2 155.9,497.7 96.7,569.3 	"/>
</g>
<g id="clouds" class="st9">
	<path class="st19" d="M168.6,158.8c-25.6,0-51.5,36.6-63.3,69.7c-1.9,5.3,0.9,11,6.2,12.9c1.1,0.4,2.2,0.6,3.4,0.6h111.5
		c5.6,0,10.1-4.6,10.1-10.1c0-1.3-0.3-2.6-0.7-3.8C221.1,192.8,194,158.8,168.6,158.8z"/>
	<path class="st20" d="M314.1,174.1c-20.5,0-41.3,28.8-51.1,55.4c-1.8,4.8,0.7,10.1,5.5,11.9c1,0.4,2.1,0.6,3.3,0.6h88
		c5.2,0,9.2-4.2,9.3-9.2c0-1.3-0.3-2.5-0.8-3.7C356.2,200.9,334.4,174.1,314.1,174.1z"/>
	<path class="st20" d="M324.8,241.9c-16.7-55.2-33.3-96.8-73.5-96.8c-40.6,0-81.7,46.7-94.5,96.8H324.8z"/>
</g>
<g class="st21">
	<path class="st22" d="M454.4,905.8c249.7,0,452.2-202.6,452.2-452.5S704.2,0.9,454.4,0.9S2.3,203.5,2.3,453.4
		S204.7,905.8,454.4,905.8z"/>
	<path class="st23" d="M76,594.1l219-96.8l25.4,31.2l-64.1,42.4l67.7,14.2l66.2-3.3l73-90.8l32.4,36.5L403,642.8l-85.7,32.4
		l-138-9.3l-61.4,22.8L76,594.1z"/>
	<path class="st23" d="M306.1,581.7l73.4-72.4l16.6,18.5l31-29.3l13.7,19l-50.8,64.3l-54.4,2.7l-11.8,0.5L306.1,581.7z"/>
	<path class="st24" d="M117.8,688.8l61.2-22.8"/>
	<path class="st24" d="M317.3,675.2l-138.2-9.3"/>
	<path class="st24" d="M317.3,675.2l85.7-32.4"/>
	<path class="st24" d="M495.6,527.7L403,642.8"/>
	<path class="st24" d="M463.2,491.1l32.4,36.5"/>
	<path class="st24" d="M390.1,581.9l73-90.8"/>
	<path class="st24" d="M324,585.1l66.2-3.3"/>
	<path class="st24" d="M256.2,570.9l67.7,14.2"/>
	<path class="st24" d="M320.4,528.5l-64.3,42.4"/>
	<path class="st24" d="M295,497.3l25.5,31.2"/>
	<path class="st24" d="M76,594.1l218.8-96.8"/>
	<path class="st24" d="M117.8,688.8L76,594.1"/>
	<path class="st24" d="M335.8,584.6l91.4-86.1"/>
	<path class="st24" d="M440.9,517.5l-13.7-19"/>
	<path class="st24" d="M306.1,581.7l73.4-72.2"/>
	<path class="st23" d="M691.1,216.4l57.8-30.4l53.6,88.6L597.7,398.3l-29.4-27.7l58.5-49.6l-50.9-5l-63.7,81.1l-18.8-16.1l-27.2,33
		l-16-17.2l-18.7,29.1l-36.7-32L472,268l81-43.3L691.1,216.4z"/>
	<path class="st24" d="M467.7,508.9"/>
	<path class="st24" d="M484.5,527.1"/>
	<path class="st24" d="M748.6,186.1l-58,30.4"/>
	<path class="st24" d="M552.6,224.9l138.2-8.3"/>
	<path class="st24" d="M552.6,224.9L471.8,268"/>
	<path class="st24" d="M394.5,394.1l77.1-125.9"/>
	<path class="st24" d="M431.2,426.1l-36.7-32"/>
	<path class="st24" d="M492.3,326.8l-61,99.3"/>
	<path class="st24" d="M557.5,315.1l-65.2,11.7"/>
	<path class="st24" d="M626.4,320.6l-68.9-5.5"/>
	<path class="st24" d="M568,370.8l58.4-50.2"/>
	<path class="st24" d="M597.4,398.5l-29.2-27.7"/>
	<path class="st24" d="M802.2,274.7L597.4,398.5"/>
	<path class="st24" d="M748.6,186.1l53.5,88.6"/>
	<path class="st24" d="M545.6,317.1L466,414.2"/>
	<path class="st24" d="M450,397l16,17.2"/>
	<path class="st24" d="M575.6,316.3L512,397.4"/>
	<path class="st24" d="M493.1,381.3l18.8,16.1"/>
</g>
</svg>
