<svg width="732" height="905" viewBox="0 0 732 905" fill="none" xmlns="http://www.w3.org/2000/svg">
<g opacity="0.8">
<path d="M452.167 904.927C701.892 904.927 904.334 702.353 904.334 452.464C904.334 202.575 701.892 0 452.167 0C202.442 0 0 202.575 0 452.464C0 702.353 202.442 904.927 452.167 904.927Z" fill="#DE4238"/>
<path d="M73.7323 593.162L292.7 496.389L318.077 527.617L253.947 569.998L321.678 584.239L387.866 580.979L460.912 490.212L493.32 526.759L400.726 641.891L314.991 674.32L176.957 665.055L115.571 687.875L73.7323 593.162Z" fill="#FCDEDE"/>
<path d="M303.845 580.807L377.234 508.4L393.867 526.93L424.903 497.59L438.621 516.636L387.865 580.979L333.509 583.724L321.678 584.239L303.845 580.807Z" fill="#FCDEDE"/>
<path d="M115.571 687.875L176.786 665.055" stroke="#B75004" stroke-miterlimit="10"/>
<path d="M314.991 674.32L176.786 665.055" stroke="#B75004" stroke-miterlimit="10"/>
<path d="M314.991 674.32L400.726 641.891" stroke="#B75004" stroke-miterlimit="10"/>
<path d="M493.32 526.759L400.726 641.891" stroke="#B75004" stroke-miterlimit="10"/>
<path d="M460.912 490.212L493.32 526.759" stroke="#B75004" stroke-miterlimit="10"/>
<path d="M387.866 580.979L460.912 490.212" stroke="#B75004" stroke-miterlimit="10"/>
<path d="M321.678 584.239L387.866 580.979" stroke="#B75004" stroke-miterlimit="10"/>
<path d="M253.947 569.998L321.678 584.239" stroke="#B75004" stroke-miterlimit="10"/>
<path d="M318.077 527.617L253.776 569.998" stroke="#B75004" stroke-miterlimit="10"/>
<path d="M292.7 496.389L318.249 527.617" stroke="#B75004" stroke-miterlimit="10"/>
<path d="M73.7323 593.161L292.528 496.389" stroke="#B75004" stroke-miterlimit="10"/>
<path d="M115.571 687.875L73.7323 593.162" stroke="#B75004" stroke-miterlimit="10"/>
<path d="M333.509 583.724L424.903 497.59" stroke="#B75004" stroke-miterlimit="10"/>
<path d="M438.621 516.636L424.903 497.59" stroke="#B75004" stroke-miterlimit="10"/>
<path d="M303.845 580.808L377.234 508.571" stroke="#B75004" stroke-miterlimit="10"/>
<path d="M600.536 216.06L658.34 185.638L711.972 274.241L507.177 398.027L477.786 370.357L536.264 320.793L485.394 315.804L421.703 396.906L402.887 380.777L375.719 413.761L359.698 396.557L340.994 425.612L304.257 393.579L381.39 267.689L462.358 224.4L600.536 216.06Z" fill="#FCDEDE"/>
<path d="M393.9 526.822L377.167 508.559" stroke="#B75004" stroke-miterlimit="10"/>
<path d="M658.028 185.818L600.055 216.262" stroke="#B75004" stroke-miterlimit="10"/>
<path d="M462.047 224.58L600.225 216.239" stroke="#B75004" stroke-miterlimit="10"/>
<path d="M462.047 224.58L381.225 267.676" stroke="#B75004" stroke-miterlimit="10"/>
<path d="M303.946 393.758L381.079 267.869" stroke="#B75004" stroke-miterlimit="10"/>
<path d="M340.682 425.792L303.946 393.758" stroke="#B75004" stroke-miterlimit="10"/>
<path d="M401.72 326.523L340.682 425.792" stroke="#B75004" stroke-miterlimit="10"/>
<path d="M466.927 314.831L401.72 326.523" stroke="#B75004" stroke-miterlimit="10"/>
<path d="M535.859 320.293L466.926 314.831" stroke="#B75004" stroke-miterlimit="10"/>
<path d="M477.474 370.536L535.86 320.293" stroke="#B75004" stroke-miterlimit="10"/>
<path d="M506.865 398.207L477.644 370.513" stroke="#B75004" stroke-miterlimit="10"/>
<path d="M711.66 274.42L506.865 398.207" stroke="#B75004" stroke-miterlimit="10"/>
<path d="M658.028 185.817L711.49 274.443" stroke="#B75004" stroke-miterlimit="10"/>
<path d="M455.081 316.798L375.408 413.941" stroke="#B75004" stroke-miterlimit="10"/>
<path d="M359.387 396.737L375.408 413.941" stroke="#B75004" stroke-miterlimit="10"/>
<path d="M485.083 315.983L421.391 397.085" stroke="#B75004" stroke-miterlimit="10"/>
<path d="M402.575 380.957L421.391 397.085" stroke="#B75004" stroke-miterlimit="10"/>
</g>
</svg>
