<svg width="763" height="954" viewBox="0 0 763 954" fill="none" xmlns="http://www.w3.org/2000/svg">
<g opacity="0.8">
<path d="M589 929.464C838.725 929.464 1041.17 726.889 1041.17 477C1041.17 227.111 838.725 24.5361 589 24.5361C339.275 24.5361 136.833 227.111 136.833 477C136.833 726.889 339.275 929.464 589 929.464Z" fill="#DE4238"/>
<path d="M210.565 617.698L429.533 520.925L454.91 552.153L390.78 594.534L458.511 608.775L524.699 605.515L597.745 514.748L630.153 551.295L537.559 666.427L451.824 698.856L313.79 689.591L252.404 712.411L210.565 617.698Z" fill="#FCDEDE"/>
<path d="M440.678 605.344L514.067 532.936L530.7 551.467L561.736 522.126L575.454 541.172L524.698 605.515L470.342 608.26L458.511 608.775L440.678 605.344Z" fill="#FCDEDE"/>
<path d="M252.404 712.411L313.619 689.591" stroke="#B75004" stroke-miterlimit="10"/>
<path d="M451.824 698.856L313.619 689.591" stroke="#B75004" stroke-miterlimit="10"/>
<path d="M451.824 698.856L537.559 666.427" stroke="#B75004" stroke-miterlimit="10"/>
<path d="M630.153 551.295L537.559 666.427" stroke="#B75004" stroke-miterlimit="10"/>
<path d="M597.745 514.748L630.153 551.295" stroke="#B75004" stroke-miterlimit="10"/>
<path d="M524.699 605.515L597.745 514.748" stroke="#B75004" stroke-miterlimit="10"/>
<path d="M458.511 608.775L524.699 605.515" stroke="#B75004" stroke-miterlimit="10"/>
<path d="M390.78 594.534L458.511 608.775" stroke="#B75004" stroke-miterlimit="10"/>
<path d="M454.91 552.153L390.609 594.534" stroke="#B75004" stroke-miterlimit="10"/>
<path d="M429.533 520.925L455.082 552.153" stroke="#B75004" stroke-miterlimit="10"/>
<path d="M210.565 617.698L429.361 520.925" stroke="#B75004" stroke-miterlimit="10"/>
<path d="M252.404 712.411L210.565 617.698" stroke="#B75004" stroke-miterlimit="10"/>
<path d="M470.342 608.261L561.736 522.126" stroke="#B75004" stroke-miterlimit="10"/>
<path d="M575.454 541.172L561.736 522.126" stroke="#B75004" stroke-miterlimit="10"/>
<path d="M440.678 605.344L514.067 533.107" stroke="#B75004" stroke-miterlimit="10"/>
<path d="M737.369 240.596L795.173 210.174L848.805 298.777L644.01 422.563L614.619 394.893L673.097 345.33L622.227 340.34L558.536 421.442L539.72 405.313L512.552 438.297L496.531 421.093L477.827 450.149L441.09 418.115L518.223 292.225L599.192 248.937L737.369 240.596Z" fill="#FCDEDE"/>
<path d="M530.733 551.359L514 533.095" stroke="#B75004" stroke-miterlimit="10"/>
<path d="M794.861 210.354L736.888 240.799" stroke="#B75004" stroke-miterlimit="10"/>
<path d="M598.88 249.116L737.058 240.775" stroke="#B75004" stroke-miterlimit="10"/>
<path d="M598.88 249.116L518.058 292.212" stroke="#B75004" stroke-miterlimit="10"/>
<path d="M440.779 418.294L517.912 292.405" stroke="#B75004" stroke-miterlimit="10"/>
<path d="M477.515 450.328L440.779 418.294" stroke="#B75004" stroke-miterlimit="10"/>
<path d="M538.553 351.059L477.515 450.328" stroke="#B75004" stroke-miterlimit="10"/>
<path d="M603.76 339.367L538.553 351.059" stroke="#B75004" stroke-miterlimit="10"/>
<path d="M672.692 344.829L603.759 339.367" stroke="#B75004" stroke-miterlimit="10"/>
<path d="M614.307 395.072L672.693 344.829" stroke="#B75004" stroke-miterlimit="10"/>
<path d="M643.698 422.743L614.477 395.049" stroke="#B75004" stroke-miterlimit="10"/>
<path d="M848.493 298.956L643.698 422.743" stroke="#B75004" stroke-miterlimit="10"/>
<path d="M591.914 341.334L512.241 438.477" stroke="#B75004" stroke-miterlimit="10"/>
<path d="M496.22 421.273L512.241 438.477" stroke="#B75004" stroke-miterlimit="10"/>
<path d="M621.916 340.519L558.224 421.622" stroke="#B75004" stroke-miterlimit="10"/>
<path d="M539.408 405.493L558.224 421.622" stroke="#B75004" stroke-miterlimit="10"/>
</g>
</svg>
