<svg width="906" height="906" viewBox="0 0 906 906" fill="none" xmlns="http://www.w3.org/2000/svg">
<g opacity="0.8">
<path d="M453 905.464C702.725 905.464 905.167 702.889 905.167 453C905.167 203.111 702.725 0.536133 453 0.536133C203.275 0.536133 0.833038 203.111 0.833038 453C0.833038 702.889 203.275 905.464 453 905.464Z" fill="#DE4238"/>
<path d="M74.5653 593.698L293.533 496.925L318.91 528.153L254.78 570.534L322.511 584.775L388.699 581.515L461.745 490.748L494.153 527.295L401.559 642.427L315.824 674.856L177.79 665.591L116.404 688.411L74.5653 593.698Z" fill="#FCDEDE"/>
<path d="M304.678 581.344L378.067 508.936L394.7 527.467L425.736 498.126L439.454 517.172L388.698 581.515L334.342 584.26L322.511 584.775L304.678 581.344Z" fill="#FCDEDE"/>
<path d="M116.404 688.411L177.619 665.591" stroke="#B75004" stroke-opacity="0.8" stroke-miterlimit="10"/>
<path d="M315.824 674.856L177.619 665.591" stroke="#B75004" stroke-opacity="0.8" stroke-miterlimit="10"/>
<path d="M315.824 674.856L401.559 642.427" stroke="#B75004" stroke-opacity="0.8" stroke-miterlimit="10"/>
<path d="M494.153 527.295L401.559 642.427" stroke="#B75004" stroke-opacity="0.8" stroke-miterlimit="10"/>
<path d="M461.745 490.748L494.153 527.295" stroke="#B75004" stroke-opacity="0.8" stroke-miterlimit="10"/>
<path d="M388.699 581.515L461.745 490.748" stroke="#B75004" stroke-opacity="0.8" stroke-miterlimit="10"/>
<path d="M322.511 584.775L388.699 581.515" stroke="#B75004" stroke-opacity="0.8" stroke-miterlimit="10"/>
<path d="M254.78 570.534L322.511 584.775" stroke="#B75004" stroke-opacity="0.8" stroke-miterlimit="10"/>
<path d="M318.91 528.153L254.609 570.534" stroke="#B75004" stroke-opacity="0.8" stroke-miterlimit="10"/>
<path d="M293.533 496.925L319.082 528.153" stroke="#B75004" stroke-opacity="0.8" stroke-miterlimit="10"/>
<path d="M74.5653 593.698L293.361 496.925" stroke="#B75004" stroke-opacity="0.8" stroke-miterlimit="10"/>
<path d="M116.404 688.411L74.5653 593.698" stroke="#B75004" stroke-opacity="0.8" stroke-miterlimit="10"/>
<path d="M334.342 584.261L425.736 498.126" stroke="#B75004" stroke-opacity="0.8" stroke-miterlimit="10"/>
<path d="M439.454 517.172L425.736 498.126" stroke="#B75004" stroke-opacity="0.8" stroke-miterlimit="10"/>
<path d="M304.678 581.344L378.067 509.107" stroke="#B75004" stroke-opacity="0.8" stroke-miterlimit="10"/>
<path d="M689.655 216L747.459 185.578L801.091 274.181L596.295 397.968L566.904 370.297L625.383 320.734L574.513 315.744L510.822 396.847L492.006 380.718L464.838 413.702L448.817 396.498L430.112 425.553L393.376 393.519L470.509 267.63L551.477 224.341L689.655 216Z" fill="#FCDEDE"/>
<path d="M483.018 526.763L466.286 508.5" stroke="#B75004" stroke-opacity="0.8" stroke-miterlimit="10"/>
<path d="M747.147 185.758L689.174 216.203" stroke="#B75004" stroke-opacity="0.8" stroke-miterlimit="10"/>
<path d="M551.166 224.521L689.344 216.18" stroke="#B75004" stroke-opacity="0.8" stroke-miterlimit="10"/>
<path d="M551.166 224.52L470.344 267.616" stroke="#B75004" stroke-opacity="0.8" stroke-miterlimit="10"/>
<path d="M393.065 393.699L470.198 267.809" stroke="#B75004" stroke-opacity="0.8" stroke-miterlimit="10"/>
<path d="M429.801 425.732L393.065 393.698" stroke="#B75004" stroke-opacity="0.8" stroke-miterlimit="10"/>
<path d="M490.838 326.463L429.8 425.732" stroke="#B75004" stroke-opacity="0.8" stroke-miterlimit="10"/>
<path d="M556.046 314.771L490.839 326.463" stroke="#B75004" stroke-opacity="0.8" stroke-miterlimit="10"/>
<path d="M624.978 320.233L556.045 314.771" stroke="#B75004" stroke-opacity="0.8" stroke-miterlimit="10"/>
<path d="M566.593 370.477L624.979 320.233" stroke="#B75004" stroke-opacity="0.8" stroke-miterlimit="10"/>
<path d="M595.984 398.147L566.762 370.454" stroke="#B75004" stroke-opacity="0.8" stroke-miterlimit="10"/>
<path d="M800.779 274.361L595.984 398.147" stroke="#B75004" stroke-opacity="0.8" stroke-miterlimit="10"/>
<path d="M747.147 185.758L800.609 274.384" stroke="#B75004" stroke-opacity="0.8" stroke-miterlimit="10"/>
<path d="M544.2 316.738L464.527 413.881" stroke="#B75004" stroke-opacity="0.8" stroke-miterlimit="10"/>
<path d="M448.506 396.677L464.527 413.881" stroke="#B75004" stroke-opacity="0.8" stroke-miterlimit="10"/>
<path d="M574.201 315.924L510.51 397.026" stroke="#B75004" stroke-opacity="0.8" stroke-miterlimit="10"/>
<path d="M491.694 380.897L510.51 397.026" stroke="#B75004" stroke-opacity="0.8" stroke-miterlimit="10"/>
</g>
</svg>
