<?xml version="1.0" encoding="utf-8"?>
<!-- Generator: Adobe Illustrator 23.0.6, SVG Export Plug-In . SVG Version: 6.00 Build 0)  -->
<svg version="1.1" id="Calque_1" xmlns="http://www.w3.org/2000/svg" xmlns:xlink="http://www.w3.org/1999/xlink" x="0px" y="0px"
	 viewBox="0 0 287 331" style="enable-background:new 0 0 287 331;" xml:space="preserve">
<style type="text/css">
	.st0{fill:#E8D6D6;}
	.st1{fill:#EF6059;}
	.st2{fill:#DE4238;}
</style>
<path class="st0" d="M142.2,111.2c31.1,0,56.3-24.9,56.3-55.6c0-30.7-25.2-55.6-56.3-55.6c-31.1,0-56.3,24.9-56.3,55.6
	C85.9,86.3,111.1,111.2,142.2,111.2z"/>
<path class="st1" d="M56.3,255.2c31.1,0,56.3-24.9,56.3-55.6S87.4,144,56.3,144S0,168.9,0,199.6S25.2,255.2,56.3,255.2z"/>
<path class="st2" d="M228.2,255.2c31.1,0,56.3-24.9,56.3-55.6S259.3,144,228.2,144c-31.1,0-56.3,24.9-56.3,55.6
	S197.1,255.2,228.2,255.2z"/>
</svg>
