<svg width="795" height="967" viewBox="0 0 795 967" fill="none" xmlns="http://www.w3.org/2000/svg">
<g opacity="0.8">
<path d="M311.495 966.99C578.522 966.99 794.99 750.522 794.99 483.495C794.99 216.468 578.522 0 311.495 0C44.4682 0 -172 216.468 -172 483.495C-172 750.522 44.4682 966.99 311.495 966.99Z" fill="#FCDEDE"/>
<path d="M319.88 376.659L203.646 553.54C164.082 613.711 124.54 673.888 85.0213 734.072C59.8055 772.438 34.5897 810.803 9.37389 849.169L9.12529 849.551L7.42344 852.152C7.30739 852.363 7.27539 852.61 7.33387 852.844C7.39235 853.078 7.53696 853.281 7.7388 853.413C7.94064 853.545 8.1848 853.595 8.42239 853.555C8.65997 853.514 8.87347 853.385 9.02013 853.194C9.70853 852.152 10.3969 851.11 11.0757 850.068C47.5354 794.613 83.9887 739.159 120.436 683.704L240.485 500.934C262.412 467.547 284.361 434.153 306.332 400.753L320.569 379.069C352.598 442.809 384.625 506.55 416.648 570.291L511.303 758.51C531.891 799.477 552.479 840.44 573.068 881.399L573.24 881.743C573.24 881.743 573.24 881.743 573.24 881.801C573.412 882.155 573.593 882.508 573.775 882.862C574.616 884.545 575.461 886.228 576.309 887.91C576.902 887.69 577.504 887.48 578.116 887.298L576.586 884.239C576.213 883.493 575.84 882.747 575.458 882.002C548.553 828.459 521.632 774.901 494.695 721.327C462.921 658.141 431.155 594.949 399.4 531.75C373.445 480.12 347.486 428.471 321.525 376.803C321.461 376.676 321.369 376.565 321.257 376.478H321.2C321.094 376.408 320.976 376.36 320.852 376.336C320.728 376.313 320.601 376.314 320.477 376.339C320.354 376.365 320.237 376.415 320.132 376.487C320.028 376.558 319.939 376.649 319.871 376.755" fill="#E46A00"/>
<path d="M10.3206 847.648C8.61233 850.262 6.89771 852.872 5.17671 855.479L4.88989 855.919L6.59173 856.808L6.8499 856.416L11.9173 848.7C12.009 848.557 12.0611 848.392 12.068 848.223C12.0749 848.053 12.0365 847.884 11.9566 847.734C11.8768 847.584 11.7584 847.458 11.6137 847.369C11.469 847.28 11.3031 847.231 11.1332 847.228C10.9734 847.224 10.8153 847.261 10.6733 847.335C10.5314 847.408 10.4101 847.516 10.3206 847.648" fill="#E46A00"/>
<path d="M614.821 545.288L577.351 602.311L539.413 660.031C526.83 679.153 514.251 698.298 501.675 717.465L496.292 725.639C496.221 725.744 496.17 725.862 496.145 725.987C496.12 726.111 496.119 726.239 496.144 726.363C496.168 726.488 496.217 726.606 496.288 726.712C496.359 726.817 496.45 726.907 496.556 726.977C496.662 727.047 496.781 727.095 496.905 727.118C497.03 727.142 497.158 727.14 497.282 727.113C497.406 727.087 497.524 727.036 497.628 726.963C497.732 726.891 497.821 726.798 497.889 726.691L535.626 669.325C548.343 649.967 561.062 630.612 573.785 611.26L611.216 554.295L615.519 547.765C615.519 547.765 615.519 547.841 615.567 547.879C625.702 568.028 635.827 588.17 645.942 608.306L678.01 672.116C678.393 672.862 678.766 673.608 679.139 674.363C679.255 674.589 679.457 674.759 679.699 674.836C679.941 674.913 680.204 674.891 680.429 674.774C680.655 674.658 680.825 674.456 680.902 674.214C680.979 673.972 680.957 673.709 680.84 673.484L648.772 609.692C638.485 589.199 628.191 568.713 617.89 548.233L617.259 546.99L617.097 546.656L616.485 545.441C616.403 545.287 616.28 545.159 616.13 545.069C615.98 544.98 615.808 544.933 615.634 544.935C615.475 544.933 615.319 544.97 615.179 545.044C615.039 545.117 614.919 545.224 614.831 545.355" fill="#E46A00"/>
<path d="M319.88 377.358V379.566H320.253C320.443 379.568 320.633 379.593 320.817 379.643C321.124 379.736 321.41 379.889 321.658 380.092C321.746 379.945 321.792 379.776 321.792 379.605V377.386C321.792 377.133 321.692 376.89 321.512 376.71C321.333 376.531 321.09 376.43 320.836 376.43C320.583 376.43 320.339 376.531 320.16 376.71C319.981 376.89 319.88 377.133 319.88 377.386" fill="#2C2C2C"/>
<path d="M385.307 278.735L385.183 277.004H321.496L321.467 303.842H385.928L386.005 301.968L365.812 291.174L385.307 278.735Z" fill="#DE4238"/>
<path d="M319.88 277.894V379.576C320.004 379.562 320.129 379.562 320.253 379.576C320.444 379.577 320.633 379.603 320.817 379.652C321.176 379.762 321.503 379.956 321.773 380.216V277.913C321.773 277.659 321.672 277.416 321.493 277.237C321.314 277.057 321.071 276.957 320.817 276.957C320.564 276.957 320.32 277.057 320.141 277.237C319.962 277.416 319.861 277.659 319.861 277.913" fill="black"/>
<path d="M76.4167 162.032L77.8317 158.753L81.6561 149.861L96.2559 135.864L105.664 128.501L124.222 128.941L142.388 142.996L161.319 175.915L168.413 201.663L168.653 202.485L99.7648 202.763L85.9778 174.806L76.4167 162.032Z" fill="white"/>
<path d="M77.7839 158.839L76.0151 161.679L76.3976 162.071" fill="white"/>
<path d="M4.86127 203.097L5.74089 200.362L13.2942 180.265L31.1065 157.72L42.1878 151.161L59.0536 150.587L76.5122 162.032L86.0446 174.758L99.1338 199.913L98.5792 203.107L4.86127 203.097Z" fill="white"/>
<path d="M117.29 201.845H5.7984C5.54482 201.845 5.30164 201.945 5.12234 202.125C4.94303 202.304 4.84229 202.547 4.84229 202.801C4.84229 203.054 4.94303 203.298 5.12234 203.477C5.30164 203.656 5.54482 203.757 5.7984 203.757H170.603C170.857 203.757 171.1 203.656 171.279 203.477C171.458 203.298 171.559 203.054 171.559 202.801C171.559 202.547 171.458 202.304 171.279 202.125C171.1 201.945 170.857 201.845 170.603 201.845H117.29Z" fill="#DE4238"/>
<path d="M546.048 308.881L546.928 306.156L554.491 286.049L572.293 263.514L583.375 256.945L600.24 256.372L617.708 267.816L627.231 280.542L640.32 305.697L639.766 308.891L546.048 308.881Z" fill="white"/>
<path d="M46.1652 149.727C45.7509 149.81 45.3398 149.905 44.9318 150.014C43.9969 150.246 43.0745 150.527 42.1687 150.855C39.8215 151.721 37.577 152.843 35.4759 154.202C34.0049 155.151 32.5906 156.185 31.2403 157.299H31.183L31.0969 157.376C30.485 157.883 29.8826 158.408 29.2994 158.934C26.4759 161.523 23.8845 164.355 21.5549 167.396C21.5326 167.433 21.507 167.468 21.4784 167.501L21.4115 167.587C20.4554 168.83 19.5312 170.105 18.6388 171.411L18.5623 171.507V171.555L17.8357 172.626C16.8031 174.162 15.8087 175.72 14.8526 177.301L14.7474 177.483L14.5849 177.76C14.5084 177.884 14.4319 178.009 14.365 178.133C12.3189 181.604 10.4354 185.17 8.68568 188.803L8.5423 189.1C8.08337 190.056 7.58616 191.012 7.19415 191.968C7.19415 191.968 7.19415 191.968 7.19415 192.016C6.06594 194.492 4.99509 196.978 3.9625 199.492C3.92854 199.615 3.91952 199.744 3.93594 199.87C3.95236 199.997 3.99393 200.118 4.05814 200.229C4.1214 200.337 4.2055 200.433 4.30563 200.509C4.40576 200.585 4.51996 200.641 4.64165 200.673C4.76334 200.705 4.89013 200.712 5.01478 200.695C5.13943 200.678 5.25945 200.636 5.36801 200.573C5.57722 200.439 5.73288 200.236 5.80784 199.999C6.05643 199.387 6.31457 198.775 6.57272 198.163C6.57272 198.163 6.57273 198.23 6.52492 198.259C7.242 196.586 7.96864 194.913 8.72396 193.259C9.22114 192.178 9.68009 191.098 10.2346 190.027C13.7065 182.539 17.9422 175.429 22.8744 168.811C24.4246 166.814 26.0777 164.899 27.827 163.074C29.6137 161.219 31.5308 159.493 33.5637 157.911C35.8736 156.119 38.3863 154.604 41.05 153.398L41.1647 153.351L41.3082 153.284H41.3942C42.6993 152.74 44.0412 152.29 45.4099 151.936C46.3558 151.699 47.3132 151.511 48.2782 151.371C50.4243 151.104 52.5954 151.104 54.7415 151.371H54.8658C56.8769 151.67 58.8488 152.189 60.7459 152.92L61.6255 153.274C64.4157 154.499 67.0428 156.067 69.4465 157.94C73.4533 161.139 77.0443 164.826 80.1358 168.916C85.3208 175.847 89.7505 183.312 93.3492 191.184C93.3492 191.27 93.4353 191.366 93.4735 191.461L93.5882 191.7C93.6552 191.834 93.7125 191.977 93.7794 192.111V192.159V192.207C94.1364 192.965 94.4806 193.721 94.812 194.473C94.8241 194.507 94.8401 194.539 94.8598 194.568L95.0606 195.037C95.5004 195.993 95.9212 197.007 96.3418 197.991L96.3992 198.116C96.3941 198.131 96.3941 198.148 96.3992 198.163V198.163C96.8103 199.12 97.2119 200.076 97.6134 201.089L98.0819 202.265C98.1561 202.502 98.312 202.706 98.5217 202.839C98.6303 202.902 98.7503 202.944 98.875 202.961C98.9996 202.978 99.1264 202.971 99.2481 202.939C99.3698 202.907 99.484 202.851 99.5841 202.775C99.6842 202.699 99.7684 202.603 99.8316 202.495C99.8958 202.384 99.9374 202.263 99.9538 202.136C99.9702 202.01 99.9612 201.881 99.9273 201.758L99.5256 200.802V200.726L99.3631 200.276C99.3466 200.22 99.3242 200.166 99.2962 200.114V200.114V200.028C99.2962 199.942 99.2293 199.865 99.2006 199.779C99.1989 199.754 99.1989 199.728 99.2006 199.703C98.1744 197.198 97.1004 194.715 95.9785 192.255C95.9821 192.226 95.9821 192.197 95.9785 192.169C95.8925 191.968 95.7968 191.758 95.7012 191.557C95.6056 191.356 95.4431 191.012 95.3188 190.744L95.1371 190.342L93.9037 187.78C93.8272 187.637 93.7603 187.493 93.6838 187.34V187.283C93.6073 187.14 93.5404 186.996 93.4639 186.843V186.795L93.244 186.346L93.005 185.868C91.3509 182.627 89.5726 179.433 87.6604 176.307C85.7563 173.191 83.675 170.187 81.4265 167.31V167.262L81.1397 166.899L81.0536 166.793L80.8051 166.478L80.6808 166.335C80.616 166.241 80.5457 166.152 80.4704 166.067L80.3079 165.866C80.2505 165.799 80.1931 165.723 80.1262 165.656L79.9254 165.417L79.782 165.245L79.5334 164.948L79.4378 164.833L79.1414 164.489L79.084 164.422L78.7494 164.04C78.1088 163.313 77.4587 162.596 76.8372 161.898C72.9155 157.631 68.1874 154.183 62.9258 151.754L62.4955 151.572L62.3521 151.505C61.3797 151.104 60.3873 150.753 59.3786 150.454L58.7285 150.272C57.7309 150.007 56.7189 149.8 55.6976 149.65L54.6363 149.517H54.5216H54.3113C53.6898 149.459 53.0683 149.421 52.4564 149.402H51.8158C50.0333 149.406 48.2556 149.589 46.5094 149.947L46.1652 149.727ZM61.8645 153.408H61.9219H61.8645ZM69.7429 158.102L69.8672 158.198L69.7429 158.102ZM33.7931 158.102L33.7071 158.169L33.7931 158.102ZM23.2759 168.916V168.973V168.916ZM96.8294 198.422C96.8294 198.422 96.8294 198.422 96.8294 198.469C96.8294 198.517 96.8294 198.469 96.8294 198.422ZM6.80217 198.402C6.80618 198.358 6.80618 198.313 6.80217 198.269V198.402Z" fill="#DE4238"/>
<path d="M106.936 127.823C104.071 128.68 101.337 129.925 98.8087 131.523C96.4251 133.025 94.1847 134.744 92.1159 136.657C89.9565 138.65 87.9375 140.791 86.0733 143.063C82.3823 147.592 79.0905 152.432 76.235 157.529C76.1207 157.747 76.0952 158.002 76.1639 158.238C76.2326 158.475 76.3902 158.676 76.6037 158.8C76.8172 158.923 77.0701 158.959 77.3097 158.901C77.5492 158.842 77.7567 158.693 77.889 158.485C80.2487 154.287 82.8972 150.259 85.8152 146.428C88.9199 142.317 92.527 138.61 96.5523 135.395L96.3611 135.548C98.8202 133.624 101.512 132.018 104.373 130.767C106.556 129.846 108.847 129.204 111.19 128.855C113.327 128.592 115.488 128.592 117.625 128.855C119.974 129.208 122.27 129.85 124.461 130.767C127.289 132.003 129.952 133.586 132.387 135.481C136.353 138.651 139.911 142.299 142.981 146.342V146.342C143.01 146.386 143.042 146.428 143.077 146.467V146.467C146.568 151.077 149.692 155.956 152.418 161.057C152.418 161.057 152.418 161.143 152.485 161.191C155.076 165.971 157.38 170.914 159.503 175.924C160.14 177.397 160.739 178.869 161.3 180.342C161.326 180.394 161.349 180.448 161.367 180.504C162.317 182.914 163.225 185.339 164.092 187.78C164.092 187.78 164.092 187.78 164.092 187.828C164.264 188.306 164.436 188.784 164.599 189.262C164.713 189.578 164.819 189.884 164.924 190.218C165.172 190.935 165.421 191.662 165.66 192.379V192.436C166.463 194.855 167.238 197.274 167.983 199.712C168.079 199.999 168.165 200.296 168.251 200.582C168.337 200.869 168.404 201.099 168.49 201.357C168.576 201.615 168.653 201.911 168.729 202.189C168.762 202.31 168.819 202.423 168.896 202.523C168.973 202.622 169.069 202.705 169.178 202.767C169.288 202.829 169.408 202.869 169.533 202.885C169.657 202.9 169.784 202.891 169.905 202.858C170.026 202.825 170.14 202.768 170.239 202.691C170.338 202.614 170.421 202.518 170.483 202.409C170.545 202.299 170.585 202.179 170.601 202.054C170.617 201.93 170.608 201.803 170.574 201.682L170.316 200.802L170.125 200.181C170.029 199.856 169.934 199.531 169.829 199.225C169.092 196.787 168.308 194.368 167.505 191.958C167.362 191.519 167.209 191.079 167.065 190.639L166.779 189.807C166.779 189.712 166.712 189.606 166.673 189.511L166.587 189.272C166.587 189.147 166.511 189.033 166.463 188.918L166.406 188.736C166.385 188.655 166.359 188.575 166.329 188.497V188.497C165.399 185.839 164.423 183.2 163.404 180.581C160.703 173.584 157.574 166.76 154.034 160.149C154.034 160.149 154.034 160.149 154.034 160.101C151.25 154.927 148.053 149.987 144.473 145.329C140.967 140.66 136.795 136.53 132.091 133.072C129.693 131.349 127.092 129.93 124.346 128.846C121.595 127.772 118.69 127.146 115.741 126.991C115.311 126.991 114.871 126.991 114.441 126.991C111.911 127.005 109.395 127.368 106.964 128.071L106.936 127.823ZM159.464 176.03C159.461 176.068 159.461 176.106 159.464 176.144C159.461 176.106 159.461 176.068 159.464 176.03ZM143.067 146.658L143 146.572L143.067 146.667" fill="#DE4238"/>
<path d="M617.708 267.816L619.123 264.527C620.398 261.563 621.673 258.602 622.948 255.645L637.548 241.638L646.956 234.276L665.514 234.725L683.68 248.78L702.611 281.699L709.705 307.437L709.954 308.269L641.066 308.546L627.231 280.59L617.708 267.816Z" fill="white"/>
<path d="M619.085 264.575L617.326 267.424L617.709 267.816" fill="white"/>
<path d="M658.496 307.925H547.004C546.75 307.925 546.507 308.026 546.328 308.205C546.149 308.384 546.048 308.627 546.048 308.881C546.048 309.134 546.149 309.378 546.328 309.557C546.507 309.736 546.75 309.837 547.004 309.837H711.818C712.072 309.837 712.315 309.736 712.495 309.557C712.674 309.378 712.775 309.134 712.775 308.881C712.775 308.627 712.674 308.384 712.495 308.205C712.315 308.026 712.072 307.925 711.818 307.925H658.496Z" fill="#DE4238"/>
<path d="M587.381 255.817C586.97 255.903 586.558 255.989 586.147 256.094C585.211 256.326 584.288 256.61 583.384 256.945C581.035 257.807 578.79 258.93 576.691 260.292C575.214 261.232 573.8 262.267 572.456 263.39H572.398L572.303 263.466C571.691 263.982 571.089 264.499 570.505 265.034C567.685 267.62 565.097 270.448 562.77 273.486L562.694 273.591L562.627 273.677C561.671 274.92 560.715 276.192 559.845 277.502C559.82 277.532 559.798 277.564 559.778 277.597V277.645C559.529 277.999 559.281 278.353 559.042 278.716C558.009 280.246 557.018 281.804 556.068 283.391L555.953 283.573L555.791 283.841C555.724 283.965 555.647 284.089 555.571 284.214C553.515 287.675 551.632 291.251 549.882 294.884C549.834 294.979 549.786 295.075 549.748 295.171C549.299 296.127 548.849 297.083 548.41 298.039C547.281 300.519 546.201 303.011 545.168 305.516C545.134 305.639 545.125 305.767 545.142 305.894C545.158 306.02 545.2 306.142 545.264 306.252C545.388 306.472 545.595 306.633 545.838 306.701C545.961 306.734 546.09 306.741 546.216 306.723C546.343 306.705 546.464 306.662 546.574 306.596C546.788 306.472 546.945 306.27 547.014 306.032C547.272 305.411 547.52 304.799 547.779 304.187C547.779 304.187 547.779 304.254 547.779 304.292C548.486 302.609 549.213 300.946 549.968 299.282C550.456 298.202 550.924 297.121 551.479 296.05C554.954 288.57 559.19 281.467 564.118 274.853C565.666 272.854 567.319 270.939 569.071 269.117C570.855 267.255 572.772 265.527 574.808 263.944C577.124 262.156 579.64 260.642 582.304 259.431L582.409 259.383L582.562 259.317H582.638C583.946 258.775 585.292 258.327 586.664 257.978C589.701 257.183 592.865 256.991 595.976 257.414H596.091C598.104 257.717 600.079 258.236 601.98 258.963L602.86 259.317C605.645 260.551 608.271 262.118 610.681 263.982C614.683 267.184 618.27 270.871 621.361 274.958C626.545 281.89 630.975 289.355 634.574 297.226L634.708 297.504L634.823 297.743L635.024 298.163V298.221L636.056 300.477C636.056 300.477 636.056 300.544 636.056 300.582C636.056 300.62 636.2 300.888 636.267 301.051C636.697 302.007 637.127 302.963 637.548 303.996C637.55 304.037 637.55 304.078 637.548 304.12V304.12V304.168C637.959 305.124 638.36 306.08 638.752 307.084C638.915 307.476 639.068 307.877 639.23 308.269C639.301 308.506 639.453 308.709 639.661 308.843C639.888 308.969 640.155 309.004 640.406 308.939C640.644 308.865 640.848 308.709 640.98 308.499C641.043 308.388 641.083 308.266 641.097 308.139C641.112 308.013 641.102 307.885 641.066 307.763C640.942 307.428 640.808 307.093 640.674 306.759V306.682L640.531 306.328L640.464 306.156C640.469 306.125 640.469 306.092 640.464 306.061C640.464 305.984 640.397 305.898 640.359 305.822V305.736C639.326 303.231 638.252 300.751 637.137 298.297V298.202C637.041 298.001 636.945 297.8 636.859 297.59C636.773 297.379 636.601 297.045 636.477 296.777L636.286 296.375C635.884 295.515 635.473 294.664 635.052 293.813C634.985 293.66 634.909 293.517 634.832 293.373V293.306L634.622 292.876V292.828L634.393 292.369L634.144 291.901C632.49 288.66 630.721 285.476 628.809 282.34C626.896 279.227 624.812 276.224 622.565 273.343V273.295L622.279 272.932L622.202 272.826C622.116 272.721 622.03 272.626 621.954 272.52L621.829 272.367L621.399 271.985L621.227 271.784L621.055 271.564L620.854 271.325L620.711 271.153L620.462 270.866L620.357 270.742L620.07 270.407L620.003 270.331L619.668 269.948C619.028 269.222 618.378 268.514 617.756 267.816C613.825 263.532 609.08 260.073 603.797 257.643L603.367 257.462L603.214 257.404C602.246 256.991 601.253 256.64 600.24 256.353L599.59 256.161C598.596 255.896 597.587 255.692 596.569 255.549C596.215 255.492 595.852 255.444 595.498 255.406H595.393H595.173C594.561 255.339 593.94 255.301 593.318 255.282H592.716C590.936 255.289 589.161 255.475 587.419 255.836L587.381 255.817ZM602.717 259.288H602.65H602.717ZM610.528 263.982L610.662 264.088L610.528 263.982ZM574.578 263.982L574.502 264.049L574.578 263.982ZM564.061 274.786C564.058 274.805 564.058 274.825 564.061 274.844C564.058 274.825 564.058 274.805 564.061 274.786ZM547.587 304.235L547.645 304.11L547.587 304.235Z" fill="#DE4238"/>
<path d="M648.17 233.912C645.302 234.765 642.564 236.007 640.034 237.603C637.65 239.105 635.409 240.824 633.341 242.737C631.178 244.731 629.156 246.871 627.289 249.143C623.6 253.672 620.311 258.512 617.46 263.609C617.381 263.717 617.326 263.841 617.298 263.972C617.27 264.103 617.27 264.238 617.298 264.369C617.325 264.5 617.38 264.623 617.458 264.732C617.537 264.84 617.637 264.931 617.753 264.998C617.868 265.065 617.997 265.108 618.13 265.122C618.263 265.137 618.397 265.123 618.525 265.082C618.652 265.041 618.769 264.974 618.869 264.885C618.969 264.796 619.049 264.687 619.104 264.565C621.475 260.375 624.123 256.347 627.031 252.509C630.133 248.398 633.74 244.695 637.768 241.485L637.576 241.628C640.038 239.708 642.73 238.102 645.589 236.848C647.772 235.927 650.062 235.284 652.406 234.936C654.545 234.668 656.71 234.668 658.85 234.936C661.197 235.284 663.49 235.926 665.676 236.848C668.502 238.087 671.165 239.67 673.603 241.561C677.573 244.732 681.135 248.384 684.206 252.432C684.241 252.471 684.273 252.513 684.301 252.557C687.789 257.168 690.909 262.047 693.633 267.147L693.71 267.281C696.291 272.061 698.605 276.995 700.718 282.014C701.355 283.48 701.954 284.953 702.515 286.432L702.573 286.594C703.529 289.004 704.428 291.432 705.298 293.88L705.804 295.314C705.91 295.629 706.024 295.945 706.129 296.27C706.378 296.997 706.627 297.714 706.866 298.431C706.866 298.431 706.866 298.431 706.866 298.488C707.675 300.904 708.453 303.329 709.198 305.764L709.457 306.634C709.543 306.892 709.619 307.151 709.696 307.409C709.772 307.667 709.858 307.963 709.944 308.241C709.981 308.494 710.117 308.723 710.322 308.876C710.528 309.029 710.785 309.095 711.039 309.058C711.293 309.021 711.521 308.885 711.675 308.68C711.828 308.475 711.893 308.217 711.856 307.963C711.87 307.887 711.87 307.81 711.856 307.734L711.598 306.854C711.541 306.644 711.474 306.443 711.417 306.242C711.359 306.041 711.216 305.583 711.12 305.286V305.238C710.374 302.81 709.597 300.388 708.787 297.972C708.786 297.956 708.786 297.94 708.787 297.924L708.338 296.605C708.242 296.327 708.156 296.06 708.051 295.782C708.051 295.677 707.984 295.582 707.956 295.476L707.869 295.237C707.869 295.123 707.784 295.008 707.745 294.884C707.707 294.759 707.745 294.769 707.678 294.702L707.592 294.463C706.636 291.805 705.68 289.176 704.657 286.556C701.964 279.554 698.838 272.727 695.297 266.114V266.114C692.513 260.937 689.316 255.994 685.736 251.333C682.231 246.666 678.063 242.537 673.364 239.075C670.965 237.352 668.36 235.936 665.609 234.859C662.859 233.781 659.954 233.152 657.005 232.995C656.574 232.995 656.144 232.995 655.704 232.995C653.176 233.007 650.663 233.374 648.237 234.085L648.17 233.912ZM700.727 282.043V282.158V282.043ZM684.34 252.662L684.282 252.585L684.349 252.671" fill="#DE4238"/>
<path d="M-126.843 687.797C-95.9572 753.839 -50.5882 812.074 5.89379 858.175C6.12326 857.716 6.36227 857.276 6.59173 856.808C32.2856 817.391 57.9699 777.977 83.6446 738.566L-22.0628 527.084" fill="#EF6059"/>
<path d="M577.982 886.993L320.836 376.43L5.8938 858.176C85.7462 923.291 184.307 961.204 287.213 966.387C390.119 971.571 491.991 943.755 577.982 886.993V886.993Z" fill="#DE4238"/>
<path d="M496.292 725.639L577.982 886.993L582.189 884.124C636.044 847.667 682.033 800.771 717.431 746.215L615.662 544.868L496.292 725.639Z" fill="#EF6059"/>
</g>
</svg>
