<svg width="650" height="967" viewBox="0 0 650 967" fill="none" xmlns="http://www.w3.org/2000/svg">
<g opacity="0.8">
<path d="M166.495 966.99C433.522 966.99 649.99 750.522 649.99 483.495C649.99 216.468 433.522 0 166.495 0C-100.532 0 -317 216.468 -317 483.495C-317 750.522 -100.532 966.99 166.495 966.99Z" fill="#FCDEDE"/>
<path d="M174.88 376.659L58.6459 553.54C19.082 613.711 -20.4595 673.888 -59.9787 734.072C-85.1945 772.438 -110.41 810.803 -135.626 849.169L-135.875 849.551L-137.577 852.152C-137.693 852.363 -137.725 852.61 -137.666 852.844C-137.608 853.078 -137.463 853.281 -137.261 853.413C-137.059 853.545 -136.815 853.595 -136.578 853.555C-136.34 853.514 -136.127 853.385 -135.98 853.194C-135.291 852.152 -134.603 851.11 -133.924 850.068C-97.4646 794.613 -61.0113 739.159 -24.5644 683.704L95.4847 500.935C117.412 467.547 139.361 434.153 161.332 400.753L175.569 379.069C207.598 442.809 239.625 506.55 271.648 570.291L366.303 758.51C386.891 799.477 407.479 840.44 428.068 881.399L428.24 881.743C428.24 881.743 428.24 881.743 428.24 881.801C428.412 882.155 428.593 882.508 428.775 882.862C429.616 884.545 430.461 886.228 431.309 887.91C431.902 887.69 432.504 887.48 433.116 887.298L431.586 884.239C431.213 883.493 430.84 882.747 430.458 882.002C403.553 828.46 376.632 774.901 349.695 721.327C317.921 658.141 286.155 594.949 254.4 531.75C228.445 480.12 202.486 428.471 176.525 376.803C176.461 376.676 176.369 376.565 176.257 376.478H176.2C176.094 376.408 175.976 376.36 175.852 376.336C175.728 376.313 175.601 376.314 175.477 376.339C175.354 376.365 175.237 376.415 175.132 376.487C175.028 376.558 174.939 376.649 174.871 376.755" fill="#E46A00"/>
<path d="M469.821 545.288L432.351 602.311L394.413 660.031C381.83 679.153 369.251 698.298 356.675 717.465L351.292 725.639C351.221 725.744 351.17 725.862 351.145 725.987C351.12 726.111 351.119 726.239 351.144 726.363C351.168 726.488 351.217 726.606 351.288 726.712C351.359 726.817 351.45 726.907 351.556 726.977C351.662 727.047 351.781 727.095 351.905 727.118C352.03 727.142 352.158 727.14 352.282 727.113C352.406 727.087 352.524 727.036 352.628 726.963C352.732 726.891 352.821 726.798 352.889 726.691L390.626 669.325C403.343 649.967 416.062 630.612 428.785 611.26L466.216 554.295L470.519 547.765C470.519 547.765 470.519 547.841 470.567 547.879C480.702 568.028 490.827 588.17 500.942 608.306L533.01 672.116C533.393 672.862 533.766 673.608 534.139 674.363C534.255 674.589 534.457 674.759 534.699 674.836C534.941 674.913 535.204 674.891 535.429 674.774C535.655 674.658 535.825 674.456 535.902 674.214C535.979 673.972 535.957 673.709 535.84 673.484L503.772 609.692C493.485 589.199 483.191 568.713 472.89 548.233L472.259 546.99L472.097 546.656L471.485 545.441C471.403 545.287 471.28 545.159 471.13 545.069C470.98 544.98 470.808 544.933 470.634 544.935C470.475 544.933 470.319 544.97 470.179 545.044C470.039 545.117 469.919 545.224 469.831 545.355" fill="#E46A00"/>
<path d="M174.88 377.358V379.566H175.253C175.443 379.568 175.633 379.593 175.817 379.643C176.124 379.736 176.41 379.889 176.658 380.092C176.746 379.945 176.792 379.776 176.792 379.605V377.386C176.792 377.133 176.692 376.89 176.512 376.71C176.333 376.531 176.09 376.43 175.836 376.43C175.583 376.43 175.339 376.531 175.16 376.71C174.981 376.89 174.88 377.133 174.88 377.386" fill="#2C2C2C"/>
<path d="M240.307 278.735L240.183 277.004H176.496L176.467 303.842H240.928L241.005 301.968L220.812 291.174L240.307 278.735Z" fill="#DE4238"/>
<path d="M174.88 277.894V379.576C175.004 379.562 175.129 379.562 175.253 379.576C175.444 379.577 175.633 379.603 175.817 379.652C176.176 379.762 176.503 379.956 176.773 380.216V277.913C176.773 277.659 176.672 277.416 176.493 277.237C176.314 277.057 176.071 276.957 175.817 276.957C175.564 276.957 175.32 277.057 175.141 277.237C174.962 277.416 174.861 277.659 174.861 277.913" fill="black"/>
<path d="M-68.5834 162.032L-67.1684 158.753L-63.3439 149.861L-48.7441 135.864L-39.336 128.501L-20.7779 128.941L-2.61182 142.996L16.3191 175.915L23.4135 201.663L23.6525 202.485L-45.2352 202.763L-59.0223 174.806L-68.5834 162.032Z" fill="white"/>
<path d="M-27.7096 201.845H-139.202C-139.455 201.845 -139.698 201.945 -139.878 202.125C-140.057 202.304 -140.158 202.547 -140.158 202.801C-140.158 203.054 -140.057 203.298 -139.878 203.477C-139.698 203.656 -139.455 203.757 -139.202 203.757H25.6031C25.8566 203.757 26.0998 203.656 26.2791 203.477C26.4584 203.298 26.5592 203.054 26.5592 202.801C26.5592 202.547 26.4584 202.304 26.2791 202.125C26.0998 201.945 25.8566 201.845 25.6031 201.845H-27.7096Z" fill="#DE4238"/>
<path d="M401.048 308.881L401.928 306.156L409.491 286.049L427.293 263.514L438.375 256.945L455.24 256.372L472.708 267.816L482.231 280.542L495.32 305.697L494.766 308.891L401.048 308.881Z" fill="white"/>
<path d="M-38.0643 127.823C-40.9291 128.68 -43.6633 129.925 -46.1913 131.523C-48.5749 133.025 -50.8153 134.744 -52.8841 136.657C-55.0435 138.65 -57.0625 140.791 -58.9267 143.063C-62.6177 147.592 -65.9095 152.432 -68.765 157.529C-68.8793 157.747 -68.9048 158.002 -68.8361 158.238C-68.7674 158.475 -68.6098 158.676 -68.3963 158.8C-68.1828 158.923 -67.9299 158.959 -67.6903 158.901C-67.4508 158.842 -67.2433 158.693 -67.111 158.485C-64.7513 154.287 -62.1028 150.259 -59.1848 146.428C-56.0801 142.317 -52.473 138.61 -48.4477 135.395L-48.6389 135.548C-46.1798 133.624 -43.4879 132.018 -40.6267 130.767C-38.4436 129.846 -36.1532 129.204 -33.8096 128.855C-31.6728 128.592 -29.5119 128.592 -27.375 128.855C-25.0261 129.208 -22.7299 129.85 -20.5388 130.767C-17.711 132.003 -15.0484 133.586 -12.6127 135.481C-8.64721 138.651 -5.08894 142.299 -2.01897 146.342C-1.99016 146.386 -1.95823 146.428 -1.92339 146.467C1.56842 151.077 4.69183 155.956 7.41782 161.057C7.41782 161.057 7.41783 161.143 7.48476 161.191C10.0758 165.971 12.3801 170.914 14.5026 175.924C15.14 177.397 15.7392 178.869 16.3001 180.342C16.3265 180.394 16.3488 180.448 16.367 180.504C17.3167 182.914 18.2251 185.339 19.0919 187.78C19.0919 187.78 19.0919 187.78 19.0919 187.828C19.2641 188.306 19.4361 188.784 19.5987 189.262C19.7134 189.578 19.8186 189.884 19.9238 190.218C20.1724 190.935 20.421 191.662 20.66 192.379V192.436C21.4631 194.855 22.2376 197.274 22.9833 199.712C23.0789 199.999 23.165 200.296 23.251 200.582C23.3371 200.869 23.404 201.099 23.49 201.357C23.5761 201.615 23.6526 201.911 23.7291 202.189C23.7623 202.31 23.8191 202.423 23.8963 202.523C23.9734 202.622 24.0693 202.705 24.1785 202.767C24.2877 202.829 24.4081 202.869 24.5327 202.885C24.6574 202.9 24.784 202.891 24.9051 202.858C25.0263 202.825 25.1396 202.768 25.2389 202.691C25.3381 202.614 25.4212 202.518 25.4833 202.409C25.5455 202.299 25.5854 202.179 25.6011 202.054C25.6167 201.93 25.6076 201.803 25.5743 201.682L25.3162 200.802L25.125 200.181C25.0294 199.856 24.9338 199.531 24.8286 199.225C24.0924 196.787 23.3084 194.368 22.5053 191.958C22.3619 191.519 22.2089 191.079 22.0654 190.639L21.7786 189.807C21.7786 189.712 21.7117 189.606 21.6735 189.511L21.5874 189.272C21.5874 189.147 21.5109 189.033 21.4631 188.918L21.4057 188.736C21.3846 188.655 21.359 188.575 21.3292 188.497C20.3986 185.839 19.4234 183.2 18.4035 180.581C15.7032 173.584 12.574 166.76 9.03365 160.149C9.03365 160.149 9.03365 160.149 9.03365 160.101C6.2504 154.927 3.05293 149.987 -0.527451 145.329C-4.03315 140.66 -8.20478 136.53 -12.9091 133.072C-15.3066 131.349 -17.9078 129.93 -20.6536 128.846C-23.4045 127.772 -26.3096 127.146 -29.2585 126.991C-29.6888 126.991 -30.1286 126.991 -30.5588 126.991C-33.089 127.005 -35.6051 127.368 -38.0356 128.071L-38.0643 127.823ZM14.4644 176.03C14.4606 176.068 14.4606 176.106 14.4644 176.144C14.4606 176.106 14.4606 176.068 14.4644 176.03ZM-1.9329 146.658L-1.99983 146.572L-1.9329 146.667" fill="#DE4238"/>
<path d="M472.708 267.816L474.123 264.527C475.398 261.563 476.673 258.602 477.948 255.645L492.548 241.638L501.956 234.276L520.514 234.725L538.68 248.78L557.611 281.699L564.705 307.437L564.954 308.269L496.066 308.546L482.231 280.59L472.708 267.816Z" fill="white"/>
<path d="M474.085 264.575L472.326 267.424L472.709 267.816" fill="white"/>
<path d="M513.496 307.925H402.004C401.75 307.925 401.507 308.026 401.328 308.205C401.149 308.384 401.048 308.627 401.048 308.881C401.048 309.134 401.149 309.378 401.328 309.557C401.507 309.736 401.75 309.837 402.004 309.837H566.818C567.072 309.837 567.315 309.736 567.495 309.557C567.674 309.378 567.775 309.134 567.775 308.881C567.775 308.627 567.674 308.384 567.495 308.205C567.315 308.026 567.072 307.925 566.818 307.925H513.496Z" fill="#DE4238"/>
<path d="M442.381 255.817C441.97 255.903 441.558 255.989 441.147 256.094C440.211 256.326 439.288 256.61 438.384 256.945C436.035 257.807 433.79 258.93 431.691 260.292C430.214 261.232 428.8 262.267 427.456 263.39H427.398L427.303 263.466C426.691 263.982 426.089 264.499 425.505 265.034C422.685 267.62 420.097 270.448 417.77 273.486L417.694 273.591L417.627 273.677C416.671 274.92 415.715 276.192 414.845 277.502C414.82 277.532 414.798 277.564 414.778 277.597V277.645C414.529 277.999 414.281 278.353 414.042 278.716C413.009 280.246 412.018 281.804 411.068 283.391L410.953 283.573L410.791 283.841C410.724 283.965 410.647 284.089 410.571 284.214C408.515 287.675 406.632 291.251 404.882 294.884C404.834 294.979 404.786 295.075 404.748 295.171C404.299 296.127 403.849 297.083 403.41 298.039C402.281 300.519 401.201 303.011 400.168 305.516C400.134 305.639 400.125 305.767 400.142 305.894C400.158 306.02 400.2 306.142 400.264 306.252C400.388 306.472 400.595 306.633 400.838 306.701C400.961 306.734 401.09 306.741 401.216 306.723C401.343 306.705 401.464 306.662 401.574 306.596C401.788 306.472 401.945 306.27 402.014 306.032C402.272 305.411 402.52 304.799 402.779 304.187C402.779 304.187 402.779 304.254 402.779 304.292C403.486 302.609 404.213 300.946 404.968 299.282C405.456 298.202 405.924 297.121 406.479 296.05C409.954 288.57 414.19 281.467 419.118 274.853C420.666 272.854 422.319 270.939 424.071 269.117C425.855 267.255 427.772 265.527 429.808 263.944C432.124 262.156 434.64 260.642 437.304 259.431L437.409 259.383L437.562 259.317H437.638C438.946 258.775 440.292 258.327 441.664 257.978C444.701 257.183 447.865 256.991 450.976 257.414H451.091C453.104 257.717 455.079 258.236 456.98 258.963L457.86 259.317C460.645 260.551 463.271 262.118 465.681 263.982C469.683 267.184 473.27 270.871 476.361 274.958C481.545 281.89 485.975 289.355 489.574 297.226L489.708 297.504L489.823 297.743L490.024 298.163V298.221L491.056 300.477C491.056 300.477 491.056 300.544 491.056 300.582C491.056 300.62 491.2 300.888 491.267 301.051C491.697 302.007 492.127 302.963 492.548 303.996C492.55 304.037 492.55 304.078 492.548 304.12V304.168C492.959 305.124 493.36 306.08 493.752 307.084C493.915 307.476 494.068 307.877 494.23 308.269C494.301 308.506 494.453 308.709 494.661 308.843C494.888 308.969 495.155 309.004 495.406 308.939C495.644 308.865 495.848 308.709 495.98 308.499C496.043 308.388 496.083 308.266 496.097 308.139C496.112 308.013 496.102 307.885 496.066 307.763C495.942 307.428 495.808 307.093 495.674 306.759V306.682L495.531 306.328L495.464 306.156C495.469 306.125 495.469 306.092 495.464 306.061C495.464 305.984 495.397 305.898 495.359 305.822V305.736C494.326 303.231 493.252 300.751 492.137 298.297V298.202C492.041 298.001 491.945 297.8 491.859 297.59C491.773 297.379 491.601 297.045 491.477 296.777L491.286 296.375C490.884 295.515 490.473 294.664 490.052 293.813C489.985 293.66 489.909 293.517 489.832 293.373V293.306L489.622 292.876V292.828L489.393 292.369L489.144 291.901C487.49 288.66 485.721 285.476 483.809 282.34C481.896 279.227 479.812 276.224 477.565 273.343V273.295L477.279 272.932L477.202 272.826C477.116 272.721 477.03 272.626 476.954 272.52L476.829 272.367L476.399 271.985L476.227 271.784L476.055 271.564L475.854 271.325L475.711 271.153L475.462 270.866L475.357 270.742L475.07 270.407L475.003 270.331L474.668 269.948C474.028 269.222 473.378 268.514 472.756 267.816C468.825 263.532 464.08 260.073 458.797 257.643L458.367 257.462L458.214 257.404C457.246 256.991 456.253 256.64 455.24 256.353L454.59 256.161C453.596 255.896 452.587 255.692 451.569 255.549C451.215 255.492 450.852 255.444 450.498 255.406H450.393H450.173C449.561 255.339 448.94 255.301 448.318 255.282H447.716C445.936 255.289 444.161 255.475 442.419 255.836L442.381 255.817ZM457.717 259.288H457.65H457.717ZM465.528 263.982L465.662 264.088L465.528 263.982ZM429.578 263.982L429.502 264.049L429.578 263.982ZM419.061 274.786C419.058 274.805 419.058 274.825 419.061 274.844C419.058 274.825 419.058 274.805 419.061 274.786ZM402.587 304.235L402.645 304.11L402.587 304.235Z" fill="#DE4238"/>
<path d="M503.17 233.912C500.302 234.765 497.564 236.007 495.034 237.603C492.65 239.105 490.409 240.824 488.341 242.737C486.178 244.731 484.156 246.871 482.289 249.143C478.6 253.672 475.311 258.512 472.46 263.609C472.381 263.717 472.326 263.841 472.298 263.972C472.27 264.103 472.27 264.238 472.298 264.369C472.325 264.5 472.38 264.623 472.458 264.732C472.537 264.84 472.637 264.931 472.753 264.998C472.868 265.065 472.997 265.108 473.13 265.122C473.263 265.137 473.397 265.123 473.525 265.082C473.652 265.041 473.769 264.974 473.869 264.885C473.969 264.796 474.049 264.687 474.104 264.565C476.475 260.375 479.123 256.347 482.031 252.509C485.133 248.398 488.74 244.695 492.768 241.485L492.576 241.628C495.038 239.708 497.73 238.102 500.589 236.848C502.772 235.927 505.062 235.284 507.406 234.936C509.545 234.668 511.71 234.668 513.85 234.936C516.197 235.284 518.49 235.926 520.676 236.848C523.502 238.087 526.165 239.67 528.603 241.561C532.573 244.732 536.135 248.384 539.206 252.432C539.241 252.471 539.273 252.513 539.301 252.557C542.789 257.168 545.909 262.047 548.633 267.147L548.71 267.281C551.291 272.061 553.605 276.995 555.718 282.014C556.355 283.48 556.954 284.953 557.515 286.432L557.573 286.594C558.529 289.004 559.428 291.432 560.298 293.88L560.804 295.314C560.91 295.629 561.024 295.945 561.129 296.27C561.378 296.997 561.627 297.714 561.866 298.431C561.866 298.431 561.866 298.431 561.866 298.488C562.675 300.904 563.453 303.329 564.198 305.764L564.457 306.634C564.543 306.892 564.619 307.151 564.696 307.409C564.772 307.667 564.858 307.963 564.944 308.241C564.981 308.494 565.117 308.723 565.322 308.876C565.528 309.029 565.785 309.095 566.039 309.058C566.293 309.021 566.521 308.885 566.675 308.68C566.828 308.475 566.893 308.217 566.856 307.963C566.87 307.887 566.87 307.81 566.856 307.734L566.598 306.854C566.541 306.644 566.474 306.443 566.417 306.242C566.359 306.041 566.216 305.583 566.12 305.286V305.238C565.374 302.81 564.597 300.388 563.787 297.972C563.786 297.956 563.786 297.94 563.787 297.924L563.338 296.605C563.242 296.327 563.156 296.06 563.051 295.782C563.051 295.677 562.984 295.582 562.956 295.476L562.869 295.237C562.869 295.123 562.784 295.008 562.745 294.884C562.707 294.759 562.745 294.769 562.678 294.702L562.592 294.463C561.636 291.805 560.68 289.176 559.657 286.556C556.964 279.554 553.838 272.727 550.297 266.114C547.513 260.937 544.316 255.994 540.736 251.333C537.231 246.666 533.063 242.537 528.364 239.075C525.965 237.352 523.36 235.936 520.609 234.859C517.859 233.781 514.954 233.152 512.005 232.995C511.574 232.995 511.144 232.995 510.704 232.995C508.176 233.007 505.663 233.374 503.237 234.085L503.17 233.912ZM555.727 282.043V282.158V282.043ZM539.34 252.662L539.282 252.585L539.349 252.671" fill="#DE4238"/>
<path d="M432.982 886.993L175.836 376.43L-139.106 858.176C-59.2538 923.291 39.3073 961.204 142.213 966.387C245.119 971.571 346.991 943.755 432.982 886.993Z" fill="#DE4238"/>
<path d="M351.292 725.639L432.982 886.993L437.189 884.124C491.044 847.667 537.033 800.771 572.431 746.215L470.662 544.868L351.292 725.639Z" fill="#EF6059"/>
</g>
</svg>
