<?xml version="1.0" encoding="utf-8"?>
<!-- Generator: Adobe Illustrator 24.0.3, SVG Export Plug-In . SVG Version: 6.00 Build 0)  -->
<svg version="1.1" id="Layer_1" xmlns="http://www.w3.org/2000/svg" xmlns:xlink="http://www.w3.org/1999/xlink" x="0px" y="0px"
	 viewBox="0 0 967 967" style="enable-background:new 0 0 967 967;" xml:space="preserve">
<style type="text/css">
	.st0{opacity:0.8;}
	.st1{fill:#FCDEDE;}
	.st2{display:none;fill:#E46A00;}
	.st3{clip-path:url(#SVGID_2_);fill:#D34444;}
	.st4{clip-path:url(#SVGID_4_);fill:#EF6059;}
	.st5{clip-path:url(#SVGID_6_);fill:#D34A4A;}
	.st6{clip-path:url(#SVGID_8_);fill:#EF6059;}
	.st7{clip-path:url(#SVGID_10_);fill:#CC332F;}
	.st8{clip-path:url(#SVGID_12_);fill:#DE4238;}
	.st9{fill:#FFFFFF;}
	.st10{clip-path:url(#SVGID_14_);fill:#F7F7F7;}
	.st11{clip-path:url(#SVGID_16_);fill:#F7F7F7;}
	.st12{clip-path:url(#SVGID_18_);fill:#F7F7F7;}
	.st13{fill:#F7F7F7;}
	.st14{fill:#DE4238;}
	.st15{fill:#606060;}
</style>
<g class="st0">
	<path class="st1" d="M483.5,967c267,0,483.5-216.5,483.5-483.5S750.5,0,483.5,0S0,216.5,0,483.5S216.5,967,483.5,967z"/>
	<path class="st2" d="M491.9,376.7L375.6,553.5C336,613.7,296.5,673.8,257,734c-25.2,38.4-50.4,76.7-75.6,115.1l-0.2,0.4l-1.7,2.6
		c-0.1,0.2-0.1,0.5-0.1,0.7c0.1,0.2,0.2,0.4,0.4,0.6c0.2,0.1,0.4,0.2,0.7,0.1c0.2,0,0.5-0.2,0.6-0.4c0.7-1,1.4-2.1,2.1-3.1
		c36.5-55.5,72.9-110.9,109.4-166.4l120-182.8c21.9-33.4,43.9-66.8,65.8-100.2l14.2-21.7c32,63.7,64.1,127.5,96.1,191.2l94.7,188.2
		c20.6,41,41.2,81.9,61.8,122.9l0.2,0.3c0,0,0,0,0,0.1c0.2,0.4,0.4,0.7,0.5,1.1c0.8,1.7,1.7,3.4,2.5,5c0.6-0.2,1.2-0.4,1.8-0.6
		l-1.5-3.1c-0.4-0.7-0.7-1.5-1.1-2.2c-26.9-53.5-53.8-107.1-80.8-160.7c-31.8-63.2-63.5-126.4-95.3-189.6
		c-26-51.6-51.9-103.3-77.9-154.9c-0.1-0.1-0.2-0.2-0.3-0.3h-0.1c-0.1-0.1-0.2-0.1-0.3-0.1c-0.1,0-0.3,0-0.4,0s-0.2,0.1-0.3,0.1
		C492,376.6,491.9,376.6,491.9,376.7"/>
	<path class="st2" d="M182.3,847.6c-1.7,2.6-3.4,5.2-5.1,7.8l-0.3,0.4l1.7,0.9l0.3-0.4l5.1-7.7c0.1-0.1,0.1-0.3,0.2-0.5
		c0-0.2,0-0.3-0.1-0.5s-0.2-0.3-0.3-0.4c-0.1-0.1-0.3-0.1-0.5-0.1s-0.3,0-0.5,0.1C182.5,847.4,182.4,847.5,182.3,847.6z"/>
	<path class="st2" d="M786.8,545.3l-37.5,57L711.4,660c-12.6,19.1-25.2,38.3-37.7,57.4l-5.4,8.2c-0.1,0.1-0.1,0.2-0.1,0.3
		s0,0.3,0,0.4c0,0.1,0.1,0.2,0.1,0.3c0.1,0.1,0.2,0.2,0.3,0.3s0.2,0.1,0.3,0.1s0.3,0,0.4,0c0.1,0,0.2-0.1,0.3-0.1
		c0.1-0.1,0.2-0.2,0.3-0.3l37.7-57.4c12.7-19.4,25.4-38.7,38.2-58.1l37.4-57l4.3-6.5v0.1c10.1,20.1,20.3,40.3,30.4,60.4l32.1,63.8
		c0.4,0.7,0.8,1.5,1.1,2.2c0.1,0.2,0.3,0.4,0.6,0.5s0.5,0.1,0.7-0.1c0.2-0.1,0.4-0.3,0.5-0.6c0.1-0.2,0.1-0.5-0.1-0.7l-32.1-63.8
		c-10.3-20.5-20.6-41-30.9-61.5l-0.6-1.2l-0.2-0.3l-0.6-1.2c-0.1-0.2-0.2-0.3-0.4-0.4c-0.2-0.1-0.3-0.1-0.5-0.1s-0.3,0-0.5,0.1
		C787,545.1,786.9,545.2,786.8,545.3"/>
	<g>
		<g>
			<defs>
				<circle id="SVGID_1_" cx="483.5" cy="483.5" r="483.5"/>
			</defs>
			<clipPath id="SVGID_2_">
				<use xlink:href="#SVGID_1_"  style="overflow:visible;"/>
			</clipPath>
			<path id="shadow_right" class="st3" d="M638.6,713.7l93,173.3l4.2-2.9c53.9-36.5,99.8-83.4,135.2-137.9l-83.3-201.3L638.6,713.7z
				"/>
		</g>
		<g>
			<defs>
				<circle id="SVGID_3_" cx="483.5" cy="483.5" r="483.5"/>
			</defs>
			<clipPath id="SVGID_4_">
				<use xlink:href="#SVGID_3_"  style="overflow:visible;"/>
			</clipPath>
			<path id="mountain_right" class="st4" d="M668.3,725.6L750,887l4.2-2.9c53.9-36.5,99.8-83.4,135.2-137.9L787.7,544.9L668.3,725.6
				z"/>
		</g>
		<g>
			<defs>
				<circle id="SVGID_5_" cx="483.5" cy="483.5" r="483.5"/>
			</defs>
			<clipPath id="SVGID_6_">
				<use xlink:href="#SVGID_5_"  style="overflow:visible;"/>
			</clipPath>
			<path id="shadow_left" class="st5" d="M12.3,675.8C43.2,741.8,96.5,812,153,858.1c0.2-0.5,0.5-0.9,0.7-1.4
				c25.7-39.4,51.4-78.8,77.1-118.2l-80.9-211.4L12.3,675.8z"/>
		</g>
		<g>
			<defs>
				<circle id="SVGID_7_" cx="483.5" cy="483.5" r="483.5"/>
			</defs>
			<clipPath id="SVGID_8_">
				<use xlink:href="#SVGID_7_"  style="overflow:visible;"/>
			</clipPath>
			<path id="montain_left" class="st6" d="M45.2,687.8c30.9,66,76.3,124.3,132.7,170.4c0.2-0.5,0.5-0.9,0.7-1.4
				c25.7-39.4,51.4-78.8,77.1-118.2L149.9,527.1"/>
		</g>
		<g>
			<defs>
				<circle id="SVGID_9_" cx="483.5" cy="483.5" r="483.5"/>
			</defs>
			<clipPath id="SVGID_10_">
				<use xlink:href="#SVGID_9_"  style="overflow:visible;"/>
			</clipPath>
			<path id="shadow_middle" class="st7" d="M710.9,887L492.5,376.3L127.2,835.6c79.9,65.1,190.1,125.6,293,130.8
				S625,943.8,710.9,887z"/>
		</g>
		<g>
			<defs>
				<circle id="SVGID_11_" cx="483.5" cy="483.5" r="483.5"/>
			</defs>
			<clipPath id="SVGID_12_">
				<use xlink:href="#SVGID_11_"  style="overflow:visible;"/>
			</clipPath>
			<path id="mountain_middle" class="st8" d="M750,887L492.8,376.4L177.9,858.2c79.9,65.1,178.4,103,281.3,108.2
				C562.1,971.6,664,943.8,750,887z"/>
		</g>
	</g>
</g>
<path class="st9" d="M787.7,544.9l31.3,62c0,0-40.2,46.4-49.4,48.1c-16.5,3.1-54.3-28.2-54.3-28.2L787.7,544.9z"/>
<g>
	<g>
		<defs>
			<path id="SVGID_13_" d="M638.6,713.7l93,173.3l4.2-2.9c53.9-36.5-103-103.9-67.6-158.5l119.4-180.8L638.6,713.7z"/>
		</defs>
		<clipPath id="SVGID_14_">
			<use xlink:href="#SVGID_13_"  style="overflow:visible;"/>
		</clipPath>
		<path class="st10" d="M787.7,544.9l31.3,62c0,0-40.2,46.4-49.4,48.1c-16.5,3.1-54.3-28.2-54.3-28.2L787.7,544.9z"/>
	</g>
</g>
<g id="snow_left">
	<path class="st9" d="M205.2,637.7c0,0-49.9,59.1-72.3,55.4c-21-3.5-45.5-49.5-47.4-70.6c-0.7-8.3,6.5-32.8,6.5-32.8l57.9-62.6
		L205.2,637.7z"/>
	<g id="shadow_snow">
		<g>
			<defs>
				<path id="SVGID_15_" d="M153.6,856.8c25.7-39.4-134.1-129.6-108.5-169l104.8-160.7L12.3,675.8l32.9,12"/>
			</defs>
			<clipPath id="SVGID_16_">
				<use xlink:href="#SVGID_15_"  style="overflow:visible;"/>
			</clipPath>
			<path class="st11" d="M205.2,637.7c0,0-49.9,59.1-72.3,55.4c-21-3.5-45.5-49.5-47.4-70.6c-0.7-8.3,6.5-32.8,6.5-32.8l57.9-62.6
				L205.2,637.7z"/>
		</g>
	</g>
</g>
<g id="snow_middle">
	<path class="st9" d="M492.5,375.5L554,497.8c0,0-91.7-47.5-128.1-20.4s-4-13.7-4-13.7L492.5,375.5z"/>
	<g>
		<g>
			<defs>
				<polyline id="SVGID_17_" points="177.9,858.2 492.5,375.5 127.2,835.6 177.9,858.2 				"/>
			</defs>
			<clipPath id="SVGID_18_">
				<use xlink:href="#SVGID_17_"  style="overflow:visible;"/>
			</clipPath>
			<path class="st12" d="M492.5,375.5L554,497.8c0,0-91.7-47.5-128.1-20.4s-4-13.7-4-13.7L492.5,375.5z"/>
		</g>
	</g>
</g>
<g id="CLOUD_LEFT">
	<path class="st13" d="M203.2,129.9c-25.8,0-51.9,36.9-63.8,70.2c-1.9,5.3,0.9,11.1,6.2,13c1.1,0.4,2.2,0.6,3.4,0.6h112.4
		c5.6,0,10.2-4.6,10.2-10.2c0-1.3-0.3-2.6-0.7-3.8C256.2,164.2,228.8,129.9,203.2,129.9z"/>
	<path class="st9" d="M349.8,145.3c-20.7,0-41.6,29-51.5,55.8c-1.8,4.8,0.7,10.2,5.5,12c1,0.4,2.1,0.6,3.3,0.6h88.7
		c5.2,0,9.3-4.2,9.4-9.3c0-1.3-0.3-2.5-0.8-3.7C392.2,172.4,370.3,145.3,349.8,145.3z"/>
	<path class="st9" d="M360.6,213.7c-16.8-55.6-33.7-97.5-74.1-97.5c-40.9,0-82.3,47.1-95.2,97.5H360.6z"/>
</g>
<g id="Cloud_right">
	<path class="st13" d="M686.3,242.2c-21.8,0-43.8,31.1-53.7,59.2c-1.6,4.5,0.8,9.4,5.3,10.9c0.9,0.3,1.9,0.5,2.8,0.5h94.7
		c4.7,0,8.6-3.8,8.6-8.6c0-1.1-0.2-2.2-0.6-3.2C730.9,271,707.9,242.2,686.3,242.2z"/>
	<path class="st9" d="M809.8,255.1c-17.4,0-35,24.4-43.4,47c-1.5,4.1,0.6,8.6,4.6,10.1c0.9,0.3,1.8,0.5,2.7,0.5h74.7
		c4.3,0,7.9-3.5,7.9-7.8c0-1.1-0.2-2.1-0.6-3.1C845.5,277.9,827,255.1,809.8,255.1z"/>
	<path class="st9" d="M818.9,312.7c-14.1-46.9-28.4-82.1-62.4-82.1c-34.4,0-69.3,39.7-80.2,82.1H818.9z"/>
</g>
<g id="flag">
	<path class="st14" d="M521.7,330.5l-0.1-0.8H492v12.5h30v-0.9l-9.4-5L521.7,330.5z"/>
	<path class="st15" d="M492.1,329v47.6c0.1,0,0.1-0.3,0.2-0.3s0.2,0,0.3,0c0.2,0.1,0.3,0.1,0.4,0.3V329c0-0.1,0-0.2-0.1-0.3
		c-0.1-0.1-0.2-0.1-0.3-0.1c-0.1,0-0.2,0-0.3,0.1C492.1,328.8,492.1,328.9,492.1,329"/>
	<path class="st15" d="M492.6,376.8h-0.2c-0.2,0-0.4-0.2-0.4-0.4v-2.5h0.9v2.5C492.9,376.7,492.8,376.8,492.6,376.8z"/>
</g>
</svg>
