<svg width="967" height="967" viewBox="0 0 967 967" fill="none" xmlns="http://www.w3.org/2000/svg">
<g opacity="0.8">
<path d="M483.495 966.99C750.522 966.99 966.99 750.522 966.99 483.495C966.99 216.468 750.522 0 483.495 0C216.468 0 0 216.468 0 483.495C0 750.522 216.468 966.99 483.495 966.99Z" fill="#FCDEDE"/>
<path d="M491.88 376.659L375.646 553.54C336.082 613.711 296.54 673.888 257.021 734.072C231.805 772.438 206.59 810.803 181.374 849.169L181.125 849.551L179.423 852.152C179.307 852.363 179.275 852.61 179.334 852.844C179.392 853.078 179.537 853.281 179.739 853.413C179.941 853.545 180.185 853.595 180.422 853.555C180.66 853.514 180.873 853.385 181.02 853.194C181.709 852.152 182.397 851.11 183.076 850.068C219.535 794.613 255.989 739.159 292.436 683.704L412.485 500.935C434.412 467.547 456.361 434.153 478.332 400.753L492.569 379.069C524.598 442.809 556.625 506.55 588.648 570.291L683.303 758.51C703.891 799.477 724.479 840.44 745.068 881.399L745.24 881.743C745.24 881.743 745.24 881.743 745.24 881.801C745.412 882.155 745.593 882.508 745.775 882.862C746.616 884.545 747.461 886.228 748.309 887.91C748.902 887.69 749.504 887.48 750.116 887.298L748.586 884.239C748.213 883.493 747.84 882.747 747.458 882.002C720.553 828.46 693.632 774.901 666.695 721.327C634.921 658.141 603.155 594.949 571.4 531.75C545.445 480.12 519.486 428.471 493.525 376.803C493.461 376.676 493.369 376.565 493.257 376.478H493.2C493.094 376.408 492.976 376.36 492.852 376.336C492.728 376.313 492.601 376.314 492.477 376.339C492.354 376.365 492.237 376.415 492.132 376.487C492.028 376.558 491.939 376.649 491.871 376.755" fill="#E46A00"/>
<path d="M182.321 847.648C180.612 850.262 178.898 852.872 177.177 855.479L176.89 855.919L178.592 856.808L178.85 856.416L183.917 848.7C184.009 848.557 184.061 848.392 184.068 848.223C184.075 848.053 184.037 847.884 183.957 847.734C183.877 847.584 183.758 847.458 183.614 847.369C183.469 847.28 183.303 847.231 183.133 847.228C182.973 847.224 182.815 847.261 182.673 847.335C182.531 847.408 182.41 847.516 182.321 847.648Z" fill="#E46A00"/>
<path d="M786.821 545.288L749.351 602.311L711.413 660.031C698.83 679.153 686.251 698.298 673.675 717.465L668.292 725.639C668.221 725.744 668.17 725.862 668.145 725.987C668.12 726.111 668.119 726.239 668.144 726.363C668.168 726.488 668.217 726.606 668.288 726.712C668.359 726.817 668.45 726.907 668.556 726.977C668.662 727.047 668.781 727.095 668.905 727.118C669.03 727.142 669.158 727.14 669.282 727.113C669.406 727.087 669.524 727.036 669.628 726.963C669.732 726.891 669.821 726.798 669.889 726.691L707.626 669.325C720.343 649.967 733.062 630.612 745.785 611.26L783.216 554.295L787.519 547.765C787.519 547.765 787.519 547.841 787.567 547.879C797.702 568.028 807.827 588.17 817.942 608.306L850.01 672.116C850.393 672.862 850.766 673.608 851.139 674.363C851.255 674.589 851.457 674.759 851.699 674.836C851.941 674.913 852.204 674.891 852.429 674.774C852.655 674.658 852.825 674.456 852.902 674.214C852.979 673.972 852.957 673.709 852.84 673.484L820.772 609.692C810.485 589.199 800.191 568.713 789.89 548.233L789.259 546.99L789.097 546.656L788.485 545.441C788.403 545.287 788.28 545.159 788.13 545.069C787.98 544.98 787.808 544.933 787.634 544.935C787.475 544.933 787.319 544.97 787.179 545.044C787.039 545.117 786.919 545.224 786.831 545.355" fill="#E46A00"/>
<path d="M491.88 377.358V379.566H492.253C492.443 379.568 492.633 379.593 492.817 379.643C493.124 379.736 493.41 379.889 493.658 380.092C493.746 379.945 493.792 379.776 493.792 379.605V377.386C493.792 377.133 493.692 376.89 493.512 376.71C493.333 376.531 493.09 376.43 492.836 376.43C492.583 376.43 492.339 376.531 492.16 376.71C491.981 376.89 491.88 377.133 491.88 377.386" fill="#2C2C2C"/>
<path d="M557.307 278.735L557.183 277.004H493.496L493.467 303.842H557.928L558.005 301.968L537.812 291.174L557.307 278.735Z" fill="#DE4238"/>
<path d="M491.88 277.894V379.576C492.004 379.562 492.129 379.562 492.253 379.576C492.444 379.577 492.633 379.603 492.817 379.652C493.176 379.762 493.503 379.956 493.773 380.216V277.913C493.773 277.659 493.672 277.416 493.493 277.237C493.314 277.057 493.071 276.957 492.817 276.957C492.564 276.957 492.32 277.057 492.141 277.237C491.962 277.416 491.861 277.659 491.861 277.913" fill="black"/>
<path d="M248.417 162.032L249.832 158.753L253.656 149.861L268.256 135.864L277.664 128.501L296.222 128.941L314.388 142.996L333.319 175.915L340.413 201.663L340.652 202.485L271.765 202.763L257.978 174.806L248.417 162.032Z" fill="white"/>
<path d="M249.784 158.839L248.015 161.679L248.398 162.071" fill="white"/>
<path d="M176.861 203.097L177.741 200.362L185.294 180.265L203.106 157.72L214.188 151.161L231.054 150.587L248.512 162.032L258.045 174.758L271.134 199.913L270.579 203.107L176.861 203.097Z" fill="white"/>
<path d="M289.29 201.845H177.798C177.545 201.845 177.302 201.945 177.122 202.125C176.943 202.304 176.842 202.547 176.842 202.801C176.842 203.054 176.943 203.298 177.122 203.477C177.302 203.656 177.545 203.757 177.798 203.757H342.603C342.857 203.757 343.1 203.656 343.279 203.477C343.458 203.298 343.559 203.054 343.559 202.801C343.559 202.547 343.458 202.304 343.279 202.125C343.1 201.945 342.857 201.845 342.603 201.845H289.29Z" fill="#DE4238"/>
<path d="M718.048 308.881L718.928 306.156L726.491 286.049L744.293 263.514L755.375 256.945L772.24 256.372L789.708 267.816L799.231 280.542L812.32 305.697L811.766 308.891L718.048 308.881Z" fill="white"/>
<path d="M218.165 149.727C217.751 149.81 217.34 149.905 216.932 150.014C215.997 150.246 215.075 150.527 214.169 150.855C211.821 151.721 209.577 152.843 207.476 154.202C206.005 155.151 204.591 156.185 203.24 157.299H203.183L203.097 157.376C202.485 157.883 201.883 158.408 201.299 158.934C198.476 161.523 195.885 164.355 193.555 167.396C193.533 167.433 193.507 167.468 193.478 167.501L193.411 167.587C192.455 168.83 191.531 170.105 190.639 171.411L190.562 171.507V171.555L189.836 172.626C188.803 174.162 187.809 175.72 186.853 177.301L186.747 177.483L186.585 177.76C186.508 177.884 186.432 178.009 186.365 178.133C184.319 181.604 182.435 185.17 180.686 188.803L180.542 189.1C180.083 190.056 179.586 191.012 179.194 191.968C179.194 191.968 179.194 191.968 179.194 192.016C178.066 194.492 176.995 196.978 175.962 199.492C175.929 199.615 175.92 199.744 175.936 199.87C175.952 199.997 175.994 200.118 176.058 200.229C176.121 200.337 176.206 200.433 176.306 200.509C176.406 200.585 176.52 200.641 176.642 200.673C176.763 200.705 176.89 200.712 177.015 200.695C177.139 200.678 177.259 200.636 177.368 200.573C177.577 200.439 177.733 200.236 177.808 199.999C178.056 199.387 178.315 198.775 178.573 198.163C178.573 198.163 178.573 198.23 178.525 198.259C179.242 196.586 179.969 194.913 180.724 193.259C181.221 192.178 181.68 191.098 182.235 190.027C185.706 182.539 189.942 175.429 194.874 168.811C196.425 166.814 198.078 164.899 199.827 163.074C201.614 161.219 203.531 159.493 205.564 157.911C207.874 156.119 210.386 154.604 213.05 153.398L213.165 153.351L213.308 153.284H213.394C214.699 152.74 216.041 152.29 217.41 151.936C218.356 151.699 219.313 151.511 220.278 151.371C222.424 151.104 224.595 151.104 226.742 151.371H226.866C228.877 151.67 230.849 152.189 232.746 152.92L233.626 153.274C236.416 154.499 239.043 156.067 241.446 157.94C245.453 161.139 249.044 164.826 252.136 168.916C257.321 175.847 261.75 183.312 265.349 191.184C265.349 191.27 265.435 191.366 265.474 191.461L265.588 191.7C265.655 191.834 265.712 191.977 265.779 192.111V192.159V192.207C266.136 192.965 266.481 193.721 266.812 194.473C266.824 194.507 266.84 194.539 266.86 194.568L267.061 195.037C267.5 195.993 267.921 197.007 268.342 197.991L268.399 198.116C268.394 198.131 268.394 198.148 268.399 198.163C268.81 199.12 269.212 200.076 269.613 201.089L270.082 202.265C270.156 202.502 270.312 202.706 270.522 202.839C270.63 202.902 270.75 202.944 270.875 202.961C271 202.978 271.126 202.971 271.248 202.939C271.37 202.907 271.484 202.851 271.584 202.775C271.684 202.699 271.768 202.603 271.832 202.495C271.896 202.384 271.937 202.263 271.954 202.136C271.97 202.01 271.961 201.881 271.927 201.758L271.526 200.802V200.726L271.363 200.276C271.347 200.22 271.324 200.166 271.296 200.114V200.028C271.296 199.942 271.229 199.865 271.201 199.779C271.199 199.754 271.199 199.728 271.201 199.703C270.174 197.198 269.1 194.715 267.979 192.255C267.982 192.226 267.982 192.197 267.979 192.169C267.892 191.968 267.797 191.758 267.701 191.557C267.606 191.356 267.443 191.012 267.319 190.744L267.137 190.342L265.904 187.78C265.827 187.637 265.76 187.493 265.684 187.34V187.283C265.607 187.14 265.54 186.996 265.464 186.843V186.795L265.244 186.346L265.005 185.868C263.351 182.627 261.573 179.433 259.66 176.307C257.756 173.191 255.675 170.187 253.427 167.31V167.262L253.14 166.899L253.054 166.793L252.805 166.478L252.681 166.335C252.616 166.241 252.546 166.152 252.47 166.067L252.308 165.866C252.251 165.799 252.193 165.723 252.126 165.656L251.925 165.417L251.782 165.245L251.533 164.948L251.438 164.833L251.141 164.489L251.084 164.422L250.749 164.04C250.109 163.313 249.459 162.596 248.837 161.898C244.916 157.631 240.187 154.183 234.926 151.754L234.496 151.572L234.352 151.505C233.38 151.104 232.387 150.753 231.379 150.454L230.728 150.272C229.731 150.007 228.719 149.8 227.698 149.65L226.636 149.517H226.522H226.311C225.69 149.459 225.068 149.421 224.456 149.402H223.816C222.033 149.406 220.256 149.589 218.509 149.947L218.165 149.727ZM233.865 153.408H233.922H233.865ZM241.743 158.102L241.867 158.198L241.743 158.102ZM205.793 158.102L205.707 158.169L205.793 158.102ZM195.276 168.916V168.973V168.916ZM268.829 198.422C268.829 198.422 268.829 198.422 268.829 198.469C268.829 198.517 268.829 198.469 268.829 198.422ZM178.802 198.402C178.806 198.358 178.806 198.313 178.802 198.269V198.402Z" fill="#DE4238"/>
<path d="M278.936 127.823C276.071 128.68 273.337 129.925 270.809 131.523C268.425 133.025 266.185 134.744 264.116 136.657C261.957 138.65 259.937 140.791 258.073 143.063C254.382 147.592 251.091 152.432 248.235 157.529C248.121 157.747 248.095 158.002 248.164 158.238C248.233 158.475 248.39 158.676 248.604 158.8C248.817 158.923 249.07 158.959 249.31 158.901C249.549 158.842 249.757 158.693 249.889 158.485C252.249 154.287 254.897 150.259 257.815 146.428C260.92 142.317 264.527 138.61 268.552 135.395L268.361 135.548C270.82 133.624 273.512 132.018 276.373 130.767C278.556 129.846 280.847 129.204 283.19 128.855C285.327 128.592 287.488 128.592 289.625 128.855C291.974 129.208 294.27 129.85 296.461 130.767C299.289 132.003 301.952 133.586 304.387 135.481C308.353 138.651 311.911 142.299 314.981 146.342C315.01 146.386 315.042 146.428 315.077 146.467C318.568 151.077 321.692 155.956 324.418 161.057C324.418 161.057 324.418 161.143 324.485 161.191C327.076 165.971 329.38 170.914 331.503 175.924C332.14 177.397 332.739 178.869 333.3 180.342C333.326 180.394 333.349 180.448 333.367 180.504C334.317 182.914 335.225 185.339 336.092 187.78C336.092 187.78 336.092 187.78 336.092 187.828C336.264 188.306 336.436 188.784 336.599 189.262C336.713 189.578 336.819 189.884 336.924 190.218C337.172 190.935 337.421 191.662 337.66 192.379V192.436C338.463 194.855 339.238 197.274 339.983 199.712C340.079 199.999 340.165 200.296 340.251 200.582C340.337 200.869 340.404 201.099 340.49 201.357C340.576 201.615 340.653 201.911 340.729 202.189C340.762 202.31 340.819 202.423 340.896 202.523C340.973 202.622 341.069 202.705 341.178 202.767C341.288 202.829 341.408 202.869 341.533 202.885C341.657 202.9 341.784 202.891 341.905 202.858C342.026 202.825 342.14 202.768 342.239 202.691C342.338 202.614 342.421 202.518 342.483 202.409C342.545 202.299 342.585 202.179 342.601 202.054C342.617 201.93 342.608 201.803 342.574 201.682L342.316 200.802L342.125 200.181C342.029 199.856 341.934 199.531 341.829 199.225C341.092 196.787 340.308 194.368 339.505 191.958C339.362 191.519 339.209 191.079 339.065 190.639L338.779 189.807C338.779 189.712 338.712 189.606 338.673 189.511L338.587 189.272C338.587 189.147 338.511 189.033 338.463 188.918L338.406 188.736C338.385 188.655 338.359 188.575 338.329 188.497C337.399 185.839 336.423 183.2 335.404 180.581C332.703 173.584 329.574 166.76 326.034 160.149C326.034 160.149 326.034 160.149 326.034 160.101C323.25 154.927 320.053 149.987 316.473 145.329C312.967 140.66 308.795 136.53 304.091 133.072C301.693 131.349 299.092 129.93 296.346 128.846C293.595 127.772 290.69 127.146 287.741 126.991C287.311 126.991 286.871 126.991 286.441 126.991C283.911 127.005 281.395 127.368 278.964 128.071L278.936 127.823ZM331.464 176.03C331.461 176.068 331.461 176.106 331.464 176.144C331.461 176.106 331.461 176.068 331.464 176.03ZM315.067 146.658L315 146.572L315.067 146.667" fill="#DE4238"/>
<path d="M789.708 267.816L791.123 264.527C792.398 261.563 793.673 258.602 794.948 255.645L809.548 241.638L818.956 234.276L837.514 234.725L855.68 248.78L874.611 281.699L881.705 307.437L881.954 308.269L813.066 308.546L799.231 280.59L789.708 267.816Z" fill="white"/>
<path d="M791.085 264.575L789.326 267.424L789.709 267.816" fill="white"/>
<path d="M830.496 307.925H719.004C718.75 307.925 718.507 308.026 718.328 308.205C718.149 308.384 718.048 308.627 718.048 308.881C718.048 309.134 718.149 309.378 718.328 309.557C718.507 309.736 718.75 309.837 719.004 309.837H883.818C884.072 309.837 884.315 309.736 884.495 309.557C884.674 309.378 884.775 309.134 884.775 308.881C884.775 308.627 884.674 308.384 884.495 308.205C884.315 308.026 884.072 307.925 883.818 307.925H830.496Z" fill="#DE4238"/>
<path d="M759.381 255.817C758.97 255.903 758.558 255.989 758.147 256.094C757.211 256.326 756.288 256.61 755.384 256.945C753.035 257.807 750.79 258.93 748.691 260.292C747.214 261.232 745.8 262.267 744.456 263.39H744.398L744.303 263.466C743.691 263.982 743.089 264.499 742.505 265.034C739.685 267.62 737.097 270.448 734.77 273.486L734.694 273.591L734.627 273.677C733.671 274.92 732.715 276.192 731.845 277.502C731.82 277.532 731.798 277.564 731.778 277.597V277.645C731.529 277.999 731.281 278.353 731.042 278.716C730.009 280.246 729.018 281.804 728.068 283.391L727.953 283.573L727.791 283.841C727.724 283.965 727.647 284.089 727.571 284.214C725.515 287.675 723.632 291.251 721.882 294.884C721.834 294.979 721.786 295.075 721.748 295.171C721.299 296.127 720.849 297.083 720.41 298.039C719.281 300.519 718.201 303.011 717.168 305.516C717.134 305.639 717.125 305.767 717.142 305.894C717.158 306.02 717.2 306.142 717.264 306.252C717.388 306.472 717.595 306.633 717.838 306.701C717.961 306.734 718.09 306.741 718.216 306.723C718.343 306.705 718.464 306.662 718.574 306.596C718.788 306.472 718.945 306.27 719.014 306.032C719.272 305.411 719.52 304.799 719.779 304.187C719.779 304.187 719.779 304.254 719.779 304.292C720.486 302.609 721.213 300.946 721.968 299.282C722.456 298.202 722.924 297.121 723.479 296.05C726.954 288.57 731.19 281.467 736.118 274.853C737.666 272.854 739.319 270.939 741.071 269.117C742.855 267.255 744.772 265.527 746.808 263.944C749.124 262.156 751.64 260.642 754.304 259.431L754.409 259.383L754.562 259.317H754.638C755.946 258.775 757.292 258.327 758.664 257.978C761.701 257.183 764.865 256.991 767.976 257.414H768.091C770.104 257.717 772.079 258.236 773.98 258.963L774.86 259.317C777.645 260.551 780.271 262.118 782.681 263.982C786.683 267.184 790.27 270.871 793.361 274.958C798.545 281.89 802.975 289.355 806.574 297.226L806.708 297.504L806.823 297.743L807.024 298.163V298.221L808.056 300.477C808.056 300.477 808.056 300.544 808.056 300.582C808.056 300.62 808.2 300.888 808.267 301.051C808.697 302.007 809.127 302.963 809.548 303.996C809.55 304.037 809.55 304.078 809.548 304.12V304.168C809.959 305.124 810.36 306.08 810.752 307.084C810.915 307.476 811.068 307.877 811.23 308.269C811.301 308.506 811.453 308.709 811.661 308.843C811.888 308.969 812.155 309.004 812.406 308.939C812.644 308.865 812.848 308.709 812.98 308.499C813.043 308.388 813.083 308.266 813.097 308.139C813.112 308.013 813.102 307.885 813.066 307.763C812.942 307.428 812.808 307.093 812.674 306.759V306.682L812.531 306.328L812.464 306.156C812.469 306.125 812.469 306.092 812.464 306.061C812.464 305.984 812.397 305.898 812.359 305.822V305.736C811.326 303.231 810.252 300.751 809.137 298.297V298.202C809.041 298.001 808.945 297.8 808.859 297.59C808.773 297.379 808.601 297.045 808.477 296.777L808.286 296.375C807.884 295.515 807.473 294.664 807.052 293.813C806.985 293.66 806.909 293.517 806.832 293.373V293.306L806.622 292.876V292.828L806.393 292.369L806.144 291.901C804.49 288.66 802.721 285.476 800.809 282.34C798.896 279.227 796.812 276.224 794.565 273.343V273.295L794.279 272.932L794.202 272.826C794.116 272.721 794.03 272.626 793.954 272.52L793.829 272.367L793.399 271.985L793.227 271.784L793.055 271.564L792.854 271.325L792.711 271.153L792.462 270.866L792.357 270.742L792.07 270.407L792.003 270.331L791.668 269.948C791.028 269.222 790.378 268.514 789.756 267.816C785.825 263.532 781.08 260.073 775.797 257.643L775.367 257.462L775.214 257.404C774.246 256.991 773.253 256.64 772.24 256.353L771.59 256.161C770.596 255.896 769.587 255.692 768.569 255.549C768.215 255.492 767.852 255.444 767.498 255.406H767.393H767.173C766.561 255.339 765.94 255.301 765.318 255.282H764.716C762.936 255.289 761.161 255.475 759.419 255.836L759.381 255.817ZM774.717 259.288H774.65H774.717ZM782.528 263.982L782.662 264.088L782.528 263.982ZM746.578 263.982L746.502 264.049L746.578 263.982ZM736.061 274.786C736.058 274.805 736.058 274.825 736.061 274.844C736.058 274.825 736.058 274.805 736.061 274.786ZM719.587 304.235L719.645 304.11L719.587 304.235Z" fill="#DE4238"/>
<path d="M820.17 233.912C817.302 234.765 814.564 236.007 812.034 237.603C809.65 239.105 807.409 240.824 805.341 242.737C803.178 244.731 801.156 246.871 799.289 249.143C795.6 253.672 792.311 258.512 789.46 263.609C789.381 263.717 789.326 263.841 789.298 263.972C789.27 264.103 789.27 264.238 789.298 264.369C789.325 264.5 789.38 264.623 789.458 264.732C789.537 264.84 789.637 264.931 789.753 264.998C789.868 265.065 789.997 265.108 790.13 265.122C790.263 265.137 790.397 265.123 790.525 265.082C790.652 265.041 790.769 264.974 790.869 264.885C790.969 264.796 791.049 264.687 791.104 264.565C793.475 260.375 796.123 256.347 799.031 252.509C802.133 248.398 805.74 244.695 809.768 241.485L809.576 241.628C812.038 239.708 814.73 238.102 817.589 236.848C819.772 235.927 822.062 235.284 824.406 234.936C826.545 234.668 828.71 234.668 830.85 234.936C833.197 235.284 835.49 235.926 837.676 236.848C840.502 238.087 843.165 239.67 845.603 241.561C849.573 244.732 853.135 248.384 856.206 252.432C856.241 252.471 856.273 252.513 856.301 252.557C859.789 257.168 862.909 262.047 865.633 267.147L865.71 267.281C868.291 272.061 870.605 276.995 872.718 282.014C873.355 283.48 873.954 284.953 874.515 286.432L874.573 286.594C875.529 289.004 876.428 291.432 877.298 293.88L877.804 295.314C877.91 295.629 878.024 295.945 878.129 296.27C878.378 296.997 878.627 297.714 878.866 298.431C878.866 298.431 878.866 298.431 878.866 298.488C879.675 300.904 880.453 303.329 881.198 305.764L881.457 306.634C881.543 306.892 881.619 307.151 881.696 307.409C881.772 307.667 881.858 307.963 881.944 308.241C881.981 308.494 882.117 308.723 882.322 308.876C882.528 309.029 882.785 309.095 883.039 309.058C883.293 309.021 883.521 308.885 883.675 308.68C883.828 308.475 883.893 308.217 883.856 307.963C883.87 307.887 883.87 307.81 883.856 307.734L883.598 306.854C883.541 306.644 883.474 306.443 883.417 306.242C883.359 306.041 883.216 305.583 883.12 305.286V305.238C882.374 302.81 881.597 300.388 880.787 297.972C880.786 297.956 880.786 297.94 880.787 297.924L880.338 296.605C880.242 296.327 880.156 296.06 880.051 295.782C880.051 295.677 879.984 295.582 879.956 295.476L879.869 295.237C879.869 295.123 879.784 295.008 879.745 294.884C879.707 294.759 879.745 294.769 879.678 294.702L879.592 294.463C878.636 291.805 877.68 289.176 876.657 286.556C873.964 279.554 870.838 272.727 867.297 266.114C864.513 260.937 861.316 255.994 857.736 251.333C854.231 246.666 850.063 242.537 845.364 239.075C842.965 237.352 840.36 235.936 837.609 234.859C834.859 233.781 831.954 233.152 829.005 232.995C828.574 232.995 828.144 232.995 827.704 232.995C825.176 233.007 822.663 233.374 820.237 234.085L820.17 233.912ZM872.727 282.043V282.158V282.043ZM856.34 252.662L856.282 252.585L856.349 252.671" fill="#DE4238"/>
<path d="M45.1571 687.797C76.0428 753.839 121.412 812.074 177.894 858.175C178.123 857.716 178.362 857.276 178.592 856.808C204.286 817.391 229.97 777.977 255.645 738.566L149.937 527.084" fill="#EF6059"/>
<path d="M749.982 886.993L492.836 376.43L177.894 858.176C257.746 923.291 356.307 961.204 459.213 966.387C562.119 971.571 663.991 943.755 749.982 886.993Z" fill="#DE4238"/>
<path d="M668.292 725.639L749.982 886.993L754.189 884.124C808.044 847.667 854.033 800.771 889.431 746.215L787.662 544.868L668.292 725.639Z" fill="#EF6059"/>
</g>
</svg>
