<?xml version="1.0" encoding="utf-8"?>
<!-- Generator: Adobe Illustrator 24.0.3, SVG Export Plug-In . SVG Version: 6.00 Build 0)  -->
<svg version="1.1" xmlns="http://www.w3.org/2000/svg" xmlns:xlink="http://www.w3.org/1999/xlink" x="0px" y="0px"
	 viewBox="0 0 795 967" style="enable-background:new 0 0 795 967;" xml:space="preserve">
<style type="text/css">
	.st0{display:none;}
	.st1{display:inline;opacity:0.8;}
	.st2{fill:#FCDEDE;}
	.st3{fill:#E46A00;}
	.st4{fill:#2C2C2C;}
	.st5{fill:#DE4238;}
	.st6{fill:#FFFFFF;}
	.st7{fill:#EF6059;}
	.st8{opacity:0.8;}
	.st9{display:none;fill:#E46A00;}
	.st10{clip-path:url(#SVGID_2_);fill:#D34444;}
	.st11{clip-path:url(#SVGID_4_);fill:#EF6059;}
	.st12{clip-path:url(#SVGID_6_);fill:#D34A4A;}
	.st13{clip-path:url(#SVGID_8_);fill:#EF6059;}
	.st14{clip-path:url(#SVGID_10_);fill:#CC332F;}
	.st15{clip-path:url(#SVGID_12_);fill:#DE4238;}
	.st16{clip-path:url(#SVGID_14_);fill:#F7F7F7;}
	.st17{clip-path:url(#SVGID_16_);fill:#F7F7F7;}
	.st18{clip-path:url(#SVGID_18_);fill:#F7F7F7;}
	.st19{fill:#F7F7F7;}
	.st20{fill:#606060;}
</style>
<g id="Layer_1" class="st0">
	<g class="st1">
		<path class="st2" d="M311.5,967c267,0,483.5-216.5,483.5-483.5S578.5,0,311.5,0S-172,216.5-172,483.5S44.5,967,311.5,967z"/>
		<path class="st3" d="M319.9,376.7L203.6,553.5C164.1,613.7,124.5,673.9,85,734.1c-25.2,38.4-50.4,76.7-75.6,115.1l-0.2,0.4
			l-1.7,2.6c-0.1,0.2-0.1,0.5-0.1,0.7c0.1,0.2,0.2,0.4,0.4,0.6c0.2,0.1,0.4,0.2,0.7,0.1c0.2,0,0.5-0.2,0.6-0.4
			c0.7-1,1.4-2.1,2.1-3.1C47.5,794.6,84,739.2,120.4,683.7l120-182.8c21.9-33.4,43.9-66.8,65.8-100.2l14.2-21.7
			c32,63.7,64.1,127.5,96.1,191.2l94.7,188.2c20.6,41,41.2,81.9,61.8,122.9l0.2,0.3c0,0,0,0,0,0.1c0.2,0.4,0.4,0.7,0.5,1.1
			c0.8,1.7,1.7,3.4,2.5,5c0.6-0.2,1.2-0.4,1.8-0.6l-1.5-3.1c-0.4-0.7-0.7-1.5-1.1-2.2c-26.9-53.5-53.8-107.1-80.8-160.7
			c-31.8-63.2-63.5-126.4-95.3-189.6c-26-51.6-51.9-103.3-77.9-154.9c-0.1-0.1-0.2-0.2-0.3-0.3h-0.1c-0.1-0.1-0.2-0.1-0.3-0.1
			c-0.1,0-0.3,0-0.4,0c-0.1,0-0.2,0.1-0.3,0.1C320,376.6,319.9,376.6,319.9,376.7"/>
		<path class="st3" d="M10.3,847.6c-1.7,2.6-3.4,5.2-5.1,7.8l-0.3,0.4l1.7,0.9l0.3-0.4l5.1-7.7c0.1-0.1,0.1-0.3,0.2-0.5
			c0-0.2,0-0.3-0.1-0.5c-0.1-0.2-0.2-0.3-0.3-0.4s-0.3-0.1-0.5-0.1c-0.2,0-0.3,0-0.5,0.1C10.5,847.4,10.4,847.5,10.3,847.6"/>
		<path class="st3" d="M614.8,545.3l-37.5,57L539.4,660c-12.6,19.1-25.2,38.3-37.7,57.4l-5.4,8.2c-0.1,0.1-0.1,0.2-0.1,0.3
			c0,0.1,0,0.3,0,0.4c0,0.1,0.1,0.2,0.1,0.3c0.1,0.1,0.2,0.2,0.3,0.3s0.2,0.1,0.3,0.1c0.1,0,0.3,0,0.4,0c0.1,0,0.2-0.1,0.3-0.1
			c0.1-0.1,0.2-0.2,0.3-0.3l37.7-57.4c12.7-19.4,25.4-38.7,38.2-58.1l37.4-57l4.3-6.5c0,0,0,0.1,0,0.1
			c10.1,20.1,20.3,40.3,30.4,60.4l32.1,63.8c0.4,0.7,0.8,1.5,1.1,2.2c0.1,0.2,0.3,0.4,0.6,0.5s0.5,0.1,0.7-0.1
			c0.2-0.1,0.4-0.3,0.5-0.6c0.1-0.2,0.1-0.5-0.1-0.7l-32.1-63.8c-10.3-20.5-20.6-41-30.9-61.5l-0.6-1.2l-0.2-0.3l-0.6-1.2
			c-0.1-0.2-0.2-0.3-0.4-0.4c-0.2-0.1-0.3-0.1-0.5-0.1c-0.2,0-0.3,0-0.5,0.1C615,545.1,614.9,545.2,614.8,545.3"/>
		<path class="st4" d="M319.9,377.4v2.2h0.4c0.2,0,0.4,0,0.6,0.1c0.3,0.1,0.6,0.2,0.8,0.4c0.1-0.1,0.1-0.3,0.1-0.5v-2.2
			c0-0.3-0.1-0.5-0.3-0.7c-0.2-0.2-0.4-0.3-0.7-0.3c-0.3,0-0.5,0.1-0.7,0.3C320,376.9,319.9,377.1,319.9,377.4"/>
		<path class="st5" d="M385.3,278.7l-0.1-1.7h-63.7l0,26.8h64.5l0.1-1.9l-20.2-10.8L385.3,278.7z"/>
		<path d="M319.9,277.9v101.7c0.1,0,0.2,0,0.4,0c0.2,0,0.4,0,0.6,0.1c0.4,0.1,0.7,0.3,1,0.6V277.9c0-0.3-0.1-0.5-0.3-0.7
			c-0.2-0.2-0.4-0.3-0.7-0.3c-0.3,0-0.5,0.1-0.7,0.3C320,277.4,319.9,277.7,319.9,277.9"/>
		<path class="st6" d="M76.4,162l1.4-3.3l3.8-8.9l14.6-14l9.4-7.4l18.6,0.4l18.2,14.1l18.9,32.9l7.1,25.7l0.2,0.8l-68.9,0.3
			l-13.8-28L76.4,162z"/>
		<path class="st6" d="M77.8,158.8l-1.8,2.8l0.4,0.4"/>
		<path class="st6" d="M4.9,203.1l0.9-2.7l7.6-20.1l17.8-22.5l11.1-6.6l16.9-0.6L76.5,162l9.5,12.7l13.1,25.2l-0.6,3.2L4.9,203.1z"
			/>
		<path class="st5" d="M117.3,201.8H5.8c-0.3,0-0.5,0.1-0.7,0.3c-0.2,0.2-0.3,0.4-0.3,0.7c0,0.3,0.1,0.5,0.3,0.7
			c0.2,0.2,0.4,0.3,0.7,0.3h164.8c0.3,0,0.5-0.1,0.7-0.3c0.2-0.2,0.3-0.4,0.3-0.7c0-0.3-0.1-0.5-0.3-0.7c-0.2-0.2-0.4-0.3-0.7-0.3
			H117.3z"/>
		<path class="st6" d="M546,308.9l0.9-2.7l7.6-20.1l17.8-22.5l11.1-6.6l16.9-0.6l17.5,11.4l9.5,12.7l13.1,25.2l-0.6,3.2L546,308.9z"
			/>
		<path class="st5" d="M46.2,149.7c-0.4,0.1-0.8,0.2-1.2,0.3c-0.9,0.2-1.9,0.5-2.8,0.8c-2.3,0.9-4.6,2-6.7,3.3
			c-1.5,0.9-2.9,2-4.2,3.1h-0.1l-0.1,0.1c-0.6,0.5-1.2,1-1.8,1.6c-2.8,2.6-5.4,5.4-7.7,8.5c0,0,0,0.1-0.1,0.1l-0.1,0.1
			c-1,1.2-1.9,2.5-2.8,3.8l-0.1,0.1v0l-0.7,1.1c-1,1.5-2,3.1-3,4.7l-0.1,0.2l-0.2,0.3c-0.1,0.1-0.2,0.2-0.2,0.4
			c-2,3.5-3.9,7-5.7,10.7l-0.1,0.3c-0.5,1-1,1.9-1.3,2.9c0,0,0,0,0,0c-1.1,2.5-2.2,5-3.2,7.5c0,0.1,0,0.3,0,0.4
			c0,0.1,0.1,0.2,0.1,0.4c0.1,0.1,0.1,0.2,0.2,0.3c0.1,0.1,0.2,0.1,0.3,0.2c0.1,0,0.2,0,0.4,0c0.1,0,0.2-0.1,0.4-0.1
			c0.2-0.1,0.4-0.3,0.4-0.6c0.2-0.6,0.5-1.2,0.8-1.8c0,0,0,0.1,0,0.1c0.7-1.7,1.4-3.3,2.2-5c0.5-1.1,1-2.2,1.5-3.2
			c3.5-7.5,7.7-14.6,12.6-21.2c1.6-2,3.2-3.9,5-5.7c1.8-1.9,3.7-3.6,5.7-5.2c2.3-1.8,4.8-3.3,7.5-4.5l0.1,0l0.1-0.1h0.1
			c1.3-0.5,2.6-1,4-1.3c0.9-0.2,1.9-0.4,2.9-0.6c2.1-0.3,4.3-0.3,6.5,0h0.1c2,0.3,4,0.8,5.9,1.5l0.9,0.4c2.8,1.2,5.4,2.8,7.8,4.7
			c4,3.2,7.6,6.9,10.7,11c5.2,6.9,9.6,14.4,13.2,22.3c0,0.1,0.1,0.2,0.1,0.3l0.1,0.2c0.1,0.1,0.1,0.3,0.2,0.4v0v0
			c0.4,0.8,0.7,1.5,1,2.3c0,0,0,0.1,0,0.1l0.2,0.5c0.4,1,0.9,2,1.3,3l0.1,0.1c0,0,0,0,0,0l0,0c0.4,1,0.8,1.9,1.2,2.9l0.5,1.2
			c0.1,0.2,0.2,0.4,0.4,0.6c0.1,0.1,0.2,0.1,0.4,0.1c0.1,0,0.3,0,0.4,0s0.2-0.1,0.3-0.2c0.1-0.1,0.2-0.2,0.2-0.3
			c0.1-0.1,0.1-0.2,0.1-0.4c0-0.1,0-0.3,0-0.4l-0.4-1v-0.1l-0.2-0.4c0-0.1,0-0.1-0.1-0.2l0,0V200c0-0.1-0.1-0.2-0.1-0.2
			c0,0,0-0.1,0-0.1c-1-2.5-2.1-5-3.2-7.4c0,0,0-0.1,0-0.1c-0.1-0.2-0.2-0.4-0.3-0.6c-0.1-0.2-0.3-0.5-0.4-0.8l-0.2-0.4l-1.2-2.6
			c-0.1-0.1-0.1-0.3-0.2-0.4v-0.1c-0.1-0.1-0.1-0.3-0.2-0.4v0l-0.2-0.4l-0.2-0.5c-1.7-3.2-3.4-6.4-5.3-9.6c-1.9-3.1-4-6.1-6.2-9v0
			l-0.3-0.4l-0.1-0.1l-0.2-0.3l-0.1-0.1c-0.1-0.1-0.1-0.2-0.2-0.3l-0.2-0.2c-0.1-0.1-0.1-0.1-0.2-0.2l-0.2-0.2l-0.1-0.2l-0.2-0.3
			l-0.1-0.1l-0.3-0.3l-0.1-0.1l-0.3-0.4c-0.6-0.7-1.3-1.4-1.9-2.1c-3.9-4.3-8.6-7.7-13.9-10.1l-0.4-0.2l-0.1-0.1c-1-0.4-2-0.8-3-1.1
			l-0.7-0.2c-1-0.3-2-0.5-3-0.6l-1.1-0.1h-0.1h-0.2c-0.6-0.1-1.2-0.1-1.9-0.1h-0.6c-1.8,0-3.6,0.2-5.3,0.5L46.2,149.7z M61.9,153.4
			L61.9,153.4L61.9,153.4z M69.7,158.1l0.1,0.1L69.7,158.1z M33.8,158.1L33.8,158.1L33.8,158.1z M23.3,168.9L23.3,168.9L23.3,168.9z
			 M96.8,198.4C96.8,198.4,96.8,198.4,96.8,198.4C96.8,198.5,96.8,198.5,96.8,198.4z M6.8,198.4c0,0,0-0.1,0-0.1V198.4z"/>
		<path class="st5" d="M106.9,127.8c-2.9,0.9-5.6,2.1-8.1,3.7c-2.4,1.5-4.6,3.2-6.7,5.1c-2.2,2-4.2,4.1-6,6.4
			c-3.7,4.5-7,9.4-9.8,14.5c-0.1,0.2-0.1,0.5-0.1,0.7c0.1,0.2,0.2,0.4,0.4,0.6c0.2,0.1,0.5,0.2,0.7,0.1c0.2-0.1,0.4-0.2,0.6-0.4
			c2.4-4.2,5-8.2,7.9-12.1c3.1-4.1,6.7-7.8,10.7-11l-0.2,0.2c2.5-1.9,5.2-3.5,8-4.8c2.2-0.9,4.5-1.6,6.8-1.9c2.1-0.3,4.3-0.3,6.4,0
			c2.3,0.4,4.6,1,6.8,1.9c2.8,1.2,5.5,2.8,7.9,4.7c4,3.2,7.5,6.8,10.6,10.9l0,0c0,0,0.1,0.1,0.1,0.1l0,0c3.5,4.6,6.6,9.5,9.3,14.6
			c0,0,0,0.1,0.1,0.1c2.6,4.8,4.9,9.7,7,14.7c0.6,1.5,1.2,2.9,1.8,4.4c0,0.1,0,0.1,0.1,0.2c0.9,2.4,1.9,4.8,2.7,7.3c0,0,0,0,0,0
			c0.2,0.5,0.3,1,0.5,1.4c0.1,0.3,0.2,0.6,0.3,1c0.2,0.7,0.5,1.4,0.7,2.2v0.1c0.8,2.4,1.6,4.8,2.3,7.3c0.1,0.3,0.2,0.6,0.3,0.9
			c0.1,0.3,0.2,0.5,0.2,0.8c0.1,0.3,0.2,0.6,0.2,0.8c0,0.1,0.1,0.2,0.2,0.3c0.1,0.1,0.2,0.2,0.3,0.2c0.1,0.1,0.2,0.1,0.4,0.1
			c0.1,0,0.3,0,0.4,0s0.2-0.1,0.3-0.2c0.1-0.1,0.2-0.2,0.2-0.3c0.1-0.1,0.1-0.2,0.1-0.4c0-0.1,0-0.3,0-0.4l-0.3-0.9l-0.2-0.6
			c-0.1-0.3-0.2-0.6-0.3-1c-0.7-2.4-1.5-4.9-2.3-7.3c-0.1-0.4-0.3-0.9-0.4-1.3l-0.3-0.8c0-0.1-0.1-0.2-0.1-0.3l-0.1-0.2
			c0-0.1-0.1-0.2-0.1-0.4l-0.1-0.2c0-0.1,0-0.2-0.1-0.2l0,0c-0.9-2.7-1.9-5.3-2.9-7.9c-2.7-7-5.8-13.8-9.4-20.4c0,0,0,0,0,0
			c-2.8-5.2-6-10.1-9.6-14.8c-3.5-4.7-7.7-8.8-12.4-12.3c-2.4-1.7-5-3.1-7.7-4.2c-2.8-1.1-5.7-1.7-8.6-1.9c-0.4,0-0.9,0-1.3,0
			c-2.5,0-5,0.4-7.5,1.1L106.9,127.8z M159.5,176c0,0,0,0.1,0,0.1C159.5,176.1,159.5,176.1,159.5,176z M143.1,146.7L143.1,146.7
			L143.1,146.7"/>
		<path class="st6" d="M617.7,267.8l1.4-3.3c1.3-3,2.5-5.9,3.8-8.9l14.6-14l9.4-7.4l18.6,0.4l18.2,14.1l18.9,32.9l7.1,25.7l0.2,0.8
			l-68.9,0.3l-13.8-28L617.7,267.8z"/>
		<path class="st6" d="M619.1,264.6l-1.8,2.8l0.4,0.4"/>
		<path class="st5" d="M658.5,307.9H547c-0.3,0-0.5,0.1-0.7,0.3c-0.2,0.2-0.3,0.4-0.3,0.7c0,0.3,0.1,0.5,0.3,0.7
			c0.2,0.2,0.4,0.3,0.7,0.3h164.8c0.3,0,0.5-0.1,0.7-0.3c0.2-0.2,0.3-0.4,0.3-0.7c0-0.3-0.1-0.5-0.3-0.7c-0.2-0.2-0.4-0.3-0.7-0.3
			H658.5z"/>
		<path class="st5" d="M587.4,255.8c-0.4,0.1-0.8,0.2-1.2,0.3c-0.9,0.2-1.9,0.5-2.8,0.9c-2.3,0.9-4.6,2-6.7,3.3
			c-1.5,0.9-2.9,2-4.2,3.1h-0.1l-0.1,0.1c-0.6,0.5-1.2,1-1.8,1.6c-2.8,2.6-5.4,5.4-7.7,8.5l-0.1,0.1l-0.1,0.1
			c-1,1.2-1.9,2.5-2.8,3.8c0,0,0,0.1-0.1,0.1v0c-0.2,0.4-0.5,0.7-0.7,1.1c-1,1.5-2,3.1-3,4.7l-0.1,0.2l-0.2,0.3
			c-0.1,0.1-0.1,0.2-0.2,0.4c-2.1,3.5-3.9,7-5.7,10.7c0,0.1-0.1,0.2-0.1,0.3c-0.4,1-0.9,1.9-1.3,2.9c-1.1,2.5-2.2,5-3.2,7.5
			c0,0.1,0,0.3,0,0.4c0,0.1,0.1,0.2,0.1,0.4c0.1,0.2,0.3,0.4,0.6,0.4c0.1,0,0.3,0,0.4,0c0.1,0,0.2-0.1,0.4-0.1
			c0.2-0.1,0.4-0.3,0.4-0.6c0.3-0.6,0.5-1.2,0.8-1.8c0,0,0,0.1,0,0.1c0.7-1.7,1.4-3.3,2.2-5c0.5-1.1,1-2.2,1.5-3.2
			c3.5-7.5,7.7-14.6,12.6-21.2c1.5-2,3.2-3.9,5-5.7c1.8-1.9,3.7-3.6,5.7-5.2c2.3-1.8,4.8-3.3,7.5-4.5l0.1,0l0.2-0.1h0.1
			c1.3-0.5,2.7-1,4-1.3c3-0.8,6.2-1,9.3-0.6h0.1c2,0.3,4,0.8,5.9,1.5l0.9,0.4c2.8,1.2,5.4,2.8,7.8,4.7c4,3.2,7.6,6.9,10.7,11
			c5.2,6.9,9.6,14.4,13.2,22.3l0.1,0.3l0.1,0.2l0.2,0.4v0.1l1,2.3c0,0,0,0.1,0,0.1s0.1,0.3,0.2,0.5c0.4,1,0.9,1.9,1.3,2.9
			c0,0,0,0.1,0,0.1l0,0v0c0.4,1,0.8,1.9,1.2,2.9c0.2,0.4,0.3,0.8,0.5,1.2c0.1,0.2,0.2,0.4,0.4,0.6c0.2,0.1,0.5,0.2,0.7,0.1
			c0.2-0.1,0.4-0.2,0.6-0.4c0.1-0.1,0.1-0.2,0.1-0.4c0-0.1,0-0.3,0-0.4c-0.1-0.3-0.3-0.7-0.4-1v-0.1l-0.1-0.4l-0.1-0.2
			c0,0,0-0.1,0-0.1c0-0.1-0.1-0.2-0.1-0.2v-0.1c-1-2.5-2.1-5-3.2-7.4v-0.1c-0.1-0.2-0.2-0.4-0.3-0.6c-0.1-0.2-0.3-0.5-0.4-0.8
			l-0.2-0.4c-0.4-0.9-0.8-1.7-1.2-2.6c-0.1-0.2-0.1-0.3-0.2-0.4v-0.1l-0.2-0.4v0l-0.2-0.5l-0.2-0.5c-1.7-3.2-3.4-6.4-5.3-9.6
			c-1.9-3.1-4-6.1-6.2-9v0l-0.3-0.4l-0.1-0.1c-0.1-0.1-0.2-0.2-0.2-0.3l-0.1-0.2l-0.4-0.4l-0.2-0.2l-0.2-0.2l-0.2-0.2l-0.1-0.2
			l-0.2-0.3l-0.1-0.1l-0.3-0.3l-0.1-0.1l-0.3-0.4c-0.6-0.7-1.3-1.4-1.9-2.1c-3.9-4.3-8.7-7.7-14-10.2l-0.4-0.2l-0.2-0.1
			c-1-0.4-2-0.8-3-1.1l-0.6-0.2c-1-0.3-2-0.5-3-0.6c-0.4-0.1-0.7-0.1-1.1-0.1h-0.1h-0.2c-0.6-0.1-1.2-0.1-1.9-0.1h-0.6
			C590.9,255.3,589.2,255.5,587.4,255.8L587.4,255.8z M602.7,259.3L602.7,259.3L602.7,259.3z M610.5,264l0.1,0.1L610.5,264z
			 M574.6,264L574.6,264L574.6,264z M564.1,274.8C564.1,274.8,564.1,274.8,564.1,274.8C564.1,274.8,564.1,274.8,564.1,274.8z
			 M547.6,304.2l0.1-0.1L547.6,304.2z"/>
		<path class="st5" d="M648.2,233.9c-2.9,0.9-5.6,2.1-8.1,3.7c-2.4,1.5-4.6,3.2-6.7,5.1c-2.2,2-4.2,4.1-6.1,6.4
			c-3.7,4.5-7,9.4-9.8,14.5c-0.1,0.1-0.1,0.2-0.2,0.4c0,0.1,0,0.3,0,0.4c0,0.1,0.1,0.3,0.2,0.4c0.1,0.1,0.2,0.2,0.3,0.3
			c0.1,0.1,0.2,0.1,0.4,0.1c0.1,0,0.3,0,0.4,0c0.1,0,0.2-0.1,0.3-0.2c0.1-0.1,0.2-0.2,0.2-0.3c2.4-4.2,5-8.2,7.9-12.1
			c3.1-4.1,6.7-7.8,10.7-11l-0.2,0.1c2.5-1.9,5.2-3.5,8-4.8c2.2-0.9,4.5-1.6,6.8-1.9c2.1-0.3,4.3-0.3,6.4,0c2.3,0.3,4.6,1,6.8,1.9
			c2.8,1.2,5.5,2.8,7.9,4.7c4,3.2,7.5,6.8,10.6,10.9c0,0,0.1,0.1,0.1,0.1c3.5,4.6,6.6,9.5,9.3,14.6l0.1,0.1c2.6,4.8,4.9,9.7,7,14.7
			c0.6,1.5,1.2,2.9,1.8,4.4l0.1,0.2c1,2.4,1.9,4.8,2.7,7.3l0.5,1.4c0.1,0.3,0.2,0.6,0.3,1c0.2,0.7,0.5,1.4,0.7,2.2c0,0,0,0,0,0.1
			c0.8,2.4,1.6,4.8,2.3,7.3l0.3,0.9c0.1,0.3,0.2,0.5,0.2,0.8c0.1,0.3,0.2,0.6,0.2,0.8c0,0.3,0.2,0.5,0.4,0.6
			c0.2,0.2,0.5,0.2,0.7,0.2c0.3,0,0.5-0.2,0.6-0.4c0.2-0.2,0.2-0.5,0.2-0.7c0-0.1,0-0.2,0-0.2l-0.3-0.9c-0.1-0.2-0.1-0.4-0.2-0.6
			c-0.1-0.2-0.2-0.7-0.3-1v0c-0.7-2.4-1.5-4.9-2.3-7.3c0,0,0,0,0,0l-0.4-1.3c-0.1-0.3-0.2-0.5-0.3-0.8c0-0.1-0.1-0.2-0.1-0.3
			l-0.1-0.2c0-0.1-0.1-0.2-0.1-0.4c0-0.1,0-0.1-0.1-0.2l-0.1-0.2c-1-2.7-1.9-5.3-2.9-7.9c-2.7-7-5.8-13.8-9.4-20.4l0,0
			c-2.8-5.2-6-10.1-9.6-14.8c-3.5-4.7-7.7-8.8-12.4-12.3c-2.4-1.7-5-3.1-7.8-4.2c-2.8-1.1-5.7-1.7-8.6-1.9c-0.4,0-0.9,0-1.3,0
			c-2.5,0-5,0.4-7.5,1.1L648.2,233.9z M700.7,282v0.1V282z M684.3,252.7L684.3,252.7L684.3,252.7"/>
		<path class="st7" d="M-126.8,687.8c30.9,66,76.3,124.3,132.7,170.4c0.2-0.5,0.5-0.9,0.7-1.4C32.3,817.4,58,778,83.6,738.6
			L-22.1,527.1"/>
		<path class="st5" d="M578,887L320.8,376.4L5.9,858.2c79.9,65.1,178.4,103,281.3,108.2C390.1,971.6,492,943.8,578,887L578,887z"/>
		<path class="st7" d="M496.3,725.6L578,887l4.2-2.9c53.9-36.5,99.8-83.4,135.2-137.9L615.7,544.9L496.3,725.6z"/>
	</g>
</g>
<g id="Layer_2">
	<g class="st8">
		<path class="st2" d="M311.5,967c267,0,483.5-216.5,483.5-483.5S578.5,0,311.5,0S-172,216.5-172,483.5S44.5,967,311.5,967z"/>
		<path class="st9" d="M319.9,376.7L203.6,553.5C164,613.7,124.5,673.8,85,734c-25.2,38.4-50.4,76.7-75.6,115.1l-0.2,0.4l-1.7,2.6
			c-0.1,0.2-0.1,0.5-0.1,0.7c0.1,0.2,0.2,0.4,0.4,0.6c0.2,0.1,0.4,0.2,0.7,0.1c0.2,0,0.5-0.2,0.6-0.4c0.7-1,1.4-2.1,2.1-3.1
			c36.5-55.5,72.9-110.9,109.4-166.4l120-182.8c21.9-33.4,43.9-66.8,65.8-100.2l14.2-21.7c32,63.7,64.1,127.5,96.1,191.2l94.7,188.2
			c20.6,41,41.2,81.9,61.8,122.9l0.2,0.3c0,0,0,0,0,0.1c0.2,0.4,0.4,0.7,0.5,1.1c0.8,1.7,1.7,3.4,2.5,5c0.6-0.2,1.2-0.4,1.8-0.6
			l-1.5-3.1c-0.4-0.7-0.7-1.5-1.1-2.2c-26.9-53.5-53.8-107.1-80.8-160.7c-31.8-63.2-63.5-126.4-95.3-189.6
			c-26-51.6-51.9-103.3-77.9-154.9c-0.1-0.1-0.2-0.2-0.3-0.3h-0.1c-0.1-0.1-0.2-0.1-0.3-0.1c-0.1,0-0.3,0-0.4,0s-0.2,0.1-0.3,0.1
			C320,376.6,319.9,376.6,319.9,376.7"/>
		<path class="st9" d="M10.3,847.6c-1.7,2.6-3.4,5.2-5.1,7.8l-0.3,0.4l1.7,0.9l0.3-0.4l5.1-7.7c0.1-0.1,0.1-0.3,0.2-0.5
			c0-0.2,0-0.3-0.1-0.5s-0.2-0.3-0.3-0.4c-0.1-0.1-0.3-0.1-0.5-0.1s-0.3,0-0.5,0.1C10.5,847.4,10.4,847.5,10.3,847.6z"/>
		<path class="st9" d="M614.8,545.3l-37.5,57L539.4,660c-12.6,19.1-25.2,38.3-37.7,57.4l-5.4,8.2c-0.1,0.1-0.1,0.2-0.1,0.3
			s0,0.3,0,0.4c0,0.1,0.1,0.2,0.1,0.3c0.1,0.1,0.2,0.2,0.3,0.3s0.2,0.1,0.3,0.1s0.3,0,0.4,0c0.1,0,0.2-0.1,0.3-0.1
			c0.1-0.1,0.2-0.2,0.3-0.3l37.7-57.4c12.7-19.4,25.4-38.7,38.2-58.1l37.4-57l4.3-6.5v0.1c10.1,20.1,20.3,40.3,30.4,60.4l32.1,63.8
			c0.4,0.7,0.8,1.5,1.1,2.2c0.1,0.2,0.3,0.4,0.6,0.5s0.5,0.1,0.7-0.1c0.2-0.1,0.4-0.3,0.5-0.6c0.1-0.2,0.1-0.5-0.1-0.7l-32.1-63.8
			c-10.3-20.5-20.6-41-30.9-61.5l-0.6-1.2l-0.2-0.3l-0.6-1.2c-0.1-0.2-0.2-0.3-0.4-0.4c-0.2-0.1-0.3-0.1-0.5-0.1s-0.3,0-0.5,0.1
			C615,545.1,614.9,545.2,614.8,545.3"/>
		<g>
			<g>
				<g>
					<defs>
						<circle id="SVGID_1_" cx="311.5" cy="483.5" r="483.5"/>
					</defs>
					<clipPath id="SVGID_2_">
						<use xlink:href="#SVGID_1_"  style="overflow:visible;"/>
					</clipPath>
					<path id="shadow_right" class="st10" d="M466.6,713.7l93,173.3l4.2-2.9c53.9-36.5,99.8-83.4,135.2-137.9l-83.3-201.3
						L466.6,713.7z"/>
				</g>
			</g>
			<g>
				<g>
					<defs>
						<circle id="SVGID_3_" cx="311.5" cy="483.5" r="483.5"/>
					</defs>
					<clipPath id="SVGID_4_">
						<use xlink:href="#SVGID_3_"  style="overflow:visible;"/>
					</clipPath>
					<path id="mountain_right" class="st11" d="M496.3,725.6L578,887l4.2-2.9c53.9-36.5,99.8-83.4,135.2-137.9L615.7,544.9
						L496.3,725.6z"/>
				</g>
			</g>
			<g>
				<g>
					<defs>
						<circle id="SVGID_5_" cx="311.5" cy="483.5" r="483.5"/>
					</defs>
					<clipPath id="SVGID_6_">
						<use xlink:href="#SVGID_5_"  style="overflow:visible;"/>
					</clipPath>
					<path id="shadow_left" class="st12" d="M-159.7,675.8c30.9,66,84.2,136.2,140.7,182.3c0.2-0.5,0.5-0.9,0.7-1.4
						c25.7-39.4,51.4-78.8,77.1-118.2l-80.9-211.4L-159.7,675.8z"/>
				</g>
			</g>
			<g>
				<g>
					<defs>
						<circle id="SVGID_7_" cx="311.5" cy="483.5" r="483.5"/>
					</defs>
					<clipPath id="SVGID_8_">
						<use xlink:href="#SVGID_7_"  style="overflow:visible;"/>
					</clipPath>
					<path id="montain_left" class="st13" d="M-126.8,687.8c30.9,66,76.3,124.3,132.7,170.4c0.2-0.5,0.5-0.9,0.7-1.4
						C32.3,817.4,58,778,83.7,738.6L-22.1,527.1"/>
				</g>
			</g>
			<g>
				<g>
					<defs>
						<circle id="SVGID_9_" cx="311.5" cy="483.5" r="483.5"/>
					</defs>
					<clipPath id="SVGID_10_">
						<use xlink:href="#SVGID_9_"  style="overflow:visible;"/>
					</clipPath>
					<path id="shadow_middle" class="st14" d="M538.9,887L320.5,376.3L-44.8,835.6c79.9,65.1,190.1,125.6,293,130.8
						S453,943.8,538.9,887z"/>
				</g>
			</g>
			<g>
				<g>
					<defs>
						<circle id="SVGID_11_" cx="311.5" cy="483.5" r="483.5"/>
					</defs>
					<clipPath id="SVGID_12_">
						<use xlink:href="#SVGID_11_"  style="overflow:visible;"/>
					</clipPath>
					<path id="mountain_middle" class="st15" d="M578,887L320.8,376.4L5.9,858.2c79.9,65.1,178.4,103,281.3,108.2
						C390.1,971.6,492,943.8,578,887z"/>
				</g>
			</g>
		</g>
	</g>
	<path class="st6" d="M615.7,544.9l31.3,62c0,0-40.2,46.4-49.4,48.1c-16.5,3.1-54.3-28.2-54.3-28.2L615.7,544.9z"/>
	<g>
		<g>
			<g>
				<defs>
					<path id="SVGID_13_" d="M466.6,713.7l93,173.3l4.2-2.9c53.9-36.5-103-103.9-67.6-158.5l119.4-180.8L466.6,713.7z"/>
				</defs>
				<clipPath id="SVGID_14_">
					<use xlink:href="#SVGID_13_"  style="overflow:visible;"/>
				</clipPath>
				<path class="st16" d="M615.7,544.9l31.3,62c0,0-40.2,46.4-49.4,48.1c-16.5,3.1-54.3-28.2-54.3-28.2L615.7,544.9z"/>
			</g>
		</g>
	</g>
	<g id="snow_left">
		<path class="st6" d="M33.2,637.7c0,0-49.9,59.1-72.3,55.4c-21-3.5-45.5-49.5-47.4-70.6c-0.7-8.3,6.5-32.8,6.5-32.8l57.9-62.6
			L33.2,637.7z"/>
		<g id="shadow_snow">
			<g>
				<g>
					<defs>
						<path id="SVGID_15_" d="M-18.4,856.8c25.7-39.4-134.1-129.6-108.5-169l104.8-160.7l-137.6,148.7l32.9,12"/>
					</defs>
					<clipPath id="SVGID_16_">
						<use xlink:href="#SVGID_15_"  style="overflow:visible;"/>
					</clipPath>
					<path class="st17" d="M33.2,637.7c0,0-49.9,59.1-72.3,55.4c-21-3.5-45.5-49.5-47.4-70.6c-0.7-8.3,6.5-32.8,6.5-32.8l57.9-62.6
						L33.2,637.7z"/>
				</g>
			</g>
		</g>
	</g>
	<g id="snow_middle">
		<path class="st6" d="M320.5,375.5L382,497.8c0,0-91.7-47.5-128.1-20.4s-4-13.7-4-13.7L320.5,375.5z"/>
		<g>
			<g>
				<g>
					<defs>
						<polyline id="SVGID_17_" points="5.9,858.2 320.5,375.5 -44.8,835.6 5.9,858.2 						"/>
					</defs>
					<clipPath id="SVGID_18_">
						<use xlink:href="#SVGID_17_"  style="overflow:visible;"/>
					</clipPath>
					<path class="st18" d="M320.5,375.5L382,497.8c0,0-91.7-47.5-128.1-20.4s-4-13.7-4-13.7L320.5,375.5z"/>
				</g>
			</g>
		</g>
	</g>
	<g id="CLOUD_LEFT">
		<path class="st19" d="M31.2,129.9c-25.8,0-51.9,36.9-63.8,70.2c-1.9,5.3,0.9,11.1,6.2,13c1.1,0.4,2.2,0.6,3.4,0.6H89.4
			c5.6,0,10.2-4.6,10.2-10.2c0-1.3-0.3-2.6-0.7-3.8C84.2,164.2,56.8,129.9,31.2,129.9z"/>
		<path class="st6" d="M177.8,145.3c-20.7,0-41.6,29-51.5,55.8c-1.8,4.8,0.7,10.2,5.5,12c1,0.4,2.1,0.6,3.3,0.6h88.7
			c5.2,0,9.3-4.2,9.4-9.3c0-1.3-0.3-2.5-0.8-3.7C220.2,172.4,198.3,145.3,177.8,145.3z"/>
		<path class="st6" d="M188.6,213.7c-16.8-55.6-33.7-97.5-74.1-97.5c-40.9,0-82.3,47.1-95.2,97.5H188.6z"/>
	</g>
	<g id="Cloud_right">
		<path class="st19" d="M514.3,242.2c-21.8,0-43.8,31.1-53.7,59.2c-1.6,4.5,0.8,9.4,5.3,10.9c0.9,0.3,1.9,0.5,2.8,0.5h94.7
			c4.7,0,8.6-3.8,8.6-8.6c0-1.1-0.2-2.2-0.6-3.2C558.9,271,535.9,242.2,514.3,242.2z"/>
		<path class="st6" d="M637.8,255.1c-17.4,0-35,24.4-43.4,47c-1.5,4.1,0.6,8.6,4.6,10.1c0.9,0.3,1.8,0.5,2.7,0.5h74.7
			c4.3,0,7.9-3.5,7.9-7.8c0-1.1-0.2-2.1-0.6-3.1C673.5,277.9,655,255.1,637.8,255.1z"/>
		<path class="st6" d="M646.9,312.7c-14.1-46.9-28.4-82.1-62.4-82.1c-34.4,0-69.3,39.7-80.2,82.1H646.9z"/>
	</g>
	<g id="flag">
		<path class="st5" d="M349.7,330.5l-0.1-0.8H320v12.5h30v-0.9l-9.4-5L349.7,330.5z"/>
		<path class="st20" d="M320.1,329v47.6c0.1,0,0.1-0.3,0.2-0.3s0.2,0,0.3,0c0.2,0.1,0.3,0.1,0.4,0.3V329c0-0.1,0-0.2-0.1-0.3
			c-0.1-0.1-0.2-0.1-0.3-0.1c-0.1,0-0.2,0-0.3,0.1C320.1,328.8,320.1,328.9,320.1,329"/>
		<path class="st20" d="M320.6,376.8h-0.2c-0.2,0-0.4-0.2-0.4-0.4v-2.5h0.9v2.5C320.9,376.7,320.8,376.8,320.6,376.8z"/>
	</g>
</g>
</svg>
