<svg xmlns="http://www.w3.org/2000/svg" viewBox="0 0 1440 523.52"><defs><style>.cls-1{fill:#efcece;opacity:0.8;}.cls-2{fill:#bf6d6d;}.cls-3{fill:#ad4f4d;}.cls-4{fill:#ef7373;}.cls-5{fill:#ef6059;}.cls-6{fill:#f7f7f7;}.cls-7{fill:#fff;}</style></defs><title>mountainASH</title><g id="Layer_2" data-name="Layer 2"><g id="Layer_1-2" data-name="Layer 1"><path class="cls-1" d="M1440,.1H0v523H1440Z"/><path class="cls-2" d="M856,415.21c5.72.23,17.29,1.34,22.64,1.47L463.66,0H19.94L11.48,516.3h596.3S625.69,406,856,415.21Z"/><path class="cls-3" d="M836.64,410.81c5.72.23,11.24.4,16.59.53L443.72.1H0V523.52H573.12S606.35,401.54,836.64,410.81Z"/><path class="cls-4" d="M1311.11,209.39c-149.06,235.15-142.07,60.22-219.32,93-100.94,42.83-24.87,117.65-255.15,108.39S573.12,523.52,573.12,523.52H1440V154.75S1372.32,112.82,1311.11,209.39Z"/><path class="cls-5" d="M1311.11,239.06c-149.06,235.15-142.07,60.21-219.32,93-100.94,42.83-24.87,117.66-255.15,108.39-155.88-6.27-221.47,47.59-247.58,83H1440V184.41S1372.32,142.48,1311.11,239.06Z"/><path class="cls-6" d="M1053.07,70.41c-25.83,0-51.94,36.9-63.8,70.23a10.17,10.17,0,0,0,9.61,13.53h112.38a10.17,10.17,0,0,0,9.42-14C1106,104.7,1078.64,70.41,1053.07,70.41Z"/><path class="cls-7" d="M1199.61,85.82c-20.68,0-41.58,29-51.5,55.78a9.33,9.33,0,0,0,8.76,12.57h88.68a9.33,9.33,0,0,0,8.6-13C1242,112.84,1220.12,85.82,1199.61,85.82Z"/><path class="cls-7" d="M1210.47,154.17c-16.76-55.63-33.67-97.48-74.08-97.48-40.88,0-82.28,47.08-95.2,97.48Z"/></g></g></svg>