<svg id="Layer_1" data-name="Layer 1" xmlns="http://www.w3.org/2000/svg" xmlns:xlink="http://www.w3.org/1999/xlink" viewBox="0 0 937.08 935.5"><defs><style>.cls-1{fill:none;}.cls-2{fill:#fcdede;isolation:isolate;}.cls-2,.cls-3{opacity:0.8;}.cls-4{clip-path:url(#clip-path);}.cls-5{fill:#ffc783;}.cls-6{clip-path:url(#clip-path-4);}.cls-7{fill:#c4302c;}.cls-8{fill:#de4238;}.cls-9{fill:#ad4f4d;}.cls-10{fill:#993a3a;}.cls-11{clip-path:url(#clip-path-13);}.cls-12{fill:#d64747;}.cls-13{clip-path:url(#clip-path-16);}.cls-14{fill:#ef6059;}</style><clipPath id="clip-path" transform="translate(-0.1 -4.9)"><circle class="cls-1" cx="475.3" cy="447.1" r="442.2"/></clipPath><clipPath id="clip-path-4" transform="translate(-0.1 -4.9)"><path class="cls-1" d="M862.5,312.6s-83.7-4.9-127.7,97.6c-9.8,44.2-.9,85.7-.9,85.7s-16.5,34.6-15.4,73.6,19.8,82.5,90.2,100.2v59.6s-20.6,2.9-44,19.8S715.1,797,704,853.1s43.3,5.2,100.5-59.8c11.7-13.3,23.6-27.3,35-41,44.2-53.1,82.1-103,82.1-103l-10.8-5.7L900,637.9a166.71,166.71,0,0,1-44.1-12.4c-22-9.8-44-27-43.8-56.1,0,0,43.6-28.7,44.4-41.8s-23.8-12.3-40.3-18-36.7-33.5-41.1-61.5.9-36.4,3.2-50C778.3,398.1,763.7,357.6,862.5,312.6Z"/></clipPath><clipPath id="clip-path-13" transform="translate(-0.1 -4.9)"><path class="cls-1" d="M527.1,498.1c42.8-13.8,74.2-58.9,74.2-112.4,0-64.4-45.5-116.7-101.7-116.7S398,321.3,398,385.7c0,53.5,31.4,98.6,74.2,112.4,0,0,15.7,53.6-78.5,62.1L383,670.5l190.5-17.1,19.3-101.7S531.1,548.4,527.1,498.1Z"/></clipPath><clipPath id="clip-path-16" transform="translate(-0.1 -4.9)"><path class="cls-1" d="M393.6,560.2c-45,9.1-58.3,83.5-60.5,155.6s10.6,153.6,10.6,153.6l-15.4,29.7-11.7,41.3,202.8-10.8,202.8-10.8-18.7-42.3-18.7-42.3c1.6-123.1-14.5-193.8-30.9-233.6s-61.2-49-61.2-49-21.4,48.2-90.5,57.8S393.6,560.2,393.6,560.2Z"/></clipPath></defs><title>offerFinalSize</title><g id="Layer_1-2" data-name="Layer 1"><circle class="cls-2" cx="475.2" cy="442.2" r="442.2"/><g class="cls-3"><g id="left_neck" data-name="left neck"><g class="cls-4"><polygon class="cls-5" points="195.6 694.4 195.6 640.8 99.6 677.7 109.3 703.8 195.6 694.4"/></g></g><g id="cloth_right" data-name="cloth right"><g class="cls-4"><path class="cls-5" d="M862.5,312.6s-83.7-4.9-127.7,97.6c-9.8,44.2-.9,85.7-.9,85.7s-16.5,34.6-15.4,73.6,19.8,82.5,90.2,100.2v59.6s-20.6,2.9-44,19.8S715.1,797,704,853.1s43.3,5.2,100.5-59.8c11.7-13.3,23.6-27.3,35-41,44.2-53.1,82.1-103,82.1-103l-10.8-5.7L900,637.9a166.71,166.71,0,0,1-44.1-12.4c-22-9.8-44-27-43.8-56.1,0,0,43.6-28.7,44.4-41.8s-23.8-12.3-40.3-18-36.7-33.5-41.1-61.5.9-36.4,3.2-50C778.3,398.1,763.7,357.6,862.5,312.6Z" transform="translate(-0.1 -4.9)"/></g><g class="cls-4"><g class="cls-6"><path class="cls-7" d="M729.3,436.9c2.2,30.9,7.1,69.4,34.9,89.9,11.9,8.8,41.7,20.9,10.7,58s102.8,74.8,102.8,74.8,108.9-155.5,21-345.1c0,0-53.7-2.2-87.1,6.8A111.41,111.41,0,0,0,729.3,436.9Z" transform="translate(-0.1 -4.9)"/></g></g></g><g id="hair_right" data-name="hair right"><g class="cls-4"><path class="cls-8" d="M733.5,434.4c2.2,30.9,7.1,69.4,34.9,89.9,11.9,8.8,41.7,20.9,10.7,58s102.8,74.8,102.8,74.8,108.9-155.5,21-345.1c0,0-53.7-2.2-87.1,6.8A111.48,111.48,0,0,0,733.5,434.4Z" transform="translate(-0.1 -4.9)"/></g></g><g id="head_left" data-name="head left"><g class="cls-4"><path class="cls-5" d="M254.8,517.1c0,77-48,132.8-89.9,145.6-41,12.5-65.2-68.6-65.2-145.6s34.7-139.3,77.5-139.3S254.8,440.1,254.8,517.1Z" transform="translate(-0.1 -4.9)"/></g></g><g id="cloth_left" data-name="cloth left"><g class="cls-4"><path class="cls-9" d="M195.7,699.3s109.7,26.6,141.5,161.4S87.7,763.1,87.7,763.1l21.8-54.3" transform="translate(-0.1 -4.9)"/></g><g class="cls-4"><path class="cls-10" d="M190.1,699.9s100.8,29.7,132.6,164.4S73.1,766.7,73.1,766.7L97.6,710Z" transform="translate(-0.1 -4.9)"/></g></g><g id="hair_left" data-name="hair left"><g class="cls-4"><path class="cls-9" d="M81,695.8c57.9-6.2,96.2-34.3,120.1-60.8s33.2-51.5,33.2-51.5c-33.9-7.6-43.9-16.3-45.4-23.1s5.4-11.7,5.4-11.7c-32.1-13.8-36.8-29.6-33.4-42s14.7-21.3,14.7-21.3S196.8,469.1,212,447s24.6-50.2,1-73.9-66.2-27.2-102.8-24.8a393.44,393.44,0,0,0-67.4,10.6s-33,60.7-27.6,162.8C18.6,588.9,81,695.8,81,695.8Z" transform="translate(-0.1 -4.9)"/></g><g class="cls-4"><path class="cls-10" d="M66.5,700.1c57.9-6.2,96.2-34.3,120.1-60.8s33.2-51.5,33.2-51.5c-33.9-7.6-43.9-16.3-45.4-23.1s5.4-11.7,5.4-11.7c-32.1-13.8-36.8-29.6-33.4-42s14.7-21.3,14.7-21.3,21.2-16.3,36.4-38.4,24.6-50.2,1-73.9-66.2-27.2-102.8-24.8a393.44,393.44,0,0,0-67.4,10.6S-4.7,423.9.7,526C4.2,593.1,66.5,700.1,66.5,700.1Z" transform="translate(-0.1 -4.9)"/></g></g><g id="head_middle" data-name="head middle"><g class="cls-4"><path class="cls-5" d="M527.1,498.1c42.8-13.8,74.2-58.9,74.2-112.4,0-64.4-45.5-116.7-101.7-116.7S398,321.3,398,385.7c0,53.5,31.4,98.6,74.2,112.4,0,0,15.7,53.6-78.5,62.1L383,670.5l190.5-17.1,19.3-101.7S531.1,548.4,527.1,498.1Z" transform="translate(-0.1 -4.9)"/></g><g class="cls-4"><g id="REMOVE_FOR_TEST" data-name="REMOVE FOR TEST"><g class="cls-11"><path class="cls-12" d="M503.4,323.5c-11.4-15.2-16.8-24.2-34.3-16.8-16.4,7-40.4,11.7-41,26.6-.6,15.6,11.2,51.4-13.6,70.8a42.24,42.24,0,0,0-15.8,27.6c-2.1,15.9-12.2,35.2-49.9,30.4-24.4-3.1-39.1-20-47.9-39.5-12.8-28.2-7.6-61,11.8-85.2,6.1-7.6,4.2-15.4,4-26.6-.5-21.5,10.7-28.4,27.3-37a41.7,41.7,0,0,0,21.9-28.9c4-20.1,19.5-47.3,74.7-40.9a41.45,41.45,0,0,0,22.5-3.6c28.2-13.2,107.3-39.7,155.3,50.8a41.09,41.09,0,0,0,16.1,16.7c19.6,11,59.1,38.9,51.4,82.4-2.2,12.2,1,24.9,9.5,34,7.8,8.2,10,21.9-15.9,42.7-11.5,9.2-22.8-6.4-36.5-11.8-22.1-8.6-53.6-9.8-63-35.8-4.8-13.1-20.4-21.1-33.9-24.5C533.6,351.7,518.2,343.3,503.4,323.5Z" transform="translate(-0.1 -4.9)"/></g></g></g></g><g id="cloth_middle" data-name="cloth middle"><g class="cls-4"><path class="cls-8" d="M393.6,560.2c-45,9.1-58.3,83.5-60.5,155.6s10.6,153.6,10.6,153.6l-15.4,29.7-11.7,41.3,202.8-10.8,202.8-10.8-18.7-42.3-18.7-42.3c1.6-123.1-14.5-193.8-30.9-233.6s-61.2-49-61.2-49-21.4,48.2-90.5,57.8S393.6,560.2,393.6,560.2Z" transform="translate(-0.1 -4.9)"/></g><g class="cls-4"><g class="cls-13"><path class="cls-14" d="M380.5,566.8c-45.2,8-48.1,82.7-50.2,145.7s7,124.1,7,124.1l5.5,46.5-29,25.8,203.7-9.5,203.7-9.5-34.9-29.6L683.6,816c1.6-107.6-8.1-183.5-24.6-218.3s-52.6-45.3-52.6-45.3-36.8,58.7-106.1,67.1C430.8,628,380.5,566.8,380.5,566.8Z" transform="translate(-0.1 -4.9)"/></g></g></g><g id="hair_middle" data-name="hair middle"><g class="cls-4"><path class="cls-14" d="M500,313.9c-11.4-15.2-16.8-24.2-34.3-16.8-16.4,7-40.4,11.7-41,26.6-.6,15.6,11.2,51.4-13.6,70.8a42.24,42.24,0,0,0-15.8,27.6c-2.1,15.9-12.2,35.2-49.9,30.4-24.4-3.1-39.1-20-47.9-39.5-12.8-28.2-7.6-61,11.8-85.2,6.1-7.6,4.2-15.4,4-26.6-.5-21.5,10.7-28.4,27.3-37a41.7,41.7,0,0,0,21.9-28.9c4-20.1,19.5-47.3,74.7-40.9a41.45,41.45,0,0,0,22.5-3.6C487.9,177.5,567,151,615,241.6a41.09,41.09,0,0,0,16.1,16.7c19.6,11,59.1,38.9,51.4,82.4-2.2,12.2,1,24.9,9.5,34,7.8,8.2,10,21.9-15.9,42.7a41,41,0,0,1-40.7,6.1c-22.1-8.6-54.5-25.4-64-51.4-4.8-13.1-15.3-23.4-28.8-26.9C530.1,342,514.7,333.6,500,313.9Z" transform="translate(-0.1 -4.9)"/></g></g></g></g></svg>