<?xml version="1.0" encoding="utf-8"?>
<!-- Generator: Adobe Illustrator 24.0.3, SVG Export Plug-In . SVG Version: 6.00 Build 0)  -->
<svg version="1.1" id="Layer_1" xmlns="http://www.w3.org/2000/svg" xmlns:xlink="http://www.w3.org/1999/xlink" x="0px" y="0px"
	 viewBox="0 0 1000 1000" style="enable-background:new 0 0 1000 1000;" xml:space="preserve">
<style type="text/css">
	.st0{opacity:0.8;fill:#FCDEDE;}
	.st1{opacity:0.8;}
	.st2{clip-path:url(#SVGID_2_);fill:#FFC783;}
	.st3{clip-path:url(#SVGID_2_);fill:#AD4F4D;}
	.st4{clip-path:url(#SVGID_2_);fill:#DE4238;}
	.st5{clip-path:url(#SVGID_2_);fill:#EF6059;}
</style>
<circle class="st0" cx="475.33" cy="447.07" r="442.25"/>
<g class="st1">
	<defs>
		<circle id="SVGID_1_" class="st1" cx="475.33" cy="447.07" r="442.25"/>
	</defs>
	<clipPath id="SVGID_2_">
		<use xlink:href="#SVGID_1_"  style="overflow:visible;"/>
	</clipPath>
	<polygon class="st2" points="195.7,699.34 195.7,645.71 99.7,682.57 109.42,708.73 	"/>
	<path class="st2" d="M254.75,517.1c0,76.95-48.01,132.82-89.9,145.57C123.89,675.14,99.7,594.05,99.7,517.1
		s34.71-139.33,77.52-139.33S254.75,440.15,254.75,517.1z"/>
	<path class="st3" d="M80.99,695.79c57.92-6.24,96.24-34.31,120.07-60.82c23.84-26.51,33.19-51.46,33.19-51.46
		c-33.86-7.57-43.89-16.26-45.44-23.06c-1.56-6.79,5.35-11.7,5.35-11.7c-32.08-13.81-36.76-29.63-33.42-41.99
		c3.34-12.36,14.7-21.27,14.7-21.27s21.16-16.26,36.42-38.43c15.26-22.17,24.62-50.23,1-73.85
		c-23.61-23.61-66.16-27.18-102.81-24.84c-36.65,2.34-67.39,10.58-67.39,10.58S9.62,419.6,15.05,521.78
		C18.61,588.86,80.99,695.79,80.99,695.79z"/>
	<path class="st2" d="M862.52,312.59c0,0-83.68-4.94-127.71,97.58c-9.79,44.19-0.87,85.7-0.87,85.7s-16.49,34.57-15.38,73.59
		c1.11,39.02,19.83,82.47,90.24,100.24v29.82v29.82c0,0-20.64,2.9-44.04,19.82c-23.41,16.92-49.58,47.87-60.67,103.97
		c-11.08,56.1,43.32,5.17,100.5-59.79c11.74-13.34,23.6-27.27,35.03-40.98c44.24-53.08,82.1-102.96,82.1-102.96l-10.78-5.71
		l-10.78-5.71c0,0-22.1-2.54-44.14-12.37c-22.05-9.83-44.04-26.96-43.83-56.14c0,0,43.63-28.66,44.37-41.83s-23.8-12.29-40.3-18
		c-16.49-5.71-36.67-33.46-41.11-61.53c-4.44-28.07,0.92-36.4,3.19-49.95C778.33,398.15,763.68,357.58,862.52,312.59z"/>
	<path class="st3" d="M195.7,699.34c0,0,109.73,26.64,141.5,161.4S87.68,763.06,87.68,763.06l21.75-54.32"/>
	<path class="st4" d="M733.53,434.43c2.21,30.86,10.98,64.94,34.88,89.93c0,0,41.71,20.86,10.68,57.99s102.75,74.78,102.75,74.78
		s108.88-155.53,20.97-345.09c0,0-53.72-2.16-87.12,6.78C764.19,332.59,729.72,381.24,733.53,434.43z"/>
	<path class="st2" d="M527.14,498.09c42.8-13.76,74.19-58.85,74.19-112.36c0-64.44-45.53-116.68-101.68-116.68
		s-101.68,52.24-101.68,116.68c0,53.51,31.39,98.6,74.19,112.36c0,0,15.71,53.56-78.49,62.13l-10.7,110.26l190.54-17.13
		l19.27-101.69C592.76,551.65,531.1,548.36,527.14,498.09z"/>
	<path class="st5" d="M393.65,560.22c-44.96,9.1-58.34,83.5-60.48,155.62c-2.14,72.12,6.96,141.97,6.96,141.97l-11.71,41.31
		l-11.71,41.31l202.78-10.81l202.78-10.81l-18.73-42.28l-18.73-42.28c1.61-123.1-14.45-193.75-30.91-233.63
		c-16.46-39.87-61.15-48.97-61.15-48.97s-21.41,48.17-90.45,57.81S393.65,560.22,393.65,560.22z"/>
	<path class="st5" d="M499.95,313.86c-11.4-15.24-16.78-24.23-34.29-16.78c-16.37,6.97-40.41,11.68-40.96,26.56
		c-0.58,15.56,11.21,51.37-13.57,70.78c-8.69,6.8-14.33,16.66-15.77,27.59c-2.1,15.91-12.17,35.22-49.87,30.44
		c-24.43-3.09-39.08-20.05-47.86-39.48c-12.77-28.25-7.6-61.03,11.78-85.23c6.1-7.61,4.2-15.41,3.97-26.6
		c-0.45-21.46,10.72-28.43,27.28-36.96c11.31-5.82,19.36-16.41,21.86-28.88c4.01-20.06,19.46-47.28,74.69-40.9
		c7.7,0.89,15.49-0.33,22.51-3.63c28.21-13.25,107.3-39.72,155.31,50.83c3.7,6.98,9.24,12.82,16.14,16.68
		c19.64,10.98,59.13,38.86,51.4,82.35c-2.17,12.21,0.95,24.94,9.46,33.96c7.78,8.25,10.05,21.94-15.91,42.74
		c-11.47,9.19-27.02,11.51-40.71,6.15c-22.1-8.65-54.5-25.36-63.95-51.43c-4.75-13.1-15.28-23.41-28.77-26.87
		C530.07,341.98,514.68,333.58,499.95,313.86z"/>
</g>
</svg>
