<?xml version="1.0" encoding="utf-8"?>
<!-- Generator: Adobe Illustrator 24.0.3, SVG Export Plug-In . SVG Version: 6.00 Build 0)  -->
<svg version="1.1" xmlns="http://www.w3.org/2000/svg" xmlns:xlink="http://www.w3.org/1999/xlink" x="0px" y="0px"
	 viewBox="0 0 1000 1000" style="enable-background:new 0 0 1000 1000;" xml:space="preserve">
<style type="text/css">
	.st0{opacity:0.8;fill:#FCDEDE;enable-background:new    ;}
	.st1{opacity:0.8;}
	.st2{clip-path:url(#SVGID_2_);fill:#FFC783;}
	.st3{clip-path:url(#SVGID_4_);fill:#FFC783;}
	.st4{clip-path:url(#SVGID_4_);}
	.st5{clip-path:url(#SVGID_6_);fill:#C4302C;}
	.st6{clip-path:url(#SVGID_8_);fill:#DE4238;}
	.st7{clip-path:url(#SVGID_10_);fill:#FFC783;}
	.st8{clip-path:url(#SVGID_12_);fill:#AD4F4D;}
	.st9{clip-path:url(#SVGID_12_);fill:#993A3A;}
	.st10{clip-path:url(#SVGID_14_);fill:#AD4F4D;}
	.st11{clip-path:url(#SVGID_14_);fill:#993A3A;}
	.st12{clip-path:url(#SVGID_16_);fill:#FFC783;}
	.st13{clip-path:url(#SVGID_16_);}
	.st14{clip-path:url(#SVGID_18_);fill:#D64747;}
	.st15{clip-path:url(#SVGID_20_);fill:#DE4238;}
	.st16{clip-path:url(#SVGID_20_);}
	.st17{clip-path:url(#SVGID_22_);fill:#EF6059;}
	.st18{clip-path:url(#SVGID_24_);fill:#EF6059;}
</style>
<g id="Layer_1">
	<circle class="st0" cx="475.3" cy="447.1" r="442.2"/>
	<g class="st1">
		<g id="left_neck">
			<defs>
				<circle id="SVGID_1_" cx="475.3" cy="447.1" r="442.2"/>
			</defs>
			<clipPath id="SVGID_2_">
				<use xlink:href="#SVGID_1_"  style="overflow:visible;"/>
			</clipPath>
			<polygon class="st2" points="195.7,699.3 195.7,645.7 99.7,682.6 109.4,708.7 			"/>
		</g>
		<g id="cloth_right">
			<defs>
				<circle id="SVGID_3_" cx="475.3" cy="447.1" r="442.2"/>
			</defs>
			<clipPath id="SVGID_4_">
				<use xlink:href="#SVGID_3_"  style="overflow:visible;"/>
			</clipPath>
			<path class="st3" d="M862.5,312.6c0,0-83.7-4.9-127.7,97.6c-9.8,44.2-0.9,85.7-0.9,85.7s-16.5,34.6-15.4,73.6
				c1.1,39,19.8,82.5,90.2,100.2v29.8v29.8c0,0-20.6,2.9-44,19.8c-23.4,16.9-49.6,47.9-60.7,104c-11.1,56.1,43.3,5.2,100.5-59.8
				c11.7-13.3,23.6-27.3,35-41c44.2-53.1,82.1-103,82.1-103l-10.8-5.7l-10.8-5.7c0,0-22.1-2.5-44.1-12.4c-22-9.8-44-27-43.8-56.1
				c0,0,43.6-28.7,44.4-41.8s-23.8-12.3-40.3-18c-16.5-5.7-36.7-33.5-41.1-61.5s0.9-36.4,3.2-50
				C778.3,398.1,763.7,357.6,862.5,312.6z"/>
			<g class="st4">
				<defs>
					<path id="SVGID_5_" d="M862.5,312.6c0,0-83.7-4.9-127.7,97.6c-9.8,44.2-0.9,85.7-0.9,85.7s-16.5,34.6-15.4,73.6
						c1.1,39,19.8,82.5,90.2,100.2v29.8v29.8c0,0-20.6,2.9-44,19.8c-23.4,16.9-49.6,47.9-60.7,104c-11.1,56.1,43.3,5.2,100.5-59.8
						c11.7-13.3,23.6-27.3,35-41c44.2-53.1,82.1-103,82.1-103l-10.8-5.7l-10.8-5.7c0,0-22.1-2.5-44.1-12.4c-22-9.8-44-27-43.8-56.1
						c0,0,43.6-28.7,44.4-41.8s-23.8-12.3-40.3-18c-16.5-5.7-36.7-33.5-41.1-61.5s0.9-36.4,3.2-50
						C778.3,398.1,763.7,357.6,862.5,312.6z"/>
				</defs>
				<clipPath id="SVGID_6_">
					<use xlink:href="#SVGID_5_"  style="overflow:visible;"/>
				</clipPath>
				<path class="st5" d="M729.3,436.9c2.2,30.9,7.1,69.4,34.9,89.9c11.9,8.8,41.7,20.9,10.7,58s102.8,74.8,102.8,74.8
					s108.9-155.5,21-345.1c0,0-53.7-2.2-87.1,6.8C760,335,725.5,383.7,729.3,436.9z"/>
			</g>
		</g>
		<g id="hair_right">
			<defs>
				<circle id="SVGID_7_" cx="475.3" cy="447.1" r="442.2"/>
			</defs>
			<clipPath id="SVGID_8_">
				<use xlink:href="#SVGID_7_"  style="overflow:visible;"/>
			</clipPath>
			<path class="st6" d="M733.5,434.4c2.2,30.9,7.1,69.4,34.9,89.9c11.9,8.8,41.7,20.9,10.7,58s102.8,74.8,102.8,74.8
				s108.9-155.5,21-345.1c0,0-53.7-2.2-87.1,6.8C764.2,332.6,729.7,381.2,733.5,434.4z"/>
		</g>
		<g id="head_left">
			<defs>
				<circle id="SVGID_9_" cx="475.3" cy="447.1" r="442.2"/>
			</defs>
			<clipPath id="SVGID_10_">
				<use xlink:href="#SVGID_9_"  style="overflow:visible;"/>
			</clipPath>
			<path class="st7" d="M254.8,517.1c0,77-48,132.8-89.9,145.6c-41,12.5-65.2-68.6-65.2-145.6s34.7-139.3,77.5-139.3
				S254.8,440.1,254.8,517.1z"/>
		</g>
		<g id="cloth_left">
			<defs>
				<circle id="SVGID_11_" cx="475.3" cy="447.1" r="442.2"/>
			</defs>
			<clipPath id="SVGID_12_">
				<use xlink:href="#SVGID_11_"  style="overflow:visible;"/>
			</clipPath>
			<path class="st8" d="M195.7,699.3c0,0,109.7,26.6,141.5,161.4S87.7,763.1,87.7,763.1l21.8-54.3"/>
			<path class="st9" d="M190.1,699.9c0,0,100.8,29.7,132.6,164.4S73.1,766.7,73.1,766.7L97.6,710L190.1,699.9z"/>
		</g>
		<g id="hair_left">
			<defs>
				<circle id="SVGID_13_" cx="475.3" cy="447.1" r="442.2"/>
			</defs>
			<clipPath id="SVGID_14_">
				<use xlink:href="#SVGID_13_"  style="overflow:visible;"/>
			</clipPath>
			<path class="st10" d="M81,695.8c57.9-6.2,96.2-34.3,120.1-60.8c23.8-26.5,33.2-51.5,33.2-51.5c-33.9-7.6-43.9-16.3-45.4-23.1
				c-1.6-6.8,5.4-11.7,5.4-11.7c-32.1-13.8-36.8-29.6-33.4-42s14.7-21.3,14.7-21.3s21.2-16.3,36.4-38.4c15.3-22.2,24.6-50.2,1-73.9
				c-23.6-23.6-66.2-27.2-102.8-24.8s-67.4,10.6-67.4,10.6s-33,60.7-27.6,162.8C18.6,588.9,81,695.8,81,695.8z"/>
			<path class="st11" d="M66.5,700.1c57.9-6.2,96.2-34.3,120.1-60.8c23.8-26.5,33.2-51.5,33.2-51.5c-33.9-7.6-43.9-16.3-45.4-23.1
				c-1.6-6.8,5.4-11.7,5.4-11.7c-32.1-13.8-36.8-29.6-33.4-42c3.3-12.4,14.7-21.3,14.7-21.3s21.2-16.3,36.4-38.4
				c15.3-22.2,24.6-50.2,1-73.9c-23.6-23.6-66.2-27.2-102.8-24.8s-67.4,10.6-67.4,10.6s-33,60.7-27.6,162.8
				C4.2,593.1,66.5,700.1,66.5,700.1z"/>
		</g>
		<g id="head_middle">
			<defs>
				<circle id="SVGID_15_" cx="475.3" cy="447.1" r="442.2"/>
			</defs>
			<clipPath id="SVGID_16_">
				<use xlink:href="#SVGID_15_"  style="overflow:visible;"/>
			</clipPath>
			<path class="st12" d="M527.1,498.1c42.8-13.8,74.2-58.9,74.2-112.4c0-64.4-45.5-116.7-101.7-116.7S398,321.3,398,385.7
				c0,53.5,31.4,98.6,74.2,112.4c0,0,15.7,53.6-78.5,62.1L383,670.5l190.5-17.1l19.3-101.7C592.8,551.7,531.1,548.4,527.1,498.1z"/>
			<g id="REMOVE_FOR_TEST" class="st13">
				<defs>
					<path id="SVGID_17_" d="M527.1,498.1c42.8-13.8,74.2-58.9,74.2-112.4c0-64.4-45.5-116.7-101.7-116.7S398,321.3,398,385.7
						c0,53.5,31.4,98.6,74.2,112.4c0,0,15.7,53.6-78.5,62.1L383,670.5l190.5-17.1l19.3-101.7C592.8,551.7,531.1,548.4,527.1,498.1z"
						/>
				</defs>
				<clipPath id="SVGID_18_">
					<use xlink:href="#SVGID_17_"  style="overflow:visible;"/>
				</clipPath>
				<path class="st14" d="M503.4,323.5c-11.4-15.2-16.8-24.2-34.3-16.8c-16.4,7-40.4,11.7-41,26.6c-0.6,15.6,11.2,51.4-13.6,70.8
					c-8.7,6.8-14.3,16.7-15.8,27.6c-2.1,15.9-12.2,35.2-49.9,30.4c-24.4-3.1-39.1-20-47.9-39.5c-12.8-28.2-7.6-61,11.8-85.2
					c6.1-7.6,4.2-15.4,4-26.6c-0.5-21.5,10.7-28.4,27.3-37c11.3-5.8,19.4-16.4,21.9-28.9c4-20.1,19.5-47.3,74.7-40.9
					c7.7,0.9,15.5-0.3,22.5-3.6c28.2-13.2,107.3-39.7,155.3,50.8c3.7,7,9.2,12.8,16.1,16.7c19.6,11,59.1,38.9,51.4,82.4
					c-2.2,12.2,1,24.9,9.5,34c7.8,8.2,10,21.9-15.9,42.7c-11.5,9.2-22.8-6.4-36.5-11.8c-22.1-8.6-53.6-9.8-63-35.8
					c-4.8-13.1-20.4-21.1-33.9-24.5C533.6,351.7,518.2,343.3,503.4,323.5z"/>
			</g>
		</g>
		<g id="cloth_middle">
			<defs>
				<circle id="SVGID_19_" cx="475.3" cy="447.1" r="442.2"/>
			</defs>
			<clipPath id="SVGID_20_">
				<use xlink:href="#SVGID_19_"  style="overflow:visible;"/>
			</clipPath>
			<path class="st15" d="M393.6,560.2c-45,9.1-58.3,83.5-60.5,155.6s10.6,153.6,10.6,153.6l-15.4,29.7l-11.7,41.3l202.8-10.8
				l202.8-10.8l-18.7-42.3l-18.7-42.3c1.6-123.1-14.5-193.8-30.9-233.6c-16.5-39.9-61.2-49-61.2-49s-21.4,48.2-90.5,57.8
				S393.6,560.2,393.6,560.2z"/>
			<g class="st16">
				<defs>
					<path id="SVGID_21_" d="M393.6,560.2c-45,9.1-58.3,83.5-60.5,155.6s10.6,153.6,10.6,153.6l-15.4,29.7l-11.7,41.3l202.8-10.8
						l202.8-10.8l-18.7-42.3l-18.7-42.3c1.6-123.1-14.5-193.8-30.9-233.6c-16.5-39.9-61.2-49-61.2-49s-21.4,48.2-90.5,57.8
						S393.6,560.2,393.6,560.2z"/>
				</defs>
				<clipPath id="SVGID_22_">
					<use xlink:href="#SVGID_21_"  style="overflow:visible;"/>
				</clipPath>
				<path class="st17" d="M380.5,566.8c-45.2,8-48.1,82.7-50.2,145.7s7,124.1,7,124.1l5.5,46.5l-29,25.8l203.7-9.5l203.7-9.5
					l-34.9-29.6l-2.7-44.3c1.6-107.6-8.1-183.5-24.6-218.3c-16.5-34.9-52.6-45.3-52.6-45.3s-36.8,58.7-106.1,67.1
					C430.8,628,380.5,566.8,380.5,566.8z"/>
			</g>
		</g>
		<g id="hair_middle">
			<defs>
				<circle id="SVGID_23_" cx="475.3" cy="447.1" r="442.2"/>
			</defs>
			<clipPath id="SVGID_24_">
				<use xlink:href="#SVGID_23_"  style="overflow:visible;"/>
			</clipPath>
			<path class="st18" d="M500,313.9c-11.4-15.2-16.8-24.2-34.3-16.8c-16.4,7-40.4,11.7-41,26.6c-0.6,15.6,11.2,51.4-13.6,70.8
				c-8.7,6.8-14.3,16.7-15.8,27.6c-2.1,15.9-12.2,35.2-49.9,30.4c-24.4-3.1-39.1-20-47.9-39.5c-12.8-28.2-7.6-61,11.8-85.2
				c6.1-7.6,4.2-15.4,4-26.6c-0.5-21.5,10.7-28.4,27.3-37c11.3-5.8,19.4-16.4,21.9-28.9c4-20.1,19.5-47.3,74.7-40.9
				c7.7,0.9,15.5-0.3,22.5-3.6C487.9,177.5,567,151,615,241.6c3.7,7,9.2,12.8,16.1,16.7c19.6,11,59.1,38.9,51.4,82.4
				c-2.2,12.2,1,24.9,9.5,34c7.8,8.2,10,21.9-15.9,42.7c-11.5,9.2-27,11.5-40.7,6.1c-22.1-8.6-54.5-25.4-64-51.4
				c-4.8-13.1-15.3-23.4-28.8-26.9C530.1,342,514.7,333.6,500,313.9z"/>
		</g>
	</g>
</g>
<g id="Layer_2">
</g>
</svg>
