<svg id="Calque_1" data-name="Calque 1" xmlns="http://www.w3.org/2000/svg" viewBox="0 0 2000 1986.99"><defs><style>.cls-1{fill:#e3f0ff;}.cls-2{fill:#efcece;opacity:0.8;}.cls-3{fill:#bf6d6d;}.cls-4{fill:#ad4f4d;}.cls-5{fill:#ef7373;}.cls-6{fill:#ef6059;}.cls-7{fill:#f7f7f7;}.cls-8{fill:#fff;}.cls-9{fill:#4b7fd1;}</style></defs><title>parallax0</title><polygon class="cls-1" points="2000 1108.78 2000 1108.78 2000 1108.78 2000 1108.78"/><path class="cls-1" d="M1954.32,1108.78Z"/><path class="cls-2" d="M2000,.14H0V726.53H2000Z"/><path class="cls-3" d="M1188.85,576.68c7.94.32,24,1.86,31.44,2L644,0H27.7L16,717.09H844.13S869,563.81,1188.85,576.68Z"/><path class="cls-4" d="M1162,570.57q11.91.48,23,.74L616.28.14H0v727H796S842.16,557.7,1162,570.57Z"/><path class="cls-5" d="M1821,290.82c-207,326.6-197.32,83.64-304.61,129.21-140.2,59.48-34.55,163.4-354.38,150.54S796,727.11,796,727.11H2000V214.93S1906,156.69,1821,290.82Z"/><path class="cls-6" d="M1821,332c-207,326.6-197.32,83.64-304.61,129.21-140.2,59.48-34.55,163.4-354.38,150.54-216.5-8.71-307.59,66.09-343.86,115.34H2000v-471S1906,197.89,1821,332Z"/><g id="clouds"><path class="cls-7" d="M1462.59,97.79c-35.87,0-72.13,51.26-88.6,97.54a14.12,14.12,0,0,0,13.35,18.8h156.08a14.13,14.13,0,0,0,13.08-19.52C1536.05,145.42,1498.11,97.79,1462.59,97.79Z"/><path class="cls-8" d="M1666.13,119.19c-28.73,0-57.76,40.27-71.54,77.48a13,13,0,0,0,12.17,17.46h123.17a13,13,0,0,0,12-18C1725,156.72,1694.61,119.19,1666.13,119.19Z"/><path class="cls-8" d="M1681.21,214.13c-23.28-77.27-46.76-135.4-102.89-135.4-56.77,0-114.28,65.39-132.23,135.4Z"/></g><path class="cls-9" d="M0,727.11V1987H2000V727.11"/></svg>