<svg xmlns="http://www.w3.org/2000/svg" viewBox="0 0 2000 1741"><defs><style>.cls-1{fill:#76a0f4;}.cls-2{fill:#97bfff;}.cls-3{fill:#c0daff;}.cls-4{fill:#e3f0ff;}</style></defs><title>parallax2_1</title><g id="Layer_2" data-name="Layer 2"><g id="Calque_1" data-name="Calque 1"><path class="cls-1" d="M0,0V1741H2000V0"/><path class="cls-2" d="M1408.47,216C1056.73,396,460.62,125,184,216,91,246.57,36.1,256.6,0,256.44V1669H2000V216C1802.82,216,1760.21,36,1408.47,216Z"/><path class="cls-3" d="M1161.47,499C836.94,292,903,567,497.39,499S165.8,499,0,499V1551H2000V499C1720.49,499,1486,706,1161.47,499Z"/><path class="cls-4" d="M903,988.39C380,1307.1.13,874.81,0,874.79H0V1741H2000V874.79C1627.64,874.79,1426,669.68,903,988.39Z"/></g></g></svg>