<svg id="Layer_1" data-name="Layer 1" xmlns="http://www.w3.org/2000/svg" viewBox="0 0 1440 772.1"><defs><style>.cls-1{fill:#efcece;opacity:0.8;}.cls-2{fill:#bf6d6d;}.cls-3{fill:#ad4f4d;}.cls-4{fill:#ef7373;}.cls-5{fill:#ef6059;}.cls-6{fill:#f7f7f7;}.cls-7{fill:#fff;}.cls-8{fill:#4b7fd1;}</style></defs><title>parallax1</title><path class="cls-1" d="M1440,0H0V523H1440Z" transform="translate(0 0.1)"/><path class="cls-2" d="M856,415.11c5.72.23,17.29,1.34,22.64,1.47L463.66-.1H19.94L11.48,516.2h596.3S625.69,405.84,856,415.11Z" transform="translate(0 0.1)"/><path class="cls-3" d="M836.64,410.7c5.72.23,11.24.41,16.59.54L443.72,0H0V523.42H573.12S606.35,401.44,836.64,410.7Z" transform="translate(0 0.1)"/><path class="cls-4" d="M1311.11,209.29c-149.06,235.15-142.07,60.22-219.32,93C990.85,345.15,1066.92,420,836.64,410.7S573.12,523.42,573.12,523.42H1440V154.65S1372.32,112.71,1311.11,209.29Z" transform="translate(0 0.1)"/><path class="cls-5" d="M1311.11,239C1162.05,474.1,1169,299.17,1091.79,332c-100.94,42.83-24.87,117.65-255.15,108.39-155.88-6.27-221.47,47.59-247.58,83H1440V184.31S1372.32,142.38,1311.11,239Z" transform="translate(0 0.1)"/><g id="clouds"><path class="cls-6" d="M1053.07,70.31c-25.83,0-51.94,36.9-63.8,70.23a10.17,10.17,0,0,0,9.61,13.53h112.38a10.17,10.17,0,0,0,9.42-14C1106,104.6,1078.64,70.31,1053.07,70.31Z" transform="translate(0 0.1)"/><path class="cls-7" d="M1199.61,85.71c-20.68,0-41.58,29-51.5,55.79a9.33,9.33,0,0,0,8.76,12.57h88.68a9.33,9.33,0,0,0,8.6-13C1242,112.73,1220.12,85.71,1199.61,85.71Z" transform="translate(0 0.1)"/><path class="cls-7" d="M1210.47,154.07c-16.76-55.64-33.67-97.49-74.08-97.49-40.88,0-82.28,47.09-95.2,97.49Z" transform="translate(0 0.1)"/></g><path class="cls-8" d="M0,523.42V772H1440V523.42" transform="translate(0 0.1)"/></svg>