<?xml version="1.0" encoding="utf-8"?>
<!-- Generator: Adobe Illustrator 24.0.3, SVG Export Plug-In . SVG Version: 6.00 Build 0)  -->
<svg version="1.1" id="Calque_1" xmlns="http://www.w3.org/2000/svg" xmlns:xlink="http://www.w3.org/1999/xlink" x="0px" y="0px"
	 viewBox="0 0 1080 1920" style="enable-background:new 0 0 1080 1920;" xml:space="preserve">
<style type="text/css">
	.st0{fill:#FCDEDE;}
	.st1{fill:#76A0F4;}
	.st2{fill:#D39090;}
	.st3{fill:#BA6060;}
	.st4{fill:#BF6D6D;}
	.st5{fill:#AD4F4D;}
	.st6{fill:#F7F7F7;}
	.st7{fill:#FFFFFF;}
	.st8{fill:#4B79C4;}
	.st9{fill:#EF7373;}
	.st10{fill:#EF6059;}
</style>
<rect id="background" x="-0.1" y="1.4" class="st0" width="1080.1" height="1917"/>
<rect id="water" y="1812" class="st1" width="1080" height="108"/>
<polygon class="st2" points="400.6,1229.7 337.3,1382.6 530.3,1799.1 684.1,1798.3 "/>
<polygon class="st3" points="400.6,1229.7 323.5,1396.4 516.6,1812.8 670.4,1812 "/>
<polygon id="first_2_" class="st4" points="26,1319.3 144.2,1008.8 492,1702 280.6,1809.5 26,1809.6 "/>
<polygon id="first_1_" class="st5" points="0,1321.7 144.2,1008.8 466,1704.4 254.6,1811.9 0,1812 "/>
<g id="cloud-3_second">
	<g id="clouds-2">
		<path class="st6" d="M752.3,643c-29.8,0-60.1,42.6-73.8,81.3c-2.2,6.1,1,12.8,7.2,15c1.3,0.4,2.6,0.6,3.9,0.6h130
			c6.5,0,11.8-5.3,11.8-11.8c0-1.6-0.3-3.1-0.9-4.5C813.5,682.7,781.9,643,752.3,643z"/>
		<path class="st7" d="M921.8,660.8c-23.9,0-48.1,33.6-59.5,64.6c-2.1,5.6,0.8,11.8,6.3,13.8c1.2,0.4,2.5,0.6,3.7,0.6h102.6
			c5.9,0,10.9-4.8,10.9-10.7c0-1.4-0.3-2.8-0.9-4.3C970.9,692.1,945.6,660.8,921.8,660.8z"/>
		<path class="st7" d="M934.3,739.9c-19.4-64.3-39-112.8-85.6-112.8c-47.3,0-95.2,54.5-110.1,112.8H934.3z"/>
	</g>
</g>
<g id="clouds-3_first">
	<path class="st6" d="M719.2,165c-32.3,0-65,46.1-79.8,87.9c-2.4,6.6,1.1,13.8,7.8,16.2c1.4,0.4,2.8,0.7,4.2,0.7h140.7
		c7,0,12.7-5.7,12.7-12.7c0-1.7-0.3-3.4-1-4.9C785.5,207.9,751.2,165,719.2,165z"/>
	<path class="st7" d="M902.6,184.3c-25.9,0-52,36.4-64.5,69.9c-2.2,6,0.8,12.7,6.9,15c1.3,0.4,2.7,0.7,4.1,0.7h111
		c6.4,0,11.7-5.2,11.7-11.6c0-1.5-0.3-3.1-1-4.6C955.8,218.1,928.4,184.3,902.6,184.3z"/>
	<path class="st7" d="M916.2,269.8c-21-69.6-42.2-122.1-92.7-122.1c-51.2,0-103,59-119.1,122.1H916.2z"/>
</g>
<g id="clouds-2_2_">
	<path class="st6" d="M553.5,442.7c-27.4,0-55.1,39.1-67.6,74.5c-2,5.6,0.9,11.7,6.6,13.7c1.2,0.4,2.4,0.6,3.6,0.6h119.2
		c5.9,0,10.8-4.9,10.8-10.8c0-1.4-0.2-2.8-0.8-4.1C609.7,479,580.6,442.7,553.5,442.7z"/>
	<path class="st7" d="M720.4,531.5c-17.8-59-35.8-103.4-78.5-103.4c-43.3,0-87.3,50-100.9,103.4H720.4z"/>
</g>
<g id="red_mountain_1_">
	<path class="st8" d="M1080,1812l-78.9-3.8H254.7c22.9,9.2,80.4,23.1,217.2,21.5c202-2.4,135.3,17,223.8,28
		c67.8,8.5,61.6-36.8,192.4,24.1C941.7,1906.8,1080,1812,1080,1812z"/>
</g>
<g id="red_mountain">
	<path class="st9" d="M957.2,1512.9c-141.9,223.9-135.3,57.3-208.8,88.5c-96.1,40.8-23.7,112-242.9,103.2s-250.9,107.3-250.9,107.3
		h825.3v-351.1C1079.9,1460.8,1015.5,1420.9,957.2,1512.9z"/>
	<path class="st10" d="M957.2,1541.1c-141.9,223.9-135.3,57.3-208.8,88.5c-96.1,40.8-23.7,112-242.9,103.2
		c-148.4-6-210.9,45.3-235.7,79h810.1V1489C1079.9,1489.1,1015.5,1449.2,957.2,1541.1z"/>
</g>
<path class="st7" d="M144.2,1008.8L71,1167.7l-35.7,77.4c0,0,49.1-25.6,77.1-27.1c64.2-3.5,65.3,29,88.4,27.1
	c14.8-1.2,28.7-52.1,28.7-52.1L144.2,1008.8z"/>
<polygon class="st6" points="233,1185.8 229.5,1193.1 144.2,1008.8 "/>
<path class="st7" d="M350.4,1338.3c0,0,38.2-13.8,45,17.1s60.9-5.5,60.9-5.5l-55.7-120.2L350.4,1338.3z"/>
<polygon class="st6" points="456.3,1349.9 459.7,1348.1 400.6,1229.7 "/>
</svg>
