<svg xmlns="http://www.w3.org/2000/svg" viewBox="0 0 2000.64 3563"><defs><style>.cls-1{fill:#4b7fd1;}.cls-2{fill:#76a0f4;}.cls-3{fill:#97bfff;}.cls-4{fill:#c0daff;}.cls-5{fill:#e3f0ff;}</style></defs><title>wavebig</title><g id="Layer_2" data-name="Layer 2"><g id="Calque_1" data-name="Calque 1"><path class="cls-1" d="M.64,0V2012h2000V0"/><path class="cls-2" d="M1628.75,259c-232.89-64-628.11,89-905.9,0S241.37,259,.64,259V2000h2000V259C1876.68,259,1861.64,323,1628.75,259Z"/><path class="cls-3" d="M1409.11,475c-351.74,180-947.85-91-1224.5,0C91.68,505.57,36.73,515.6.64,515.44V1928h2000V475C1803.46,475,1760.85,295,1409.11,475Z"/><path class="cls-4" d="M1162.11,758C837.58,551,903.64,826,498,758s-331.6,0-497.39,0V1810h2000V758C1721.13,758,1486.64,965,1162.11,758Z"/><polygon class="cls-5" points="0.64 1259.2 0.64 1259.2 0.64 1259.2 0.64 1259.2"/><path class="cls-5" d="M46.32,1259.2h0Z"/><path class="cls-5" d="M886.64,1128.56C-56.63,1489.7.77,1124.3.64,1124.25h0V3563h2000V1124.25C1628.28,1124.25,1577.64,864,886.64,1128.56Z"/></g></g></svg>