<svg xmlns="http://www.w3.org/2000/svg" viewBox="0 0 2000 843.38"><defs><style>.cls-1{fill:#76a0f4;}.cls-2{fill:#97bfff;}.cls-3{fill:#c0daff;}.cls-4{fill:#e3f0ff;}</style></defs><title>wavetest</title><g id="Layer_2" data-name="Layer 2"><g id="Calque_1" data-name="Calque 1"><path class="cls-1" d="M0,0V843.38H2000V0"/><path class="cls-2" d="M1408.47,104.63c-351.74,87.2-947.85-44.08-1224.47,0C91,119.44,36.1,124.3,0,124.22V808.5H2000V104.63C1802.82,104.63,1760.21,17.44,1408.47,104.63Z"/><path class="cls-3" d="M1161.47,241.73c-324.53-100.28-258.47,32.94-664.08,0s-331.59,0-497.39,0V751.34H2000V241.73C1720.49,241.73,1486,342,1161.47,241.73Z"/><path class="cls-4" d="M903,478.8c-523,154.39-902.87-55-903-55H0V843.38H2000V423.77C1627.64,423.77,1426,324.41,903,478.8Z"/></g></g></svg>