<svg xmlns="http://www.w3.org/2000/svg" viewBox="0 0 3287.5 479.97"><defs><style>.cls-1{fill:#76a0f4;}.cls-2{fill:#97bfff;}.cls-3{fill:#c0daff;}.cls-4{fill:#e3f0ff;}</style></defs><title>wave421</title><g id="Layer_2" data-name="Layer 2"><g id="Layer_1-2" data-name="Layer 1"><g id="Layer_2-2" data-name="Layer 2"><g id="Calque_1" data-name="Calque 1"><path class="cls-1" d="M0,0V480H3287.5V0"/><path class="cls-2" d="M2315.17,64.93c-578.17,51.42-1558-26-2012.72,0C149.58,73.67,59.34,76.53,0,76.49V480H3287.5v-415C2963.38,64.93,2893.34,13.52,2315.17,64.93Z"/><path class="cls-3" d="M1909.17,154.42c-533.45-64.06-424.86,21-1091.59,0s-545.05,0-817.58,0V480H3287.5V154.42C2828.05,154.42,2442.61,218.47,1909.17,154.42Z"/><path class="cls-4" d="M1484.31,297.21C624.62,374.6.21,269.63,0,269.63H0V480H3287.5V269.62C2675.43,269.62,2344,219.81,1484.31,297.21Z"/></g></g></g></g></svg>