<svg id="Calque_1" data-name="Calque 1" xmlns="http://www.w3.org/2000/svg" viewBox="0 0 2000 1986.99"><defs><style>.cls-1{fill:#4b7fd1;}.cls-2{fill:#76a0f4;}.cls-3{fill:#97bfff;}.cls-4{fill:#c0daff;}.cls-5{fill:#e3f0ff;}</style></defs><title>wave</title><path class="cls-1" d="M1273,70C994.51,9.6,937.08,10.11,660.29,71,257.36,159.64,216.8,72.61,0,71V2012H2000V40C1825.11,41.52,1441.77,106.6,1273,70Z" transform="translate(0 -25.01)"/><path class="cls-2" d="M1628.11,259c-232.88-64-628.11,89-905.9,0S240.74,259,0,259V2000H2000V259C1876,259,1861,323,1628.11,259Z" transform="translate(0 -25.01)"/><path class="cls-3" d="M1408.47,475C1056.73,655,460.62,384,184,475,91,505.57,36.1,515.6,0,515.44V1928H2000V475C1802.82,475,1760.21,295,1408.47,475Z" transform="translate(0 -25.01)"/><path class="cls-4" d="M1161.47,758C836.94,551,903,826,497.39,758S165.8,758,0,758V1810H2000V758C1720.49,758,1486,965,1161.47,758Z" transform="translate(0 -25.01)"/><polygon class="cls-5" points="0 1108.78 0 1108.78 0 1108.78 0 1108.78"/><path class="cls-5" d="M45.68,1133.79h0Z" transform="translate(0 -25.01)"/><path class="cls-5" d="M903,1247.39C380,1566.1.13,1133.81,0,1133.79H0V2000H2000V1133.79C1627.64,1133.79,1426,928.68,903,1247.39Z" transform="translate(0 -25.01)"/></svg>