<?xml version="1.0" encoding="utf-8"?>
<!-- Generator: Adobe Illustrator 24.0.3, SVG Export Plug-In . SVG Version: 6.00 Build 0)  -->
<svg version="1.1" id="Calque_1" xmlns="http://www.w3.org/2000/svg" xmlns:xlink="http://www.w3.org/1999/xlink" x="0px" y="0px"
	 viewBox="0 0 2000 1987" style="enable-background:new 0 0 2000 1987;" xml:space="preserve">
<style type="text/css">
	.st0{fill:#4B7FD1;}
	.st1{fill:#76A0F4;}
	.st2{fill:#97BFFF;}
	.st3{fill:#C0DAFF;}
	.st4{fill:#E3F0FF;}
</style>
<title>wave</title>
<path class="st0" d="M0-78.6l0,1943.4h2000V-48.1c-216.8,1.6-257.4,87.4-660.3,0c-276.8-60-334.2-60.5-612.7-1
	C558.2-13,174.9-77.1,0-78.6z"/>
<path class="st1" d="M0,234l0,1741h2000V234c-240.7,0-444.4-89-722.2,0s-673-64-905.9,0C139,298,124,234,0,234z"/>
<path class="st2" d="M0,450l0,1453h2000V490.4c-36.1,0.2-91-9.9-184-40.4c-276.6-91-872.7,180-1224.5,0S197.2,450,0,450z"/>
<path class="st3" d="M0,733l0,1052h2000V733c-165.8,0-91.8-68-497.4,0s-339.5-207-664.1,0S279.5,733,0,733z"/>
<polygon class="st4" points="2000,1108.8 2000,1108.8 2000,1108.8 "/>
<path class="st4" d="M1954.3,1108.8L1954.3,1108.8z"/>
<path class="st4" d="M0,1109.6L0,1987h2000v-877.4l0,0c-0.1,0-380,437.9-903,115.1S372.4,1109.6,0,1109.6z"/>
</svg>
