<svg xmlns="http://www.w3.org/2000/svg" viewBox="0 0 6417.79 479.97"><defs><style>.cls-1{fill:#76a0f4;}.cls-2{fill:#97bfff;}.cls-3{fill:#c0daff;}.cls-4{fill:#e3f0ff;}</style></defs><title>wave422</title><g id="Layer_2" data-name="Layer 2"><g id="Layer_1-2" data-name="Layer 1"><g id="Layer_2-2" data-name="Layer 2"><g id="Calque_1" data-name="Calque 1"><path class="cls-1" d="M0,0V480H6417.79V0"/><path class="cls-2" d="M4519.63,64.93c-1128.69,51.42-3041.55-26-3929.19,0C292,73.67,115.84,76.53,0,76.49V480H6417.79v-415C5785.06,64.93,5648.33,13.52,4519.63,64.93Z"/><path class="cls-3" d="M3727,154.42c-1041.39-64.06-829.41,21-2131,0s-1064,0-1596.07,0V480H6417.79V154.42C5520.87,154.42,4768.42,218.47,3727,154.42Z"/><path class="cls-4" d="M2897.63,297.21C1219.38,374.6.42,269.63,0,269.63H0V480H6417.79V269.62C5222.93,269.62,4575.89,219.81,2897.63,297.21Z"/></g></g></g></g></svg>