<svg xmlns="http://www.w3.org/2000/svg" viewBox="0 0 2000 538.76"><defs><style>.cls-1{fill:#76a0f4;}.cls-2{fill:#97bfff;}.cls-3{fill:#c0daff;}.cls-4{fill:#e3f0ff;}</style></defs><title>wave420</title><g id="Layer_2" data-name="Layer 2"><g id="Layer_1-2" data-name="Layer 1"><g id="Layer_2-2" data-name="Layer 2"><g id="Calque_1" data-name="Calque 1"><path class="cls-1" d="M0,0V538.76H2000V0"/><path class="cls-2" d="M1408.47,66.84c-351.74,55.7-947.85-28.16-1224.47,0C91,76.3,36.1,79.4,0,79.35V516.48H2000V66.84C1802.82,66.84,1760.21,11.14,1408.47,66.84Z"/><path class="cls-3" d="M1161.47,154.42c-324.53-64.06-258.47,21-664.08,0s-331.59,0-497.39,0V480H2000V154.42C1720.49,154.42,1486,218.47,1161.47,154.42Z"/><path class="cls-4" d="M903,356C380,433.4.13,328.43,0,328.43H0V538.76H2000V328.42C1627.64,328.42,1426,278.61,903,356Z"/></g></g></g></g></svg>