<svg width="287" height="331" viewBox="0 0 287 331" fill="none" xmlns="http://www.w3.org/2000/svg">
<path d="M142.233 111.177C173.321 111.177 198.522 86.2894 198.522 55.5886C198.522 24.8879 173.321 0 142.233 0C111.146 0 85.9443 24.8879 85.9443 55.5886C85.9443 86.2894 111.146 111.177 142.233 111.177Z" fill="#E8D6D6"/>
<path d="M56.2889 255.152C87.3764 255.152 112.578 230.264 112.578 199.563C112.578 168.862 87.3764 143.975 56.2889 143.975C25.2014 143.975 0 168.862 0 199.563C0 230.264 25.2014 255.152 56.2889 255.152Z" fill="#EF6059"/>
<path d="M228.178 255.152C259.265 255.152 284.467 230.264 284.467 199.563C284.467 168.862 259.265 143.975 228.178 143.975C197.09 143.975 171.889 168.862 171.889 199.563C171.889 230.264 197.09 255.152 228.178 255.152Z" fill="#DE4238"/>
<path d="M35.1719 313H32.5156V292.516H25.2812V290.156H42.4062V292.516H35.1719V313ZM48.0625 313H45.4688V295.875H48.0625V313ZM45.25 291.234C45.25 290.641 45.3958 290.208 45.6875 289.938C45.9792 289.656 46.3438 289.516 46.7812 289.516C47.1979 289.516 47.5573 289.656 47.8594 289.938C48.1615 290.219 48.3125 290.651 48.3125 291.234C48.3125 291.818 48.1615 292.255 47.8594 292.547C47.5573 292.828 47.1979 292.969 46.7812 292.969C46.3438 292.969 45.9792 292.828 45.6875 292.547C45.3958 292.255 45.25 291.818 45.25 291.234ZM75.3906 313V301.859C75.3906 300.495 75.099 299.474 74.5156 298.797C73.9323 298.109 73.026 297.766 71.7969 297.766C70.1823 297.766 68.9896 298.229 68.2188 299.156C67.4479 300.083 67.0625 301.51 67.0625 303.438V313H64.4688V301.859C64.4688 300.495 64.1771 299.474 63.5938 298.797C63.0104 298.109 62.099 297.766 60.8594 297.766C59.2344 297.766 58.0417 298.255 57.2812 299.234C56.5312 300.203 56.1562 301.797 56.1562 304.016V313H53.5625V295.875H55.6719L56.0938 298.219H56.2188C56.7083 297.385 57.3958 296.734 58.2812 296.266C59.1771 295.797 60.1771 295.562 61.2812 295.562C63.9583 295.562 65.7083 296.531 66.5312 298.469H66.6562C67.1667 297.573 67.9062 296.865 68.875 296.344C69.8438 295.823 70.9479 295.562 72.1875 295.562C74.125 295.562 75.5729 296.062 76.5312 297.062C77.5 298.052 77.9844 299.641 77.9844 301.828V313H75.3906ZM90.5781 313.312C88.0469 313.312 86.0469 312.542 84.5781 311C83.1198 309.458 82.3906 307.318 82.3906 304.578C82.3906 301.818 83.0677 299.625 84.4219 298C85.7865 296.375 87.6146 295.562 89.9062 295.562C92.0521 295.562 93.75 296.271 95 297.688C96.25 299.094 96.875 300.953 96.875 303.266V304.906H85.0781C85.1302 306.917 85.6354 308.443 86.5938 309.484C87.5625 310.526 88.9219 311.047 90.6719 311.047C92.5156 311.047 94.3385 310.661 96.1406 309.891V312.203C95.224 312.599 94.3542 312.88 93.5312 313.047C92.7188 313.224 91.7344 313.312 90.5781 313.312ZM89.875 297.734C88.5 297.734 87.401 298.182 86.5781 299.078C85.7656 299.974 85.2865 301.214 85.1406 302.797H94.0938C94.0938 301.161 93.7292 299.911 93 299.047C92.2708 298.172 91.2292 297.734 89.875 297.734ZM120.156 313L119.641 310.562H119.516C118.661 311.635 117.807 312.365 116.953 312.75C116.109 313.125 115.052 313.312 113.781 313.312C112.083 313.312 110.75 312.875 109.781 312C108.823 311.125 108.344 309.88 108.344 308.266C108.344 304.807 111.109 302.995 116.641 302.828L119.547 302.734V301.672C119.547 300.328 119.255 299.339 118.672 298.703C118.099 298.057 117.177 297.734 115.906 297.734C114.479 297.734 112.865 298.172 111.062 299.047L110.266 297.062C111.109 296.604 112.031 296.245 113.031 295.984C114.042 295.724 115.052 295.594 116.062 295.594C118.104 295.594 119.615 296.047 120.594 296.953C121.583 297.859 122.078 299.312 122.078 301.312V313H120.156ZM114.297 311.172C115.911 311.172 117.177 310.729 118.094 309.844C119.021 308.958 119.484 307.719 119.484 306.125V304.578L116.891 304.688C114.828 304.76 113.339 305.083 112.422 305.656C111.516 306.219 111.062 307.099 111.062 308.297C111.062 309.234 111.344 309.948 111.906 310.438C112.479 310.927 113.276 311.172 114.297 311.172ZM139.156 313V301.922C139.156 300.526 138.839 299.484 138.203 298.797C137.568 298.109 136.573 297.766 135.219 297.766C133.427 297.766 132.115 298.25 131.281 299.219C130.448 300.188 130.031 301.786 130.031 304.016V313H127.438V295.875H129.547L129.969 298.219H130.094C130.625 297.375 131.37 296.724 132.328 296.266C133.286 295.797 134.354 295.562 135.531 295.562C137.594 295.562 139.146 296.062 140.188 297.062C141.229 298.052 141.75 299.641 141.75 301.828V313H139.156ZM158.75 310.703H158.609C157.411 312.443 155.62 313.312 153.234 313.312C150.995 313.312 149.25 312.547 148 311.016C146.76 309.484 146.141 307.307 146.141 304.484C146.141 301.661 146.766 299.469 148.016 297.906C149.266 296.344 151.005 295.562 153.234 295.562C155.557 295.562 157.339 296.406 158.578 298.094H158.781L158.672 296.859L158.609 295.656V288.688H161.203V313H159.094L158.75 310.703ZM153.562 311.141C155.333 311.141 156.615 310.661 157.406 309.703C158.208 308.734 158.609 307.177 158.609 305.031V304.484C158.609 302.057 158.203 300.328 157.391 299.297C156.589 298.255 155.302 297.734 153.531 297.734C152.01 297.734 150.844 298.328 150.031 299.516C149.229 300.693 148.828 302.359 148.828 304.516C148.828 306.703 149.229 308.354 150.031 309.469C150.833 310.583 152.01 311.141 153.562 311.141ZM188.312 306.922C188.312 308.932 187.583 310.5 186.125 311.625C184.667 312.75 182.688 313.312 180.188 313.312C177.479 313.312 175.396 312.964 173.938 312.266V309.703C174.875 310.099 175.896 310.411 177 310.641C178.104 310.87 179.198 310.984 180.281 310.984C182.052 310.984 183.385 310.651 184.281 309.984C185.177 309.307 185.625 308.37 185.625 307.172C185.625 306.38 185.464 305.734 185.141 305.234C184.828 304.724 184.297 304.255 183.547 303.828C182.807 303.401 181.677 302.917 180.156 302.375C178.031 301.615 176.51 300.714 175.594 299.672C174.688 298.63 174.234 297.271 174.234 295.594C174.234 293.833 174.896 292.432 176.219 291.391C177.542 290.349 179.292 289.828 181.469 289.828C183.74 289.828 185.828 290.245 187.734 291.078L186.906 293.391C185.021 292.599 183.188 292.203 181.406 292.203C180 292.203 178.901 292.505 178.109 293.109C177.318 293.714 176.922 294.552 176.922 295.625C176.922 296.417 177.068 297.068 177.359 297.578C177.651 298.078 178.141 298.542 178.828 298.969C179.526 299.385 180.589 299.849 182.016 300.359C184.411 301.214 186.057 302.13 186.953 303.109C187.859 304.089 188.312 305.359 188.312 306.922ZM200.562 313.312C199.448 313.312 198.427 313.109 197.5 312.703C196.583 312.286 195.812 311.651 195.188 310.797H195C195.125 311.797 195.188 312.745 195.188 313.641V320.688H192.594V295.875H194.703L195.062 298.219H195.188C195.854 297.281 196.63 296.604 197.516 296.188C198.401 295.771 199.417 295.562 200.562 295.562C202.833 295.562 204.583 296.339 205.812 297.891C207.052 299.443 207.672 301.62 207.672 304.422C207.672 307.234 207.042 309.422 205.781 310.984C204.531 312.536 202.792 313.312 200.562 313.312ZM200.188 297.766C198.438 297.766 197.172 298.25 196.391 299.219C195.609 300.188 195.208 301.729 195.188 303.844V304.422C195.188 306.828 195.589 308.552 196.391 309.594C197.193 310.625 198.479 311.141 200.25 311.141C201.729 311.141 202.885 310.542 203.719 309.344C204.562 308.146 204.984 306.495 204.984 304.391C204.984 302.255 204.562 300.62 203.719 299.484C202.885 298.339 201.708 297.766 200.188 297.766ZM222.75 313L222.234 310.562H222.109C221.255 311.635 220.401 312.365 219.547 312.75C218.703 313.125 217.646 313.312 216.375 313.312C214.677 313.312 213.344 312.875 212.375 312C211.417 311.125 210.938 309.88 210.938 308.266C210.938 304.807 213.703 302.995 219.234 302.828L222.141 302.734V301.672C222.141 300.328 221.849 299.339 221.266 298.703C220.693 298.057 219.771 297.734 218.5 297.734C217.073 297.734 215.458 298.172 213.656 299.047L212.859 297.062C213.703 296.604 214.625 296.245 215.625 295.984C216.635 295.724 217.646 295.594 218.656 295.594C220.698 295.594 222.208 296.047 223.188 296.953C224.177 297.859 224.672 299.312 224.672 301.312V313H222.75ZM216.891 311.172C218.505 311.172 219.771 310.729 220.688 309.844C221.615 308.958 222.078 307.719 222.078 306.125V304.578L219.484 304.688C217.422 304.76 215.932 305.083 215.016 305.656C214.109 306.219 213.656 307.099 213.656 308.297C213.656 309.234 213.938 309.948 214.5 310.438C215.073 310.927 215.87 311.172 216.891 311.172ZM236.875 313.312C234.396 313.312 232.474 312.552 231.109 311.031C229.755 309.5 229.078 307.339 229.078 304.547C229.078 301.682 229.766 299.469 231.141 297.906C232.526 296.344 234.495 295.562 237.047 295.562C237.87 295.562 238.693 295.651 239.516 295.828C240.339 296.005 240.984 296.214 241.453 296.453L240.656 298.656C240.083 298.427 239.458 298.24 238.781 298.094C238.104 297.938 237.505 297.859 236.984 297.859C233.505 297.859 231.766 300.078 231.766 304.516C231.766 306.62 232.188 308.234 233.031 309.359C233.885 310.484 235.146 311.047 236.812 311.047C238.24 311.047 239.703 310.74 241.203 310.125V312.422C240.057 313.016 238.615 313.312 236.875 313.312ZM252.516 313.312C249.984 313.312 247.984 312.542 246.516 311C245.057 309.458 244.328 307.318 244.328 304.578C244.328 301.818 245.005 299.625 246.359 298C247.724 296.375 249.552 295.562 251.844 295.562C253.99 295.562 255.688 296.271 256.938 297.688C258.188 299.094 258.812 300.953 258.812 303.266V304.906H247.016C247.068 306.917 247.573 308.443 248.531 309.484C249.5 310.526 250.859 311.047 252.609 311.047C254.453 311.047 256.276 310.661 258.078 309.891V312.203C257.161 312.599 256.292 312.88 255.469 313.047C254.656 313.224 253.672 313.312 252.516 313.312ZM251.812 297.734C250.438 297.734 249.339 298.182 248.516 299.078C247.703 299.974 247.224 301.214 247.078 302.797H256.031C256.031 301.161 255.667 299.911 254.938 299.047C254.208 298.172 253.167 297.734 251.812 297.734Z" fill="#231F20"/>
</svg>
